<?xml version="1.0" encoding="utf-8"?>
<!-- Generator: Adobe Illustrator 23.0.1, SVG Export Plug-In . SVG Version: 6.00 Build 0)  -->
<svg version="1.1" id="Layer_1" xmlns="http://www.w3.org/2000/svg" xmlns:xlink="http://www.w3.org/1999/xlink" x="0px" y="0px"
	 viewBox="0 0 512 512" style="enable-background:new 0 0 512 512;" xml:space="preserve">
<style type="text/css">
	.st0{fill:#EF4036;}
</style>
<g id="configuration-server-database-web_design-setting">
	<path class="st0" d="M472,16H40c-13.24,0.04-23.96,10.76-24,24v432c0.04,13.24,10.76,23.96,24,24h432c13.24-0.04,23.96-10.76,24-24
		V40C495.96,26.76,485.24,16.04,472,16z M480,472c0,4.42-3.58,8-8,8H40c-4.42,0-8-3.58-8-8V96h448V472z M480,80H32V40
		c0-4.42,3.58-8,8-8h432c4.42,0,8,3.58,8,8V80z"/>
	<path class="st0" d="M64,48h-8c-4.42,0-8,3.58-8,8s3.58,8,8,8h8c4.42,0,8-3.58,8-8S68.42,48,64,48z"/>
	<path class="st0" d="M96,48h-8c-4.42,0-8,3.58-8,8s3.58,8,8,8h8c4.42,0,8-3.58,8-8S100.42,48,96,48z"/>
	<path class="st0" d="M128,48h-8c-4.42,0-8,3.58-8,8s3.58,8,8,8h8c4.42,0,8-3.58,8-8S132.42,48,128,48z"/>
	<path class="st0" d="M456,48H176c-4.42,0-8,3.58-8,8s3.58,8,8,8h280c4.42,0,8-3.58,8-8S460.42,48,456,48z"/>
	<g>
		<path class="st0" d="M408,248h-13.6c-2.97-10.3-7.1-20.23-12.32-29.6l9.68-9.6c9.28-9.43,9.28-24.57,0-34l-22.64-22.56
			c-9.4-9.28-24.52-9.28-33.92,0l-9.6,9.68c-9.37-5.22-19.3-9.35-29.6-12.32V136c-0.04-13.24-10.76-23.96-24-24h-32
			c-13.24,0.04-23.96,10.76-24,24v13.6c-10.3,2.97-20.23,7.1-29.6,12.32l-9.6-9.68c-9.43-9.28-24.57-9.28-34,0l-22.56,22.64
			c-9.28,9.4-9.28,24.52,0,33.92l9.68,9.6c-5.22,9.37-9.35,19.3-12.32,29.6H104c-13.24,0.04-23.96,10.76-24,24v32
			c0.04,13.24,10.76,23.96,24,24h13.6c2.97,10.3,7.1,20.23,12.32,29.6l-9.68,9.6c-9.28,9.43-9.28,24.57,0,34l22.64,22.56
			c9.4,9.28,24.52,9.28,33.92,0l9.6-9.68c9.37,5.22,19.3,9.35,29.6,12.32V440c0.04,13.24,10.76,23.96,24,24h32
			c13.24-0.04,23.96-10.76,24-24v-13.6c10.3-2.97,20.23-7.1,29.6-12.32l9.6,9.68c9.43,9.28,24.57,9.28,34,0l22.56-22.64
			c9.28-9.4,9.28-24.52,0-33.92l-9.68-9.6c5.22-9.37,9.35-19.3,12.32-29.6H408c13.24-0.04,23.96-10.76,24-24v-32
			C431.96,258.76,421.24,248.04,408,248L408,248z M416,304c0,4.42-3.58,8-8,8h-19.76c-3.7,0.01-6.91,2.56-7.76,6.16
			c-3.13,12.9-8.26,25.24-15.2,36.56c-1.91,3.15-1.45,7.2,1.12,9.84l14,14c3.11,2.99,3.21,7.95,0.22,11.06
			c-0.07,0.07-0.14,0.15-0.22,0.22l-22.48,22.56c-3.05,3.14-8.06,3.21-11.2,0.16c-0.05-0.05-0.11-0.11-0.16-0.16l-14-14
			c-2.64-2.57-6.69-3.03-9.84-1.12c-11.32,6.94-23.66,12.07-36.56,15.2c-3.6,0.85-6.15,4.06-6.16,7.76V440c0,4.42-3.58,8-8,8h-32
			c-4.42,0-8-3.58-8-8v-19.76c-0.01-3.7-2.56-6.91-6.16-7.76c-12.9-3.13-25.24-8.26-36.56-15.2c-1.25-0.78-2.69-1.2-4.16-1.2
			c-2.12,0.01-4.16,0.84-5.68,2.32l-14,14c-3.05,3.11-8.05,3.17-11.17,0.11c-0.04-0.04-0.08-0.08-0.11-0.11l-22.56-22.48
			c-3.14-3.05-3.21-8.06-0.16-11.2c0.05-0.05,0.11-0.11,0.16-0.16l14-14c2.57-2.64,3.03-6.69,1.12-9.84
			c-6.94-11.32-12.07-23.66-15.2-36.56c-0.85-3.6-4.06-6.15-7.76-6.16H104c-4.42,0-8-3.58-8-8v-32c0-4.42,3.58-8,8-8h19.76
			c3.7-0.01,6.91-2.56,7.76-6.16c3.13-12.9,8.26-25.24,15.2-36.56c1.91-3.15,1.45-7.2-1.12-9.84l-14-14
			c-3.11-2.99-3.21-7.95-0.22-11.06c0.07-0.07,0.14-0.15,0.22-0.22l22.48-22.56c3.05-3.14,8.06-3.21,11.2-0.16
			c0.05,0.05,0.11,0.11,0.16,0.16l14,14c2.64,2.57,6.69,3.03,9.84,1.12c11.32-6.94,23.66-12.07,36.56-15.2
			c3.6-0.85,6.15-4.06,6.16-7.76V136c0-4.42,3.58-8,8-8h32c4.42,0,8,3.58,8,8v19.76c0.01,3.7,2.56,6.91,6.16,7.76
			c12.9,3.13,25.24,8.26,36.56,15.2c3.15,1.91,7.2,1.45,9.84-1.12l14-14c2.99-3.11,7.95-3.21,11.06-0.22
			c0.07,0.07,0.15,0.14,0.22,0.22l22.56,22.48c3.14,3.05,3.21,8.06,0.16,11.2c-0.05,0.05-0.11,0.11-0.16,0.16l-14,14
			c-2.57,2.64-3.03,6.69-1.12,9.84c6.94,11.32,12.07,23.66,15.2,36.56c0.85,3.6,4.06,6.15,7.76,6.16H408c4.42,0,8,3.58,8,8V304z"/>
		<path class="st0" d="M256,184c-57.44,0-104,46.56-104,104s46.56,104,104,104s104-46.56,104-104
			C359.95,230.58,313.42,184.05,256,184z M284,336.4c-2.49,1.43-4.01,4.09-4,6.96v29.2c-15.67,4.59-32.33,4.59-48,0v-29.2
			c0.01-2.87-1.51-5.53-4-6.96c-26.77-15.44-35.95-49.65-20.52-76.42c4.12-7.14,9.75-13.27,16.52-17.98v46
			c0.01,2.68,1.36,5.17,3.6,6.64l24,16c2.64,1.84,6.16,1.84,8.8,0l24-16c2.24-1.47,3.59-3.96,3.6-6.64v-46
			c25.37,17.65,31.63,52.52,13.98,77.88C297.27,326.65,291.14,332.28,284,336.4z M296,366.32v-18.48
			c33.08-22.07,42-66.77,19.93-99.85c-8.03-12.03-19.49-21.36-32.89-26.79c-2.49-0.95-5.28-0.65-7.52,0.8
			c-2.18,1.51-3.49,3.99-3.52,6.64v55.04l-16,10.72l-16-10.72v-55.04c0.02-4.42-3.54-8.02-7.96-8.04c-1.06-0.01-2.1,0.2-3.08,0.6
			c-36.86,14.91-54.66,56.88-39.75,93.75c5.42,13.41,14.76,24.87,26.79,32.89v18.48c-43.29-22.09-60.48-75.09-38.38-118.38
			s75.09-60.48,118.38-38.38s60.48,75.09,38.38,118.38C325.95,344.46,312.52,357.89,296,366.32L296,366.32z"/>
	</g>
</g>
</svg>
