<?xml version="1.0" encoding="utf-8"?>
<!-- Generator: Adobe Illustrator 23.0.1, SVG Export Plug-In . SVG Version: 6.00 Build 0)  -->
<svg version="1.1" id="Layer_1" xmlns="http://www.w3.org/2000/svg" xmlns:xlink="http://www.w3.org/1999/xlink" x="0px" y="0px"
	 viewBox="0 0 555 555" style="enable-background:new 0 0 555 555;" xml:space="preserve">
<style type="text/css">
	.st0{opacity:0.2;fill:#171D30;}
	.st1{fill:#EF4036;}
	.st2{fill:#171D30;}
	.st3{fill:none;}
	.st4{font-family:'Poppins-SemiBold';}
	.st5{font-size:36.4546px;}
	.st6{font-family:'Poppins-Medium';}
	.st7{font-size:29.9403px;}
</style>
<path class="st0" d="M277.57,42.37V283.3L192.48,58.06c-3.05,1.18-6.07,2.4-9.05,3.7c-83.2,36.18-141.37,119.1-141.37,215.61
	c0,129.79,105.21,235,235,235s235-105.21,235-235C512.06,147.75,407.12,42.65,277.57,42.37z"/>
<circle class="st1" cx="277.06" cy="277.36" r="98.18"/>
<ellipse class="st1" cx="-434.52" cy="207.22" rx="49.86" ry="49.86"/>
<path class="st2" d="M-368.09,327.15c0,36.69-29.74,66.43-66.43,66.43c-36.68-0.01-66.42-29.75-66.42-66.43
	c0-36.69,29.74-66.43,66.43-66.43C-397.83,260.72-368.09,290.46-368.09,327.15z"/>
<circle class="st2" cx="277.57" cy="277.52" r="63.53"/>
<path id="SVGID_x5F_1_x5F_" class="st3" d="M103.73,300.02c20.66,115.44,93.3,167.66,189.56,159.18
	c96.27-8.47,176.2-91.14,158.51-201.26"/>
<text class="st2 st4 st5"><textPath  xlink:href="#SVGID_x5F_1_x5F_" startOffset="3.2715%">
90%  de pratique</textPath>
</text>
<path id="SVGID_x5F_2_x5F_" class="st3" d="M123.87,295.83c-9.73-85.84,51.97-163.32,137.81-173.06s163.32,51.97,173.06,137.81"/>
<text class="st2 st6 st7"><textPath  xlink:href="#SVGID_x5F_2_x5F_" startOffset="0%">
10% de théorie</textPath>
</text>
</svg>
