<?xml version="1.0" encoding="utf-8"?>
<!-- Generator: Adobe Illustrator 23.0.1, SVG Export Plug-In . SVG Version: 6.00 Build 0)  -->
<svg version="1.1" id="Layer_1" xmlns="http://www.w3.org/2000/svg" xmlns:xlink="http://www.w3.org/1999/xlink" x="0px" y="0px"
	 viewBox="0 0 367.61 361" style="enable-background:new 0 0 367.61 361;" xml:space="preserve">
<style type="text/css">
	.st0{fill:#EF4036;}
	.st1{fill:#FFFFFF;}
	.st2{fill:#171D30;}
</style>
<title>illus_1</title>
<g>
	<g>
		<path class="st0" d="M206.39,332.76c-23.66-29.5-18.93-72.59,10.57-96.25s72.59-18.93,96.25,10.57s18.93,72.59-10.57,96.25
			c0,0,0,0,0,0C273.14,366.99,230.05,362.26,206.39,332.76z"/>
		<path class="st1" d="M209.33,330.4c-22.35-27.89-17.86-68.61,10.03-90.96s68.61-17.86,90.96,10.03
			c22.34,27.87,17.86,68.57-9.99,90.93c-27.86,22.37-68.59,17.92-90.96-9.95C209.36,330.44,209.34,330.42,209.33,330.4z"/>
		<path class="st0" d="M218.88,322.74c-18.13-22.6-14.5-55.62,8.1-73.75s55.62-14.5,73.75,8.1c18.13,22.6,14.5,55.61-8.1,73.74
			C270.03,348.97,237.01,345.34,218.88,322.74C218.88,322.74,218.88,322.74,218.88,322.74z"/>
		<path class="st0" d="M247.78,65.09c0,35.95-29.14,65.09-65.09,65.09s-65.09-29.14-65.09-65.09S146.74,0,182.69,0
			S247.78,29.14,247.78,65.09L247.78,65.09z"/>
		<path class="st1" d="M244.2,65.09c0,33.97-27.54,61.51-61.51,61.51s-61.51-27.54-61.51-61.51s27.54-61.51,61.51-61.51l0,0
			C216.66,3.58,244.2,31.12,244.2,65.09z"/>
		<circle class="st0" cx="182.69" cy="65.09" r="49.86"/>
		<path class="st0" d="M331.67,93.69c31.54,17.28,43.11,56.85,25.83,88.4s-56.85,43.11-88.4,25.83
			c-31.54-17.27-43.11-56.85-25.84-88.39C260.54,87.98,300.12,76.41,331.67,93.69C331.67,93.69,331.67,93.69,331.67,93.69z"/>
		<path class="st1" d="M330.13,96.84c29.81,16.32,40.74,53.71,24.42,83.52c-16.32,29.81-53.71,40.74-83.52,24.42
			c-29.81-16.32-40.74-53.71-24.42-83.52c16.31-29.8,53.7-40.74,83.5-24.43C330.12,96.83,330.12,96.84,330.13,96.84z"/>
		<path class="st0" d="M324.54,107.07c24.16,13.24,33.02,43.56,19.78,67.73s-43.56,33.02-67.73,19.78
			c-24.16-13.24-33.02-43.56-19.78-67.73c0,0,0-0.01,0.01-0.01C270.06,102.68,300.38,93.83,324.54,107.07z"/>
		<path class="st0" d="M51.62,252.19c20.91-31.5,63.41-40.09,94.91-19.18s40.09,63.41,19.18,94.91S102.3,368.02,70.8,347.1
			c0,0,0,0-0.01,0c-31.5-20.91-40.09-63.4-19.18-94.9C51.62,252.2,51.62,252.19,51.62,252.19z"/>
		<circle class="st1" cx="108.64" cy="290.06" r="64.7"/>
		<path class="st0" d="M64.96,261.04c16.02-24.14,48.58-30.72,72.72-14.69s30.72,48.58,14.69,72.72s-48.58,30.72-72.72,14.69
			c0,0,0,0,0,0C55.51,317.74,48.94,285.18,64.96,261.04z"/>
		<path class="st0" d="M97.54,207.41c-31.63,17.1-71.14,5.33-88.24-26.3s-5.33-71.14,26.3-88.24c31.63-17.1,71.13-5.33,88.24,26.3
			C140.95,150.79,129.18,190.3,97.54,207.41C97.55,207.41,97.54,207.41,97.54,207.41z"/>
		<path class="st1" d="M96.09,204.13c-29.89,16.17-67.24,5.05-83.41-24.85s-5.05-67.24,24.85-83.41s67.24-5.05,83.41,24.85
			c0,0,0,0.01,0,0.01C137.1,150.62,125.98,187.96,96.09,204.13z"/>
		<path class="st0" d="M90.55,193.84c-24.24,13.11-54.51,4.09-67.62-20.15s-4.09-54.51,20.15-67.62
			c24.24-13.11,54.51-4.09,67.62,20.15c0,0,0,0.01,0,0.01c13.11,24.22,4.1,54.49-20.12,67.6C90.57,193.83,90.56,193.84,90.55,193.84
			z"/>
		<circle class="st1" cx="182.69" cy="185.01" r="84.91"/>
		<circle class="st1" cx="182.68" cy="185" r="69.86"/>
		<path class="st2" d="M249.12,185.01c0,36.69-29.74,66.43-66.43,66.43c-36.69,0-66.43-29.74-66.43-66.43s29.74-66.43,66.43-66.43
			S249.12,148.32,249.12,185.01L249.12,185.01z"/>
		<path class="st0" d="M201.74,94.02c0,10.52-8.53,19.05-19.05,19.05s-19.05-8.53-19.05-19.05H201.74z"/>
		<path class="st0" d="M280.51,176.84c-10.08,3.04-20.71-2.66-23.76-12.74c-3-9.92,2.49-20.42,12.35-23.63L280.51,176.84z"/>
		<path class="st0" d="M88.17,177.1c10.17,2.71,20.62-3.34,23.33-13.51s-3.34-20.62-13.51-23.33L88.17,177.1z"/>
		<path class="st0" d="M108.8,253.62c6.14-9.22,18.58-11.72,27.81-5.58c9.22,6.14,11.72,18.58,5.58,27.8l0,0L108.8,253.62z"/>
		<path class="st0" d="M225.12,278.72c-6.93-8.64-5.54-21.26,3.1-28.18c8.64-6.93,21.26-5.54,28.18,3.1L225.12,278.72z"/>
		<path class="st1" d="M130.27,183.64h8.69v2.2h-3v9h-2.73v-9h-3L130.27,183.64z"/>
		<path class="st1" d="M144.27,195.01c-2.54-0.12-4.5-2.27-4.38-4.81c0.11-2.37,2.01-4.27,4.38-4.38c2.32-0.14,4.31,1.63,4.45,3.96
			c0.01,0.16,0.01,0.33,0,0.49c0,0.27-0.01,0.53-0.05,0.8h-6.19c-0.03,0.92,0.69,1.68,1.61,1.71c0.03,0,0.06,0,0.09,0
			c0.61,0.04,1.18-0.3,1.42-0.86h2.91C148,193.82,146.24,195.11,144.27,195.01z M142.5,189.55h3.42c0-0.86-0.7-1.55-1.55-1.55
			c-0.04,0-0.08,0-0.13,0.01c-0.91-0.05-1.69,0.64-1.76,1.54L142.5,189.55z"/>
		<path class="st1" d="M154.08,185.84c2.08-0.13,3.92,1.31,4.29,3.36h-2.92c-0.18-0.62-0.77-1.04-1.42-1c-1,0-1.65,0.77-1.65,2.26
			s0.67,2.26,1.65,2.26c0.65,0.04,1.24-0.38,1.42-1h2.92c-0.39,2.04-2.22,3.47-4.29,3.37c-2.54-0.12-4.5-2.27-4.38-4.81
			c0.11-2.37,2.01-4.27,4.38-4.38V185.84z"/>
		<path class="st1" d="M159.82,183.03h2.74v4.12c0.64-0.85,1.65-1.34,2.71-1.31c2,0,3.39,1.41,3.39,3.81v5.19h-2.72v-4.85
			c0.1-0.94-0.58-1.79-1.52-1.9c-0.94-0.1-1.79,0.58-1.9,1.52c-0.01,0.12-0.01,0.25,0,0.37v4.85h-2.74L159.82,183.03z"/>
		<path class="st1" d="M176.77,190.03c0.07-0.95-0.64-1.77-1.58-1.85c-0.95-0.07-1.77,0.64-1.85,1.58c-0.01,0.09-0.01,0.17,0,0.26
			v4.81h-2.74v-8.93h2.74v1.18c0.65-0.84,1.65-1.31,2.71-1.28c2.06,0,3.44,1.41,3.44,3.81v5.22h-2.72V190.03z"/>
		<path class="st1" d="M185.45,195.01c-2.54-0.04-4.56-2.14-4.52-4.68c0.04-2.54,2.14-4.56,4.68-4.52c2.51,0.04,4.52,2.09,4.52,4.6
			c0.09,2.45-1.82,4.51-4.27,4.6C185.72,195.02,185.59,195.02,185.45,195.01z M185.45,192.64c1,0,1.89-0.72,1.89-2.23
			s-0.9-2.22-1.86-2.22s-1.85,0.7-1.85,2.22S184.46,192.64,185.45,192.64z"/>
		<path class="st1" d="M191.58,183.03h2.74v11.81h-2.74V183.03z"/>
		<path class="st1" d="M200.36,195.01c-2.54-0.04-4.56-2.14-4.52-4.68c0.04-2.54,2.14-4.56,4.68-4.52c2.51,0.04,4.52,2.09,4.52,4.6
			c0.09,2.45-1.82,4.51-4.27,4.6C200.63,195.02,200.5,195.02,200.36,195.01z M200.36,192.64c1,0,1.89-0.72,1.89-2.23
			s-0.89-2.22-1.85-2.22s-1.86,0.7-1.86,2.22S199.37,192.64,200.36,192.64z"/>
		<path class="st1" d="M209.88,185.84c1.1-0.06,2.15,0.47,2.76,1.39v-1.26h2.73v8.87c0.18,2.26-1.51,4.24-3.77,4.42
			c-0.23,0.02-0.46,0.02-0.69,0c-2.66,0-4.39-1.35-4.63-3.47h2.71c0.27,0.74,1.01,1.2,1.79,1.1c1,0,1.86-0.54,1.86-2v-1.26
			c-0.61,0.92-1.66,1.45-2.76,1.41c-2.19,0-3.93-1.8-3.93-4.61S207.69,185.84,209.88,185.84z M210.69,188.22
			c-1.1-0.01-2,0.89-2.01,1.99c0,0.07,0,0.14,0.01,0.21c-0.12,1.1,0.67,2.09,1.77,2.21c0.08,0.01,0.15,0.01,0.23,0.01
			c1.22-0.16,2.08-1.29,1.91-2.51C212.47,189.14,211.69,188.35,210.69,188.22z"/>
		<path class="st1" d="M217.1,183.54c-0.08-0.9,0.58-1.69,1.47-1.77s1.69,0.58,1.77,1.47c0.08,0.9-0.58,1.69-1.47,1.77
			c-0.05,0-0.1,0.01-0.14,0.01c-0.83,0.07-1.55-0.54-1.62-1.36C217.1,183.62,217.1,183.58,217.1,183.54z M217.35,185.95h2.74v8.89
			h-2.74V185.95z"/>
		<path class="st1" d="M226.04,195.01c-2.54-0.12-4.5-2.27-4.38-4.81c0.11-2.37,2.01-4.27,4.38-4.38c2.32-0.14,4.31,1.63,4.45,3.96
			c0.01,0.16,0.01,0.33,0,0.49c0.01,0.27,0.01,0.53,0,0.8h-6.22c-0.03,0.92,0.69,1.68,1.61,1.71c0.03,0,0.06,0,0.09,0
			c0.61,0.04,1.18-0.3,1.42-0.86h2.88C229.76,193.81,228,195.1,226.04,195.01z M224.27,189.55h3.42c0-0.86-0.7-1.55-1.55-1.55
			c-0.04,0-0.08,0-0.13,0.01C225.11,187.97,224.34,188.65,224.27,189.55z"/>
		<path class="st1" d="M235.56,195.01c-2.38,0-4-1.33-4.11-3.06h2.71c0.13,0.64,0.72,1.07,1.37,1c0.71,0,1.07-0.32,1.07-0.72
			c0-1.44-4.86-0.4-4.86-3.68c0-1.52,1.29-2.77,3.63-2.77s3.59,1.28,3.76,3h-2.53c-0.09-0.64-0.67-1.08-1.31-1
			c-0.64,0-1,0.26-1,0.69c0,1.42,4.83,0.41,4.88,3.74C239.18,193.84,237.81,195.01,235.56,195.01z"/>
		<path class="st1" d="M171.77,66.29h-4.79v4.75h-2.24v-11.2h2.24v4.6h4.79v-4.6h2.24v11.2h-2.24V66.29z"/>
		<path class="st1" d="M175.62,59.84h8.19v1.81h-3v9.39h-2.24v-9.36h-3L175.62,59.84z"/>
		<path class="st1" d="M185.44,59.84h2.55l3.55,8.31l3.56-8.31h2.52v11.2h-2.24v-7.26l-3,7.26h-1.7l-3-7.26v7.26h-2.24V59.84z"/>
		<path class="st1" d="M202.07,59.84v9.4h3.68v1.8h-5.92v-11.2H202.07z"/>
		<path class="st1" d="M55.55,149.12h-1.88v4.29h-2.24v-11.17h4.12c2.68,0,4,1.52,4,3.46C59.58,147.39,58.43,149.12,55.55,149.12z
			 M55.45,147.31c1.26,0,1.82-0.62,1.82-1.61s-0.56-1.64-1.82-1.64h-1.78v3.25H55.45z"/>
		<path class="st1" d="M68.19,148.66H63.4v4.75h-2.24v-11.17h2.24v4.6h4.79v-4.6h2.24v11.17h-2.24V148.66z"/>
		<path class="st1" d="M76.75,149.12h-1.88v4.29h-2.24v-11.17h4.12c2.68,0,4,1.52,4,3.46C80.78,147.39,79.63,149.12,76.75,149.12z
			 M76.65,147.31c1.26,0,1.82-0.62,1.82-1.61s-0.56-1.64-1.82-1.64h-1.78v3.25H76.65z"/>
		<path class="st1" d="M93.91,279.84h2.25v7.84c0.14,1.76-1.17,3.31-2.93,3.45c-0.18,0.01-0.36,0.01-0.54,0
			c-1.82,0.15-3.41-1.19-3.57-3.01c-0.01-0.17-0.02-0.35,0-0.52h2.24c0,0.95,0.45,1.52,1.3,1.52s1.25-0.56,1.25-1.44V279.84z"/>
		<path class="st1" d="M105.62,288.84h-4.45l-0.74,2.13h-2.35l4-11.19h2.61l4,11.19h-2.36L105.62,288.84z M103.39,282.38l-1.61,4.67
			h3.23L103.39,282.38z"/>
		<path class="st1" d="M117.88,279.84h2.39l-4.1,11.17h-2.72l-4.11-11.17h2.41l3.07,8.88L117.88,279.84z"/>
		<path class="st1" d="M128.45,288.84H124l-0.74,2.13h-2.35l4-11.19h2.61l4,11.19h-2.37L128.45,288.84z M126.27,282.4l-1.62,4.67
			h3.23L126.27,282.4z"/>
		<path class="st1" d="M87.36,310.31c-2.32,0-4.11-1.22-4.14-3.33h2.4c0.02,0.84,0.72,1.52,1.56,1.5c0.04,0,0.09,0,0.13-0.01
			c1.06,0,1.69-0.57,1.69-1.37c0-2.41-5.77-1-5.75-5c0-2,1.63-3.23,3.94-3.23c2.31,0,3.85,1.17,4,3.19h-2.47
			c-0.07-0.81-0.79-1.4-1.6-1.33c0,0,0,0,0,0c-0.88,0-1.53,0.4-1.53,1.31c0,2.24,5.73,1,5.73,4.93
			C91.32,308.72,89.91,310.31,87.36,310.31z"/>
		<path class="st1" d="M98.37,298.84c2.36-0.11,4.51,1.37,5.25,3.61h-2.58c-0.49-1.03-1.54-1.66-2.68-1.6c-2,0-3.35,1.43-3.35,3.7
			s1.39,3.7,3.35,3.7c1.14,0.06,2.2-0.58,2.68-1.62h2.58c-0.73,2.26-2.88,3.74-5.25,3.62c-3.15-0.13-5.6-2.79-5.47-5.94
			C93.03,301.34,95.4,298.96,98.37,298.84z"/>
		<path class="st1" d="M109.73,299.02c2.69,0,4,1.55,4,3.43c0.03,1.54-1.03,2.89-2.54,3.21l2.67,4.53h-2.59l-2.44-4.35h-1v4.35
			h-2.24v-11.17H109.73z M109.65,300.88h-1.87v3.28h1.87c1.25,0,1.81-0.66,1.81-1.67s-0.56-1.65-1.81-1.65V300.88z"/>
		<path class="st1" d="M115.79,299.02h2.24v11.17h-2.24V299.02z"/>
		<path class="st1" d="M124.35,305.9h-1.87v4.29h-2.21v-11.17h4.11c2.69,0,4,1.52,4,3.46C128.39,304.17,127.27,305.9,124.35,305.9z
			 M124.26,304.09c1.26,0,1.82-0.62,1.82-1.61s-0.56-1.64-1.81-1.64h-1.78v3.24L124.26,304.09z"/>
		<path class="st1" d="M129.38,299.02h8.19v1.82h-3v9.36h-2.24v-9.36h-3L129.38,299.02z"/>
		<path class="st1" d="M235.86,288.52h2.54l3.55,8.31l3.56-8.31h2.53v11.17h-2.24v-7.27l-3,7.27h-1.69l-3-7.27v7.27h-2.24
			L235.86,288.52z"/>
		<path class="st1" d="M249.27,288.52h2.53l2.4,5.1l2.39-5.1h2.49l-3.73,7.32v3.89h-2.25v-3.89L249.27,288.52z"/>
		<path class="st1" d="M264.27,299.84c-2.32,0-4.11-1.21-4.14-3.33h2.4c0.02,0.84,0.72,1.52,1.56,1.5c0.05,0,0.09,0,0.14-0.01
			c1.05,0,1.67-0.56,1.67-1.36c0-2.42-5.76-1-5.74-5c0-2,1.63-3.23,3.94-3.23s3.85,1.17,4,3.18h-2.47c-0.08-0.81-0.79-1.4-1.6-1.32
			c-0.88,0-1.53,0.4-1.53,1.31c0,2.24,5.73,1,5.73,4.93C268.27,298.22,266.82,299.84,264.27,299.84z"/>
		<path class="st1" d="M278.71,298.78l2.56,2.88h-2.79l-1.69-2c-0.47,0.11-0.95,0.17-1.44,0.17c-3.07-0.09-5.49-2.66-5.4-5.74
			s2.66-5.49,5.74-5.4s5.49,2.66,5.4,5.74c-0.05,1.76-0.94,3.39-2.38,4.4L278.71,298.78z M275.35,297.78c2,0,3.4-1.46,3.4-3.73
			s-1.39-3.69-3.4-3.69c-1.85-0.05-3.39,1.4-3.45,3.25c0,0.15,0,0.29,0.02,0.44c0,2.29,1.35,3.79,3.43,3.79L275.35,297.78z"/>
		<path class="st1" d="M284.99,288.52v9.39h3.68v1.78h-5.92v-11.17H284.99z"/>
		<path class="st1" d="M293.01,142.09c2.36-0.11,4.51,1.37,5.25,3.62h-2.58c-0.49-1.03-1.55-1.66-2.69-1.6c-2,0-3.34,1.42-3.34,3.7
			s1.39,3.7,3.34,3.7c1.14,0.06,2.21-0.58,2.69-1.62h2.59c-0.74,2.25-2.88,3.73-5.25,3.62c-3.15,0-5.71-2.56-5.71-5.71
			c0-3.15,2.56-5.71,5.71-5.71L293.01,142.09z"/>
		<path class="st1" d="M304.03,153.52c-2.32,0-4.11-1.21-4.15-3.33h2.39c0.02,0.84,0.72,1.52,1.56,1.5c0.04,0,0.09,0,0.13-0.01
			c1.06,0,1.68-0.56,1.68-1.36c0-2.42-5.76-1-5.74-5c0-2,1.63-3.23,3.93-3.23s3.86,1.17,4,3.18h-2.47c-0.08-0.81-0.79-1.4-1.6-1.33
			c-0.88,0-1.54,0.4-1.54,1.32c0,2.24,5.73,1,5.73,4.93C307.98,151.94,306.57,153.52,304.03,153.52z"/>
		<path class="st1" d="M313.77,153.52c-2.32,0-4.11-1.21-4.14-3.33h2.4c0.02,0.84,0.72,1.52,1.56,1.5c0.05,0,0.09,0,0.14-0.01
			c1.05,0,1.68-0.56,1.68-1.36c0-2.42-5.77-1-5.75-5c0-2,1.63-3.23,3.94-3.23s3.85,1.17,4,3.18h-2.47c-0.08-0.81-0.79-1.4-1.6-1.33
			c-0.88,0-1.53,0.4-1.53,1.32c0,2.24,5.73,1,5.73,4.93C317.73,151.94,316.32,153.52,313.77,153.52z"/>
	</g>
</g>
</svg>
