<?xml version="1.0" encoding="utf-8"?>
<!-- Generator: Adobe Illustrator 23.0.1, SVG Export Plug-In . SVG Version: 6.00 Build 0)  -->
<svg version="1.1" id="Layer_1" xmlns="http://www.w3.org/2000/svg" xmlns:xlink="http://www.w3.org/1999/xlink" x="0px" y="0px"
	 viewBox="0 0 512 512" style="enable-background:new 0 0 512 512;" xml:space="preserve">
<style type="text/css">
	.st0{fill:#EF4036;}
</style>
<g id="coding-programing-layout-customize-web_design">
	<path class="st0" d="M472,16H40c-13.24,0.04-23.96,10.76-24,24v432c0.04,13.24,10.76,23.96,24,24h432c13.24-0.04,23.96-10.76,24-24
		V40C495.96,26.76,485.24,16.04,472,16z M248,480H40c-4.42,0-8-3.58-8-8V96h216V480z M480,472c0,4.42-3.58,8-8,8H264v-16h192
		c4.42,0,8-3.58,8-8v-96c0-4.42-3.58-8-8-8H264v-24h96c4.42,0,8-3.58,8-8v-96c0-4.42-3.58-8-8-8h-96V96h216V472z M264,448v-80h184
		v80H264z M264,312v-80h88v80H264z M480,80H32V40c0-4.42,3.58-8,8-8h432c4.42,0,8,3.58,8,8V80z"/>
	<path class="st0" d="M64,48h-8c-4.42,0-8,3.58-8,8s3.58,8,8,8h8c4.42,0,8-3.58,8-8S68.42,48,64,48z"/>
	<path class="st0" d="M96,48h-8c-4.42,0-8,3.58-8,8s3.58,8,8,8h8c4.42,0,8-3.58,8-8S100.42,48,96,48z"/>
	<path class="st0" d="M128,48h-8c-4.42,0-8,3.58-8,8s3.58,8,8,8h8c4.42,0,8-3.58,8-8S132.42,48,128,48z"/>
	<path class="st0" d="M464,56c0-4.42-3.58-8-8-8H176c-4.42,0-8,3.58-8,8s3.58,8,8,8h280C460.42,64,464,60.42,464,56z"/>
	<path class="st0" d="M153.34,164.44c2.45,3.68,7.42,4.67,11.09,2.22c0,0,0,0,0,0l24-16c3.68-2.45,4.67-7.42,2.22-11.09
		c-0.59-0.88-1.34-1.63-2.22-2.22l-24-16c-3.68-2.45-8.64-1.46-11.1,2.22c-2.45,3.68-1.46,8.64,2.22,11.1L169.6,144l-14.02,9.34
		C151.9,155.79,150.9,160.75,153.34,164.44C153.34,164.44,153.34,164.44,153.34,164.44L153.34,164.44z"/>
	<path class="st0" d="M51.56,150.66l24,16c3.68,2.45,8.64,1.46,11.1-2.22c2.45-3.68,1.46-8.64-2.22-11.1L70.4,144l14.02-9.34
		c3.68-2.45,4.67-7.42,2.22-11.1c-2.45-3.68-7.42-4.67-11.1-2.22l-24,16c-3.68,2.45-4.67,7.42-2.22,11.09
		c0.59,0.88,1.34,1.63,2.22,2.22L51.56,150.66z"/>
	<path class="st0" d="M100,174.94c1.22,0.7,2.6,1.07,4,1.06c2.87,0.01,5.52-1.52,6.95-4l32-56c2.28-3.78,1.07-8.7-2.72-10.98
		c-3.78-2.28-8.7-1.07-10.98,2.72c-0.07,0.11-0.13,0.22-0.19,0.33l-32,56C94.89,167.88,96.2,172.74,100,174.94z"/>
	<path class="st0" d="M56,208h16c4.42,0,8-3.58,8-8s-3.58-8-8-8H56c-4.42,0-8,3.58-8,8S51.58,208,56,208z"/>
	<path class="st0" d="M56,240h112c4.42,0,8-3.58,8-8s-3.58-8-8-8H56c-4.42,0-8,3.58-8,8S51.58,240,56,240z"/>
	<path class="st0" d="M104,208h120c4.42,0,8-3.58,8-8s-3.58-8-8-8H104c-4.42,0-8,3.58-8,8S99.58,208,104,208z"/>
	<path class="st0" d="M56,336h16c4.42,0,8-3.58,8-8s-3.58-8-8-8H56c-4.42,0-8,3.58-8,8S51.58,336,56,336z"/>
	<path class="st0" d="M224,352H56c-4.42,0-8,3.58-8,8s3.58,8,8,8h168c4.42,0,8-3.58,8-8S228.42,352,224,352z"/>
	<path class="st0" d="M168,320h-64c-4.42,0-8,3.58-8,8s3.58,8,8,8h64c4.42,0,8-3.58,8-8S172.42,320,168,320z"/>
	<path class="st0" d="M56,432h16c4.42,0,8-3.58,8-8s-3.58-8-8-8H56c-4.42,0-8,3.58-8,8S51.58,432,56,432z"/>
	<path class="st0" d="M224,416H104c-4.42,0-8,3.58-8,8s3.58,8,8,8h120c4.42,0,8-3.58,8-8S228.42,416,224,416z"/>
	<path class="st0" d="M56,304h64c4.42,0,8-3.58,8-8s-3.58-8-8-8H56c-4.42,0-8,3.58-8,8S51.58,304,56,304z"/>
	<path class="st0" d="M168,288h-16c-4.42,0-8,3.58-8,8s3.58,8,8,8h16c4.42,0,8-3.58,8-8S172.42,288,168,288z"/>
	<path class="st0" d="M56,400h64c4.42,0,8-3.58,8-8s-3.58-8-8-8H56c-4.42,0-8,3.58-8,8S51.58,400,56,400z"/>
	<path class="st0" d="M168,400c4.42,0,8-3.58,8-8s-3.58-8-8-8h-16c-4.42,0-8,3.58-8,8s3.58,8,8,8H168z"/>
	<path class="st0" d="M120,448H56c-4.42,0-8,3.58-8,8s3.58,8,8,8h64c4.42,0,8-3.58,8-8S124.42,448,120,448z"/>
	<path class="st0" d="M168,448h-16c-4.42,0-8,3.58-8,8s3.58,8,8,8h16c4.42,0,8-3.58,8-8S172.42,448,168,448z"/>
	<path class="st0" d="M56,272h16c4.42,0,8-3.58,8-8s-3.58-8-8-8H56c-4.42,0-8,3.58-8,8S51.58,272,56,272z"/>
	<path class="st0" d="M224,264c0-4.42-3.58-8-8-8H104c-4.42,0-8,3.58-8,8s3.58,8,8,8h112C220.42,272,224,268.42,224,264z"/>
	<path class="st0" d="M288,184h152c4.42,0,8-3.58,8-8v-40c0-4.42-3.58-8-8-8H288c-4.42,0-8,3.58-8,8v40
		C280,180.42,283.58,184,288,184z M296,144h136v24H296V144z"/>
	<path class="st0" d="M384,224v96c0,4.42,3.58,8,8,8h64c4.42,0,8-3.58,8-8v-96c0-4.42-3.58-8-8-8h-64C387.58,216,384,219.58,384,224
		z M400,232h48v80h-48V232z"/>
</g>
</svg>
