<?xml version="1.0" encoding="utf-8"?>
<!-- Generator: Adobe Illustrator 23.0.1, SVG Export Plug-In . SVG Version: 6.00 Build 0)  -->
<svg version="1.1" id="Layer_1" xmlns="http://www.w3.org/2000/svg" xmlns:xlink="http://www.w3.org/1999/xlink" x="0px" y="0px"
	 viewBox="0 0 650 500" style="enable-background:new 0 0 650 500;" xml:space="preserve">
<style type="text/css">
	.st0{fill-rule:evenodd;clip-rule:evenodd;fill:#384C6B;}
	.st1{fill-rule:evenodd;clip-rule:evenodd;fill:#EF4036;}
	.st2{fill-rule:evenodd;clip-rule:evenodd;fill:#FFFFFF;}
	.st3{fill-rule:evenodd;clip-rule:evenodd;fill:#6CD6FF;}
	.st4{fill-rule:evenodd;clip-rule:evenodd;fill:#FCCF00;}
	.st5{fill-rule:evenodd;clip-rule:evenodd;fill:#C84E96;}
	.st6{fill-rule:evenodd;clip-rule:evenodd;fill:#1F293D;}
	.st7{fill-rule:evenodd;clip-rule:evenodd;fill:#F0F8FD;}
	.st8{fill-rule:evenodd;clip-rule:evenodd;fill:#B1CBEF;}
	.st9{fill-rule:evenodd;clip-rule:evenodd;fill:#C3DCF4;}
	.st10{fill-rule:evenodd;clip-rule:evenodd;fill:#8DB4D3;}
	.st11{fill-rule:evenodd;clip-rule:evenodd;fill:#B2D2FF;}
	.st12{fill-rule:evenodd;clip-rule:evenodd;fill:#DAE2ED;}
	.st13{fill-rule:evenodd;clip-rule:evenodd;fill:#A2BCD9;}
	.st14{fill:#F4B1B1;}
	.st15{fill-rule:evenodd;clip-rule:evenodd;fill:#F4B1B1;}
	.st16{fill-rule:evenodd;clip-rule:evenodd;fill:#F66161;}
	.st17{fill-rule:evenodd;clip-rule:evenodd;fill:#E98385;}
	.st18{clip-path:url(#SVGID_2_);fill:#1F293D;}
	.st19{fill-rule:evenodd;clip-rule:evenodd;}
	.st20{fill-rule:evenodd;clip-rule:evenodd;fill:#BC2E2A;}
	.st21{fill-rule:evenodd;clip-rule:evenodd;fill:#F4AF8F;}
	.st22{fill-rule:evenodd;clip-rule:evenodd;fill:#031542;}
	.st23{fill-rule:evenodd;clip-rule:evenodd;fill:#0F4884;}
	.st24{clip-path:url(#SVGID_4_);fill:#1F293D;}
	.st25{fill-rule:evenodd;clip-rule:evenodd;fill:#E06B6C;}
	.st26{fill-rule:evenodd;clip-rule:evenodd;fill:#F6C0C5;}
	.st27{fill:#C3DCF4;}
	.st28{fill:#1F293D;}
</style>
<path class="st0" d="M433.39,90.27h132.23c0.02,0,0.04,0.02,0.04,0.04v80.94c0,0.02-0.02,0.04-0.04,0.04H433.39
	c-0.02,0-0.04-0.02-0.04-0.04V90.31C433.35,90.28,433.37,90.27,433.39,90.27"/>
<path class="st1" d="M487.69,165.45h38.55c0.43,0,0.79-0.35,0.79-0.79l0,0c0-0.43-0.35-0.79-0.79-0.79h-38.55
	c-0.43,0-0.79,0.35-0.79,0.79l0,0C486.91,165.1,487.26,165.45,487.69,165.45"/>
<path class="st2" d="M530.5,165.45h9.46c0.43,0,0.79-0.35,0.79-0.79l0,0c0-0.43-0.35-0.79-0.79-0.79h-9.46
	c-0.43,0-0.79,0.35-0.79,0.79l0,0C529.72,165.1,530.07,165.45,530.5,165.45"/>
<path class="st2" d="M483.52,162.02h9.46c0.43,0,0.79-0.35,0.79-0.79l0,0c0-0.43-0.35-0.79-0.79-0.79h-9.46
	c-0.43,0-0.79,0.35-0.79,0.79l0,0C482.73,161.66,483.09,162.02,483.52,162.02"/>
<path class="st2" d="M487.69,158.59h14.19c0.43,0,0.79-0.35,0.79-0.79s-0.35-0.79-0.79-0.79h-14.19c-0.43,0-0.79,0.35-0.79,0.79
	S487.26,158.59,487.69,158.59"/>
<path class="st2" d="M487.74,155.15h11.64c0.43,0,0.79-0.35,0.79-0.79l0,0c0-0.43-0.35-0.79-0.79-0.79h-11.64
	c-0.43,0-0.79,0.35-0.79,0.79l0,0C486.95,154.8,487.31,155.15,487.74,155.15"/>
<path class="st2" d="M487.74,151.72h35.35c0.43,0,0.79-0.35,0.79-0.79l0,0c0-0.43-0.35-0.79-0.79-0.79h-35.35
	c-0.43,0-0.79,0.35-0.79,0.79l0,0C486.95,151.37,487.31,151.72,487.74,151.72"/>
<path class="st2" d="M506.29,158.59h9.28c0.43,0,0.79-0.35,0.79-0.79s-0.35-0.79-0.79-0.79h-9.28c-0.43,0-0.79,0.35-0.79,0.79
	C505.5,158.23,505.86,158.59,506.29,158.59"/>
<path class="st1" d="M502.79,155.15h27.57c0.43,0,0.79-0.35,0.79-0.79l0,0c0-0.43-0.35-0.79-0.79-0.79h-27.57
	c-0.43,0-0.79,0.35-0.79,0.79l0,0C502,154.8,502.36,155.15,502.79,155.15"/>
<path class="st3" d="M534.52,155.15h7.4c0.43,0,0.79-0.35,0.79-0.79l0,0c0-0.43-0.35-0.79-0.79-0.79h-7.4
	c-0.43,0-0.79,0.35-0.79,0.79l0,0C533.73,154.8,534.08,155.15,534.52,155.15"/>
<path class="st4" d="M545.79,155.15h7.4c0.43,0,0.79-0.35,0.79-0.79l0,0c0-0.43-0.35-0.79-0.79-0.79h-7.4
	c-0.43,0-0.79,0.35-0.79,0.79l0,0C545,154.8,545.35,155.15,545.79,155.15"/>
<path class="st2" d="M483.52,148.27h9.46c0.43,0,0.79-0.35,0.79-0.79s-0.35-0.79-0.79-0.79h-9.46c-0.43,0-0.79,0.35-0.79,0.79
	C482.73,147.91,483.09,148.27,483.52,148.27"/>
<path class="st2" d="M487.69,118.1h14.19c0.43,0,0.79-0.35,0.79-0.79l0,0c0-0.43-0.35-0.79-0.79-0.79h-14.19
	c-0.43,0-0.79,0.35-0.79,0.79l0,0C486.91,117.74,487.26,118.1,487.69,118.1"/>
<path class="st2" d="M487.74,114.66h11.64c0.43,0,0.79-0.35,0.79-0.79l0,0c0-0.43-0.35-0.79-0.79-0.79h-11.64
	c-0.43,0-0.79,0.35-0.79,0.79l0,0C486.95,114.31,487.31,114.66,487.74,114.66"/>
<path class="st3" d="M487.74,111.23h35.35c0.43,0,0.79-0.35,0.79-0.79c0-0.43-0.35-0.79-0.79-0.79h-35.35
	c-0.43,0-0.79,0.35-0.79,0.79C486.95,110.88,487.31,111.23,487.74,111.23"/>
<path class="st2" d="M506.29,118.1h9.28c0.43,0,0.79-0.35,0.79-0.79l0,0c0-0.43-0.35-0.79-0.79-0.79h-9.28
	c-0.43,0-0.79,0.35-0.79,0.79l0,0C505.5,117.74,505.86,118.1,506.29,118.1"/>
<path class="st5" d="M502.79,114.66h27.57c0.43,0,0.79-0.35,0.79-0.79l0,0c0-0.43-0.35-0.79-0.79-0.79h-27.57
	c-0.43,0-0.79,0.35-0.79,0.79l0,0C502,114.31,502.36,114.66,502.79,114.66"/>
<path class="st4" d="M534.52,114.66h7.4c0.43,0,0.79-0.35,0.79-0.79l0,0c0-0.43-0.35-0.79-0.79-0.79h-7.4
	c-0.43,0-0.79,0.35-0.79,0.79l0,0C533.73,114.31,534.08,114.66,534.52,114.66"/>
<path class="st2" d="M545.79,114.66h7.4c0.43,0,0.79-0.35,0.79-0.79l0,0c0-0.43-0.35-0.79-0.79-0.79h-7.4
	c-0.43,0-0.79,0.35-0.79,0.79l0,0C545,114.31,545.35,114.66,545.79,114.66"/>
<path class="st2" d="M487.92,143.68h9.46c0.43,0,0.79-0.35,0.79-0.79l0,0c0-0.43-0.35-0.79-0.79-0.79h-9.46
	c-0.43,0-0.79,0.35-0.79,0.79l0,0C487.14,143.33,487.49,143.68,487.92,143.68"/>
<path class="st2" d="M487.69,140.25h14.19c0.43,0,0.79-0.35,0.79-0.79s-0.35-0.79-0.79-0.79h-14.19c-0.43,0-0.79,0.35-0.79,0.79
	S487.26,140.25,487.69,140.25"/>
<path class="st2" d="M487.74,136.82h11.64c0.43,0,0.79-0.35,0.79-0.79l0,0c0-0.43-0.35-0.79-0.79-0.79h-11.64
	c-0.43,0-0.79,0.35-0.79,0.79l0,0C486.95,136.46,487.31,136.82,487.74,136.82"/>
<path class="st4" d="M487.74,133.38h15.27c0.43,0,0.79-0.35,0.79-0.79l0,0c0-0.43-0.35-0.79-0.79-0.79h-15.27
	c-0.43,0-0.79,0.35-0.79,0.79l0,0C486.95,133.03,487.31,133.38,487.74,133.38"/>
<path class="st2" d="M506.29,140.25h9.28c0.43,0,0.79-0.35,0.79-0.79s-0.35-0.79-0.79-0.79h-9.28c-0.43,0-0.79,0.35-0.79,0.79
	C505.5,139.89,505.86,140.25,506.29,140.25"/>
<path class="st1" d="M502.79,136.82h27.57c0.43,0,0.79-0.35,0.79-0.79l0,0c0-0.43-0.35-0.79-0.79-0.79h-27.57
	c-0.43,0-0.79,0.35-0.79,0.79l0,0C502,136.46,502.36,136.82,502.79,136.82"/>
<path class="st2" d="M534.52,136.82h7.4c0.43,0,0.79-0.35,0.79-0.79l0,0c0-0.43-0.35-0.79-0.79-0.79h-7.4
	c-0.43,0-0.79,0.35-0.79,0.79l0,0C533.73,136.46,534.08,136.82,534.52,136.82"/>
<path class="st2" d="M545.79,136.82h7.4c0.43,0,0.79-0.35,0.79-0.79l0,0c0-0.43-0.35-0.79-0.79-0.79h-7.4
	c-0.43,0-0.79,0.35-0.79,0.79l0,0C545,136.46,545.35,136.82,545.79,136.82"/>
<path class="st2" d="M498.99,107.68h27.57c0.43,0,0.79-0.35,0.79-0.79l0,0c0-0.43-0.35-0.79-0.79-0.79h-27.57
	c-0.43,0-0.79,0.35-0.79,0.79l0,0C498.2,107.33,498.55,107.68,498.99,107.68"/>
<path class="st2" d="M530.71,107.68h7.4c0.43,0,0.79-0.35,0.79-0.79l0,0c0-0.43-0.35-0.79-0.79-0.79h-7.4
	c-0.43,0-0.79,0.35-0.79,0.79l0,0C529.93,107.33,530.28,107.68,530.71,107.68"/>
<path class="st2" d="M541.98,107.68h7.4c0.43,0,0.79-0.35,0.79-0.79l0,0c0-0.43-0.35-0.79-0.79-0.79h-7.4
	c-0.43,0-0.79,0.35-0.79,0.79l0,0C541.2,107.33,541.55,107.68,541.98,107.68"/>
<path class="st5" d="M498.99,104.43h12.06c0.43,0,0.79-0.35,0.79-0.79l0,0c0-0.43-0.35-0.79-0.79-0.79h-12.06
	c-0.43,0-0.79,0.35-0.79,0.79l0,0C498.2,104.08,498.55,104.43,498.99,104.43"/>
<path class="st1" d="M515.27,104.43h18.92c0.43,0,0.79-0.35,0.79-0.79l0,0c0-0.43-0.35-0.79-0.79-0.79h-18.92
	c-0.43,0-0.79,0.35-0.79,0.79l0,0C514.48,104.08,514.83,104.43,515.27,104.43"/>
<path class="st2" d="M539.03,104.43h15.94c0.43,0,0.79-0.35,0.79-0.79l0,0c0-0.43-0.35-0.79-0.79-0.79h-15.94
	c-0.43,0-0.79,0.35-0.79,0.79l0,0C538.24,104.08,538.59,104.43,539.03,104.43"/>
<path class="st2" d="M498.99,129.96h27.57c0.43,0,0.79-0.35,0.79-0.79l0,0c0-0.43-0.35-0.79-0.79-0.79h-27.57
	c-0.43,0-0.79,0.35-0.79,0.79l0,0C498.2,129.6,498.55,129.96,498.99,129.96"/>
<path class="st2" d="M530.71,129.96h7.4c0.43,0,0.79-0.35,0.79-0.79l0,0c0-0.43-0.35-0.79-0.79-0.79h-7.4
	c-0.43,0-0.79,0.35-0.79,0.79l0,0C529.93,129.6,530.28,129.96,530.71,129.96"/>
<path class="st2" d="M541.98,129.96h7.4c0.43,0,0.79-0.35,0.79-0.79l0,0c0-0.43-0.35-0.79-0.79-0.79h-7.4
	c-0.43,0-0.79,0.35-0.79,0.79l0,0C541.2,129.6,541.55,129.96,541.98,129.96"/>
<path class="st2" d="M498.99,126.32h12.06c0.43,0,0.79-0.35,0.79-0.79l0,0c0-0.43-0.35-0.79-0.79-0.79h-12.06
	c-0.43,0-0.79,0.35-0.79,0.79l0,0C498.2,125.96,498.55,126.32,498.99,126.32"/>
<path class="st2" d="M515.27,126.32h18.92c0.43,0,0.79-0.35,0.79-0.79l0,0c0-0.43-0.35-0.79-0.79-0.79h-18.92
	c-0.43,0-0.79,0.35-0.79,0.79l0,0C514.48,125.96,514.83,126.32,515.27,126.32"/>
<path class="st2" d="M539.03,126.32h15.94c0.43,0,0.79-0.35,0.79-0.79l0,0c0-0.43-0.35-0.79-0.79-0.79h-15.94
	c-0.43,0-0.79,0.35-0.79,0.79l0,0C538.24,125.96,538.59,126.32,539.03,126.32"/>
<rect x="439.14" y="95.88" class="st6" width="23.44" height="72.6"/>
<path class="st1" d="M506.3,133.38h8.22c0.43,0,0.79-0.35,0.79-0.79l0,0c0-0.43-0.35-0.79-0.79-0.79h-8.22
	c-0.43,0-0.79,0.35-0.79,0.79l0,0C505.51,133.03,505.87,133.38,506.3,133.38"/>
<path class="st1" d="M517.4,133.38h8.22c0.43,0,0.79-0.35,0.79-0.79l0,0c0-0.43-0.35-0.79-0.79-0.79h-8.22
	c-0.43,0-0.79,0.35-0.79,0.79l0,0C516.61,133.03,516.97,133.38,517.4,133.38"/>
<path class="st2" d="M483.52,122.41h12.18c0.43,0,0.79-0.35,0.79-0.79l0,0c0-0.43-0.35-0.79-0.79-0.79h-12.18
	c-0.43,0-0.79,0.35-0.79,0.79l0,0C482.73,122.05,483.09,122.41,483.52,122.41"/>
<path class="st2" d="M498.99,122.41h8.22c0.43,0,0.79-0.35,0.79-0.79l0,0c0-0.43-0.35-0.79-0.79-0.79h-8.22
	c-0.43,0-0.79,0.35-0.79,0.79l0,0C498.2,122.05,498.56,122.41,498.99,122.41"/>
<path class="st2" d="M510.92,122.41h8.22c0.43,0,0.79-0.35,0.79-0.79l0,0c0-0.43-0.35-0.79-0.79-0.79h-8.22
	c-0.43,0-0.79,0.35-0.79,0.79l0,0C510.13,122.05,510.48,122.41,510.92,122.41"/>
<path class="st7" d="M446.03,147.06h5.22c0.42,0,0.76-0.34,0.76-0.76s-0.34-0.76-0.76-0.76h-5.22c-0.42,0-0.76,0.34-0.76,0.76
	C445.27,146.71,445.61,147.06,446.03,147.06"/>
<path class="st7" d="M442.88,143.29h13.8c0.42,0,0.76-0.34,0.76-0.76s-0.34-0.76-0.76-0.76h-13.8c-0.42,0-0.76,0.34-0.76,0.76
	C442.12,142.94,442.46,143.29,442.88,143.29"/>
<path class="st7" d="M442.88,139.3h10.52c0.42,0,0.76-0.34,0.76-0.76s-0.34-0.76-0.76-0.76h-10.52c-0.42,0-0.76,0.34-0.76,0.76
	C442.12,138.95,442.46,139.3,442.88,139.3"/>
<path class="st7" d="M446.03,135.31h10.5c0.42,0,0.76-0.34,0.76-0.76s-0.34-0.76-0.76-0.76h-10.5c-0.42,0-0.76,0.34-0.76,0.76
	C445.27,134.96,445.61,135.31,446.03,135.31"/>
<path class="st7" d="M446.03,131.32h3.34c0.42,0,0.76-0.34,0.76-0.76s-0.34-0.76-0.76-0.76h-3.34c-0.42,0-0.76,0.34-0.76,0.76
	C445.27,130.97,445.61,131.32,446.03,131.32"/>
<path class="st7" d="M442.88,127.32h9.99c0.42,0,0.76-0.34,0.76-0.76s-0.34-0.76-0.76-0.76h-9.99c-0.42,0-0.76,0.34-0.76,0.76
	S442.46,127.32,442.88,127.32"/>
<path class="st7" d="M445.97,123.33h2.73c0.42,0,0.76-0.34,0.76-0.76s-0.34-0.76-0.76-0.76h-2.73c-0.42,0-0.76,0.34-0.76,0.76
	C445.21,122.99,445.55,123.33,445.97,123.33"/>
<path class="st7" d="M445.61,119.34h11.08c0.42,0,0.76-0.34,0.76-0.76c0-0.42-0.34-0.76-0.76-0.76h-11.08
	c-0.42,0-0.76,0.34-0.76,0.76C444.84,119,445.19,119.34,445.61,119.34"/>
<path class="st7" d="M442.88,115.35h8.81c0.42,0,0.76-0.34,0.76-0.76c0-0.42-0.34-0.76-0.76-0.76h-8.81c-0.42,0-0.76,0.34-0.76,0.76
	S442.46,115.35,442.88,115.35"/>
<path class="st7" d="M445.61,111.36h11.08c0.42,0,0.76-0.34,0.76-0.76c0-0.42-0.34-0.76-0.76-0.76h-11.08
	c-0.42,0-0.76,0.34-0.76,0.76C444.84,111.02,445.19,111.36,445.61,111.36"/>
<path class="st7" d="M445.61,107.37h6.75c0.42,0,0.76-0.34,0.76-0.76c0-0.42-0.34-0.76-0.76-0.76h-6.75c-0.42,0-0.76,0.34-0.76,0.76
	C444.84,107.03,445.19,107.37,445.61,107.37"/>
<path class="st7" d="M442.88,103.38h4.86c0.42,0,0.76-0.34,0.76-0.76c0-0.42-0.34-0.76-0.76-0.76h-4.86c-0.42,0-0.76,0.34-0.76,0.76
	S442.46,103.38,442.88,103.38"/>
<path class="st7" d="M446.03,150.58h5.22c0.42,0,0.76-0.34,0.76-0.76s-0.34-0.76-0.76-0.76h-5.22c-0.42,0-0.76,0.34-0.76,0.76
	S445.61,150.58,446.03,150.58"/>
<path class="st7" d="M442.88,154.11h13.34c0.42,0,0.76-0.34,0.76-0.76s-0.34-0.76-0.76-0.76h-13.34c-0.42,0-0.76,0.34-0.76,0.76
	S442.46,154.11,442.88,154.11"/>
<path class="st7" d="M446.03,157.63h5.22c0.42,0,0.76-0.34,0.76-0.76s-0.34-0.76-0.76-0.76h-5.22c-0.42,0-0.76,0.34-0.76,0.76
	C445.27,157.29,445.61,157.63,446.03,157.63"/>
<path class="st2" d="M487.74,107.68h7.75c0.43,0,0.79-0.35,0.79-0.79l0,0c0-0.43-0.35-0.79-0.79-0.79h-7.75
	c-0.43,0-0.79,0.35-0.79,0.79l0,0C486.95,107.33,487.31,107.68,487.74,107.68"/>
<path class="st2" d="M479.87,104.43h15.38c0.43,0,0.79-0.35,0.79-0.79l0,0c0-0.43-0.35-0.79-0.79-0.79h-15.38
	c-0.43,0-0.79,0.35-0.79,0.79l0,0C479.08,104.08,479.43,104.43,479.87,104.43"/>
<path class="st2" d="M479.87,100.42h20.26c0.43,0,0.79-0.35,0.79-0.79l0,0c0-0.43-0.35-0.79-0.79-0.79h-20.26
	c-0.43,0-0.79,0.35-0.79,0.79l0,0C479.08,100.06,479.43,100.42,479.87,100.42"/>
<path class="st8" d="M471.5,100.42h0.74c0.43,0,0.79-0.35,0.79-0.79l0,0c0-0.43-0.35-0.79-0.79-0.79h-0.74
	c-0.43,0-0.79,0.35-0.79,0.79l0,0C470.71,100.06,471.07,100.42,471.5,100.42"/>
<path class="st8" d="M471.5,104.43h0.74c0.43,0,0.79-0.35,0.79-0.79l0,0c0-0.43-0.35-0.79-0.79-0.79h-0.74
	c-0.43,0-0.79,0.35-0.79,0.79l0,0C470.71,104.08,471.07,104.43,471.5,104.43"/>
<path class="st8" d="M471.36,118.1H472c0.43,0,0.79-0.35,0.79-0.79l0,0c0-0.43-0.35-0.79-0.79-0.79h-0.64
	c-0.43,0-0.79,0.35-0.79,0.79l0,0C470.57,117.74,470.93,118.1,471.36,118.1"/>
<path class="st8" d="M471.41,114.66h0.6c0.43,0,0.79-0.35,0.79-0.79l0,0c0-0.43-0.35-0.79-0.79-0.79h-0.6
	c-0.43,0-0.79,0.35-0.79,0.79l0,0C470.62,114.31,470.97,114.66,471.41,114.66"/>
<path class="st8" d="M471.41,111.23h0.6c0.43,0,0.79-0.35,0.79-0.79c0-0.43-0.35-0.79-0.79-0.79h-0.6c-0.43,0-0.79,0.35-0.79,0.79
	S470.97,111.23,471.41,111.23"/>
<path class="st8" d="M471.41,107.68h0.6c0.43,0,0.79-0.35,0.79-0.79l0,0c0-0.43-0.35-0.79-0.79-0.79h-0.6
	c-0.43,0-0.79,0.35-0.79,0.79l0,0C470.62,107.33,470.97,107.68,471.41,107.68"/>
<path class="st8" d="M471.45,129.96H472c0.43,0,0.79-0.35,0.79-0.79l0,0c0-0.43-0.35-0.79-0.79-0.79h-0.55
	c-0.43,0-0.79,0.35-0.79,0.79l0,0C470.66,129.6,471.02,129.96,471.45,129.96"/>
<path class="st8" d="M471.45,126.32H472c0.43,0,0.79-0.35,0.79-0.79l0,0c0-0.43-0.35-0.79-0.79-0.79h-0.55
	c-0.43,0-0.79,0.35-0.79,0.79l0,0C470.66,125.96,471.02,126.32,471.45,126.32"/>
<path class="st8" d="M471.46,122.41H472c0.43,0,0.79-0.35,0.79-0.79l0,0c0-0.43-0.35-0.79-0.79-0.79h-0.55
	c-0.43,0-0.79,0.35-0.79,0.79l0,0C470.67,122.05,471.02,122.41,471.46,122.41"/>
<path class="st8" d="M471.69,143.68H472c0.43,0,0.79-0.35,0.79-0.79l0,0c0-0.43-0.35-0.79-0.79-0.79h-0.31
	c-0.43,0-0.79,0.35-0.79,0.79l0,0C470.9,143.33,471.26,143.68,471.69,143.68"/>
<path class="st8" d="M471.45,140.25H472c0.43,0,0.79-0.35,0.79-0.79s-0.35-0.79-0.79-0.79h-0.55c-0.43,0-0.79,0.35-0.79,0.79
	S471.02,140.25,471.45,140.25"/>
<path class="st8" d="M471.5,136.82h0.5c0.43,0,0.79-0.35,0.79-0.79l0,0c0-0.43-0.35-0.79-0.79-0.79h-0.5
	c-0.43,0-0.79,0.35-0.79,0.79l0,0C470.71,136.46,471.06,136.82,471.5,136.82"/>
<path class="st8" d="M471.5,133.38h0.5c0.43,0,0.79-0.35,0.79-0.79l0,0c0-0.43-0.35-0.79-0.79-0.79h-0.5
	c-0.43,0-0.79,0.35-0.79,0.79l0,0C470.71,133.03,471.06,133.38,471.5,133.38"/>
<path class="st8" d="M471.77,162.02H472c0.43,0,0.79-0.35,0.79-0.79l0,0c0-0.43-0.35-0.79-0.79-0.79h-0.23
	c-0.43,0-0.79,0.35-0.79,0.79l0,0C470.98,161.66,471.34,162.02,471.77,162.02"/>
<path class="st8" d="M471.77,158.59H472c0.43,0,0.79-0.35,0.79-0.79s-0.35-0.79-0.79-0.79h-0.23c-0.43,0-0.79,0.35-0.79,0.79
	C470.98,158.23,471.34,158.59,471.77,158.59"/>
<path class="st8" d="M471.74,155.15H472c0.43,0,0.79-0.35,0.79-0.79l0,0c0-0.43-0.35-0.79-0.79-0.79h-0.26
	c-0.43,0-0.79,0.35-0.79,0.79l0,0C470.95,154.8,471.31,155.15,471.74,155.15"/>
<path class="st8" d="M471.69,151.72H472c0.43,0,0.79-0.35,0.79-0.79l0,0c0-0.43-0.35-0.79-0.79-0.79h-0.31
	c-0.43,0-0.79,0.35-0.79,0.79l0,0C470.9,151.37,471.26,151.72,471.69,151.72"/>
<path class="st8" d="M471.69,148.27H472c0.43,0,0.79-0.35,0.79-0.79s-0.35-0.79-0.79-0.79h-0.31c-0.43,0-0.79,0.35-0.79,0.79
	C470.9,147.91,471.26,148.27,471.69,148.27"/>
<rect x="433.35" y="85.72" class="st9" width="132.3" height="4.56"/>
<rect x="556.29" y="87.01" class="st2" width="1.39" height="1.39"/>
<rect x="558.74" y="87.01" class="st2" width="1.39" height="1.39"/>
<rect x="561.19" y="87.01" class="st2" width="1.39" height="1.39"/>
<path class="st10" d="M545.79,375.8l-3.35,0.43l10.47,84.23c0.11,0.92,0.96,1.58,1.89,1.46l0.19-0.03c0.82-0.11,1.4-0.86,1.3-1.68
	L545.79,375.8z"/>
<path class="st10" d="M485.37,375.67h-3.38v84.91c0,0.93,0.76,1.69,1.69,1.69h0.19c0.82,0,1.5-0.67,1.5-1.5V375.67z"/>
<path class="st10" d="M435.48,375.67h-3.38v84.91c0,0.93,0.76,1.69,1.69,1.69h0.19c0.82,0,1.5-0.67,1.5-1.5V375.67z"/>
<path class="st10" d="M507.75,375.8l-3.35,0.43l10.47,84.23c0.11,0.92,0.96,1.58,1.89,1.46l0.19-0.03c0.82-0.11,1.4-0.86,1.3-1.68
	L507.75,375.8z"/>
<path class="st11" d="M485.49,365.31h-57.98c-3.47,0-6.32,2.84-6.32,6.32s2.84,6.32,6.32,6.32h57.98c3.47,0,6.32-2.84,6.32-6.32
	C491.8,368.15,488.96,365.31,485.49,365.31"/>
<path class="st10" d="M505.01,267.15h59.06l-14.85,98.39l-59.06,0.05l0,0c-0.23,0-0.46-0.02-0.69-0.05l0,0
	c-2.43,0-4.06-2.65-3.68-5.06l14.17-89.66C500.33,268.43,502.57,267.15,505.01,267.15L505.01,267.15z"/>
<path class="st9" d="M559.7,270.83l-15.01,94.48h-65.53c-3.47,0-6.32,2.84-6.32,6.32s2.84,6.32,6.32,6.32h66.02
	c6.3,0,7.39-5.9,7.96-9.48l15.29-96.25c0.38-2.4-1.24-5.06-3.68-5.06l0,0C562.32,267.15,560.08,268.43,559.7,270.83"/>
<path class="st12" d="M419.41,379.03l6.8,0.72l-8.45,79.66c-0.2,1.87-1.89,3.24-3.76,3.04c-1.87-0.2-3.24-1.89-3.04-3.76
	L419.41,379.03z"/>
<path class="st13" d="M426.17,380.08l-8.41,79.33c-0.18,1.68-1.57,2.96-3.21,3.05c-1.04-0.68-1.68-1.91-1.54-3.22l8.45-79.66
	L426.17,380.08z"/>
<path class="st14" d="M446.95,339.22l-33.69,16.12l-0.07,91c-0.24,0.28-0.48,0.55-0.71,0.82c-0.18,0.21-0.36,0.41-0.55,0.62
	c-0.44,0.49-0.87,0.95-1.29,1.38c-0.19,0.2-0.39,0.39-0.58,0.57c-3.15,2.97-6.96,3.44-10.09,3.95c-2.42,0.39-4.28,0.53-6.14,3.58
	c-0.06,0.1-0.11,0.19-0.14,0.29c-0.43,1.11,0.35,2.39,1.6,2.46l28.24,1.36c1.39,0.08,2.58-0.9,2.83-2.21
	c0.03-0.19,0.05-0.38,0.05-0.57l-0.9-12.45c0,0,0-0.02,0-0.05c2.59-23.95,9.48-50.46,7.26-78.85c0,0,36.81-34.63,36.8-35.92
	C469.54,330.01,446.95,339.22,446.95,339.22"/>
<path class="st14" d="M447.13,346.91c1.23,10.6-6.17,16.89-4.94,27.49c0.02,26.54,4.6,46.25,10.88,73.04
	c0.21,0.89-1.38,9.32-1.19,10.2c2.79,2.99,11.06,7.29,11.91-6.48c-3.56-23.14,5.73-49.76-3.44-77.91l5.79-28.06L447.13,346.91z"/>
<path class="st6" d="M466.81,319.71c-2.84,17.57-64.13-3.61-57.32,62.91c10.33,4.75,40.15,5.83,56.74,1.86
	c4.05-18.7,77.13,5.78,49.6-63.61C510.52,308.5,468.76,311.8,466.81,319.71"/>
<path class="st15" d="M476.73,271.35c-3.19,7-4.92,21.64-19.36,31.43c-15.7,10.64-46.84,10.79-45.74,5.21
	c0.72-3.66,19.89-2.8,41.17-20.53c4.55-3.79,11.37-31.47,24.28-38.11C478.6,248.36,481.18,264.65,476.73,271.35"/>
<path class="st1" d="M526.68,255.51c5.4,22.02-15.06,25.07-10.16,69.53c-16.19,2.25-38.41,2.52-52.34-0.91
	c2.23-16.36-1.28-31.17-1.93-40.1c-0.97-13.44,2.12-23.38,9.61-31.34C479.02,245.08,517.56,241.91,526.68,255.51"/>
<path class="st16" d="M515.07,308.33c-0.18,4.66,0.78,10.65,1.45,16.71c-5.98,0.83-9.72,1.31-16.36,1.61
	C501.51,323.67,511.83,310.5,515.07,308.33"/>
<path class="st15" d="M485.32,242.03l-0.06,5.44l-0.79,0.68c-3.07,3.34,0.33,10.13,3.85,9.9c8.92,0.38,15.72-6.98,13.01-10.93
	l-1.17-1.29l-0.31-7.69c0.46-0.03,3.8-1.96,4.79-2.27c0.99-0.31,2.44-2.25,2.53-4.27c0.08-2.03-3.05-1.35-3.05-1.35
	c3.76-5.22,8.03-9.5,2.42-14.13c-5.61-4.64-18.43-7.28-18.43-7.28l-7.72-2.62c1,2.65,0.7,8.35-1.24,13.9
	C476.39,228,478.71,238.74,485.32,242.03"/>
<path class="st17" d="M496.23,239.22c0,0-4.31,7.51-7.88,8.21c-3.58,0.7-1.75,0.19-3.09,0.04l0.06-5.44
	C487.79,242.41,490.2,242.2,496.23,239.22"/>
<path class="st2" d="M395.37,286.1c1.52-0.36,3.1,0.79,3.53,2.58c0.43,1.79-0.46,3.53-1.98,3.9c-1.52,0.36-3.1-0.79-3.53-2.58
	C392.97,288.21,393.85,286.46,395.37,286.1"/>
<path class="st0" d="M417.76,303.8h55.52v1.31c0,0.72-0.59,1.31-1.31,1.31h-52.91c-0.72,0-1.31-0.59-1.31-1.31L417.76,303.8
	L417.76,303.8z"/>
<path class="st0" d="M395.26,269.22h43.72c1.72,0,2.81,1.46,3.13,3.17l6,32.08h-49.56l-6-32.52
	C392.29,270.48,393.77,269.22,395.26,269.22"/>
<g>
	<g>
		<g>
			<defs>
				<path id="SVGID_1_" d="M393.76,269.22h43.72c1.72,0,2.81,1.46,3.14,3.17l5.59,29.66h0.07l0.36,2.18
					c0.19,1.18-0.98,2.18-2.18,2.18h-45.29c-1.2,0-2-0.99-2.18-2.18l-0.27-1.79l-5.66-30.49
					C390.79,270.48,392.28,269.22,393.76,269.22"/>
			</defs>
			<clipPath id="SVGID_2_">
				<use xlink:href="#SVGID_1_"  style="overflow:visible;"/>
			</clipPath>
			<rect x="390.79" y="269.22" class="st18" width="56.05" height="37.19"/>
		</g>
	</g>
</g>
<path class="st0" d="M416.8,285.92c1.04-0.25,2.12,0.54,2.42,1.77c0.29,1.23-0.31,2.42-1.36,2.67c-1.04,0.25-2.12-0.54-2.42-1.77
	C415.15,287.36,415.76,286.17,416.8,285.92"/>
<path class="st15" d="M525.87,256.03c15.64,6.98-1.34,36.41-4.13,48.36c-2.73,11.14-57.43,2.44-67.01,2.03
	c0.69-2.06,7.34-5.13,11.91-6.32c3.09-0.81,8.3,1.68,12.32,0.88c19.08-3.78,29.51-2.26,29.59-2.97
	c0.59-14.34,5.28-30.45,13.13-39.94C522.4,257.2,524.7,255.51,525.87,256.03"/>
<path class="st19" d="M495.24,220.24c0,0-11.75,0.4-16.13-3.4c-9.19-7.9-3.59-26.73,19.89-19.76c18.69,5.55,9.54,23.9,33.86,31.5
	c9.01,2.81,7.94,7.33,0.03,10.4c5.39,1.91,0.18,7.19-4.81,6.55c9.51,7.62-11.08,13.55-26.17,2.52
	C493.23,241.69,508.49,222.23,495.24,220.24"/>
<path class="st6" d="M400.91,452.83c0,0-9.66,2.9-9.46,5.95c0.4,6.18,34.51,3.05,34.7,2.85c1.31-1.39,1.52-7.46,0.08-9.65
	C425.16,450.36,411.34,457.49,400.91,452.83"/>
<path class="st6" d="M448.77,460.93c0.21,3.93,14.42,2.8,16.56,1.62c3.18-1.76-0.69-13.13-1.89-11.75c0,0-3.71,5.83-8.09,4.65
	s-2.84-2.48-3.59-1C450.36,457.21,448.57,457.3,448.77,460.93"/>
<path class="st1" d="M191.57,267.69c4.43,14.08,10.87,27.74,25.32,36.11c12.7,3.26,39.03,2.38,38.27-0.75
	c-0.7-2.89-5.11-5.18-7.52-3.68c-2.62,1.63-28.1-17.93-28.41-18c-2.18-0.52-8.63-31.66-21.46-37.08
	C196.32,243.1,187.96,260.63,191.57,267.69"/>
<path class="st20" d="M198.43,284.98c0.73,1.3,3.51,6.12,8.36,10.47c-2.79-5.79-8.67-31.02-8.67-31.02L198.43,284.98z"/>
<path class="st10" d="M111.29,375.8l3.35,0.43l-10.47,84.23c-0.11,0.92-0.96,1.58-1.89,1.46l-0.19-0.03
	c-0.82-0.11-1.4-0.86-1.3-1.68L111.29,375.8z"/>
<path class="st10" d="M171.71,375.67h3.38v84.91c0,0.93-0.76,1.69-1.69,1.69h-0.19c-0.82,0-1.5-0.67-1.5-1.5V375.67z"/>
<path class="st10" d="M221.6,375.67h3.38v84.91c0,0.93-0.76,1.69-1.69,1.69h-0.19c-0.82,0-1.5-0.67-1.5-1.5V375.67z"/>
<path class="st10" d="M149.33,375.8l3.35,0.43l-10.47,84.23c-0.11,0.92-0.96,1.58-1.89,1.46l-0.19-0.03
	c-0.82-0.11-1.4-0.86-1.3-1.68L149.33,375.8z"/>
<path class="st10" d="M171.59,365.31h57.98c3.47,0,6.32,2.84,6.32,6.32s-2.84,6.32-6.32,6.32h-57.98c-3.47,0-6.32-2.84-6.32-6.32
	C165.27,368.15,168.11,365.31,171.59,365.31"/>
<path class="st10" d="M152.07,267.15H93.01l14.85,98.39l59.06,0.05l0,0c0.23,0,0.46-0.02,0.69-0.05l0,0c2.43,0,4.06-2.65,3.68-5.06
	l-14.17-89.66C156.75,268.43,154.5,267.15,152.07,267.15L152.07,267.15z"/>
<path class="st9" d="M97.38,270.83l15.01,94.48h65.53c3.47,0,6.32,2.84,6.32,6.32s-2.84,6.32-6.32,6.32H111.9
	c-6.3,0-7.39-5.9-7.96-9.48l-15.29-96.25c-0.38-2.4,1.24-5.06,3.68-5.06l0,0C94.75,267.15,97,268.43,97.38,270.83"/>
<polygon class="st21" points="258.03,450.84 257.96,438.54 247.35,438.85 247.58,451.44 "/>
<path class="st0" d="M164.98,331.6l23.62-4.48c0,0,54.77,5.99,64.91,23.86s6.14,89.96,6.14,89.96l-14.72,0.19
	c0.95-5.94-15.26-74.81-15.32-74.83l-61.73-21.97L164.98,331.6z"/>
<path class="st6" d="M164.98,331.6l8.3,3.72c6.82,0.13,36.38,4.74,41.33,5.81c16.79,3.62,14.72,12.15,15,25.17l-12.2-1.66
	l-49.54-20.32L164.98,331.6z"/>
<polygon class="st21" points="203.33,448.79 204.34,438.1 193.61,438.36 193.71,450.6 "/>
<path class="st22" d="M203.85,446.98c3.03,5.45,7.97,10.66,4.12,15.29h-19.64c-0.03-0.09-0.06-0.19-0.1-0.29
	c-0.19-0.63-1.11-0.9-0.49-3.22c1.14-4.31,4.48-10.93,5.63-11.27C195.65,446.81,198.89,448.72,203.85,446.98"/>
<path class="st23" d="M209.43,458.66L209.43,458.66c0.05,1.46-0.1,2.73-1.46,3.6h-19.64c-1.01-0.59-1.28-0.99-0.59-3.5
	L209.43,458.66z"/>
<path class="st23" d="M196.05,446.45h4.55c0.63,0,1.14,0.51,1.14,1.14v5.85c0,0.63-0.51,1.14-1.14,1.14h-4.55
	c-0.63,0-1.14-0.51-1.14-1.14v-5.85C194.92,446.96,195.43,446.45,196.05,446.45"/>
<path class="st0" d="M137.96,329.01c0,0-6.86,27.7,5.6,33.67c12.47,5.97,51.37,6.6,51.37,6.6c-7.84,29.44-2.12,48.08-2.41,73.16
	l12.99,0.07c0,0,13.1-46.83,16.94-73.38c1.94-13.39,2.35-24.05-14.62-27.7c-5.71-1.23-42.85-9.83-42.85-9.83L137.96,329.01z"/>
<path class="st1" d="M142.91,242.71c-9.3,21.34,3.11,43.66-6.12,87.74c15.99,5.1,63.25,5.26,65.29-2.05
	c0.99-27.88-0.62-54.6-1.75-82.46C184.67,235.09,159.64,231.8,142.91,242.71"/>
<path class="st20" d="M185.22,298.83l-34.48-11.54l-0.23-14.03l-3.83-5.13c0,0-7.8,11.93-7.83,12.74s3.45,12.94,3.13,12.95
	c-0.31,0.01,20.58,6.96,22.3,7.37C166,301.59,185.22,298.83,185.22,298.83"/>
<path class="st1" d="M145.97,240.92c-13.79,4.76-19.51,47.29-16.42,57.96c0.53,7.67,31.86,6.67,54.16,9.61
	c3.06-2.25,5.56-5.22,2.7-9.38c-13.7-5.04-37.83-9.53-37.79-10.26c1.9-14.61,4.79-34.67,3.74-44.38
	C152.25,243.32,147.21,240.5,145.97,240.92"/>
<rect x="290.32" y="317.41" class="st10" width="8.94" height="144.86"/>
<path class="st10" d="M318.46,306.41H169.68v11.96h148.77c3.29,0,5.98-2.69,5.98-5.98l0,0C324.44,309.1,321.74,306.41,318.46,306.41
	"/>
<path class="st9" d="M175.62,306.41H90.68c-3.29,0-5.98,2.69-5.98,5.98s2.69,5.98,5.98,5.98h37.89v143.89h7.61h1.78V318.37h37.67
	c3.29,0,5.98-2.69,5.98-5.98C181.6,309.1,178.91,306.41,175.62,306.41"/>
<path class="st22" d="M259.39,446.65c0,0,14.14,5.81,18.86,8.12c3.66,1.79,5.74,5.57,2.73,7.49h-36.64
	c-0.03-0.09-0.06-0.18-0.1-0.29c-0.54-1.81-1.97-14.75,1.84-14.46C248.46,447.7,254.1,449.38,259.39,446.65"/>
<path class="st23" d="M282.44,458.67L282.44,458.67l-0.03,1.47c-0.06,1.15-0.46,1.51-1.43,2.13h-36.81
	c-0.03-0.09-0.06-0.18-0.1-0.29c-0.11-0.35-0.37-2.19-0.49-3.21L282.44,458.67z"/>
<path class="st23" d="M260.95,447.31c5.1,2.12,13.64,5.7,17.14,7.38c-1.83,1.41-3.58,1.13-3.58,1.13s-9.95-3.1-12.78-5.11
	C260.06,449.53,260.4,448.2,260.95,447.31"/>
<path class="st0" d="M247.12,303.8H191.6v1.31c0,0.72,0.59,1.31,1.31,1.31h52.91c0.72,0,1.31-0.59,1.31-1.31L247.12,303.8
	L247.12,303.8z"/>
<path class="st0" d="M269.63,269.22h-43.72c-1.72,0-2.81,1.46-3.13,3.17l-6.01,32.08h49.56l6-32.52
	C272.6,270.48,271.11,269.22,269.63,269.22"/>
<g>
	<g>
		<g>
			<defs>
				<path id="SVGID_3_" d="M271.13,269.22h-43.72c-1.72,0-2.81,1.46-3.14,3.17l-5.59,29.66h-0.07l-0.36,2.18
					c-0.19,1.18,0.98,2.18,2.18,2.18h45.29c1.2,0,2-0.99,2.18-2.18l0.27-1.79l5.66-30.49C274.1,270.48,272.61,269.22,271.13,269.22"
					/>
			</defs>
			<clipPath id="SVGID_4_">
				<use xlink:href="#SVGID_3_"  style="overflow:visible;"/>
			</clipPath>
			<rect x="218.05" y="269.22" class="st24" width="56.05" height="37.19"/>
		</g>
	</g>
</g>
<path class="st0" d="M248.09,285.92c-1.04-0.25-2.12,0.54-2.42,1.77s0.31,2.42,1.36,2.67c1.04,0.25,2.12-0.54,2.42-1.77
	C249.74,287.36,249.13,286.17,248.09,285.92"/>
<path class="st15" d="M195.43,228.69c-2.79,3.33-5.49,5.61-8.79,6.33l-1.41,5.86c0.99,4.15,0.06,7.61-5.26,7.29
	c-14.18-2.62-10.16-11.97-9.93-12.39l3.28-7.84c-0.46-0.14-3.88-3.1-4.82-3.64c-0.93-0.55-1.96-2.84-1.57-4.91s3.4-0.66,3.4-0.66
	c-2.6-6.16-5.93-11.47,0.82-14.87s20.34-3.1,20.34-3.1c1.99,12.21,7.61-0.76,6.87,5.06c-0.48,3.73-0.58,8.35-0.18,11.88
	C198.79,223.15,199.17,224.22,195.43,228.69"/>
<path class="st0" d="M179.02,247.98c-2.28,1.44-5.71,3.4-7.99,4.84c-2.91-5-4.21-8.53-4.84-14.04c0.84-1.15,3.47-4.08,4.51-4.57
	C171.64,238.18,173.48,243.82,179.02,247.98"/>
<path class="st0" d="M179.02,247.99c1.38,2.28,4.04,4.54,5.42,6.82c1.7-3.29,3.6-10.79,3.82-15.06c-0.78-0.77-1.22-1-2.22-2.22
	C184.8,240.34,181.42,246.3,179.02,247.99"/>
<path class="st25" d="M176.25,229.65c0.6,5.08,2.78,9.89,8.15,11.1l1.63-3.23l0.6-2.5C184.05,234.84,181.66,234.06,176.25,229.65"/>
<path class="st26" d="M205.45,306.6c-0.8-2.35-2.3-5.75-6.14-6.79c-2.73-0.74-8.08,0.17-18.93,0.7c-1.33,2.94-1.36,4.47-0.99,5.85
	L205.45,306.6z"/>
<rect x="352.99" y="317.41" class="st10" width="8.94" height="144.86"/>
<path class="st10" d="M333.8,306.41h148.77v11.96H333.8c-3.29,0-5.98-2.69-5.98-5.98l0,0C327.82,309.1,330.51,306.41,333.8,306.41"
	/>
<path class="st9" d="M476.64,306.41h84.94c3.29,0,5.98,2.69,5.98,5.98s-2.69,5.98-5.98,5.98h-37.89v143.89h-7.61h-1.78V318.37
	h-37.67c-3.29,0-5.98-2.69-5.98-5.98C470.66,309.1,473.35,306.41,476.64,306.41"/>
<path class="st19" d="M178.6,212.06c-2.51,1.35-3.48,4.33-3.32,9.58c0.05,1.55,0.42,2.82-1.41,0.9c-0.84-0.88-2.27-2.21-3.03-1.97
	c-1.7,0.54-1.9,2.98-1.15,4.08c0.34,0.49,1.02,1.3,1.02,1.3c-7.41-4.65-8.96-13.78-6.57-19.54c0.81-1.96,1.5-2.58,3.44-3.57
	c6.58-18.93,35.83-6.68,33.82,7.47c-1.06,7.43-8.18,5.64-14.41,3.61C183.58,212.81,180.76,210.89,178.6,212.06"/>
<rect x="60.21" y="462.26" class="st6" width="546.94" height="1.2"/>
<path class="st0" d="M233.66,107.93h215.87c0.02,0,0.04,0.02,0.04,0.04v132.16c0,0.02-0.02,0.04-0.04,0.04H233.66
	c-0.02,0-0.04-0.02-0.04-0.04V107.96C233.62,107.94,233.64,107.93,233.66,107.93"/>
<path class="st1" d="M322.32,230.64h62.91c0.71,0,1.29-0.58,1.29-1.29l0,0c0-0.71-0.58-1.29-1.29-1.29h-62.91
	c-0.71,0-1.29,0.58-1.29,1.29l0,0C321.03,230.06,321.61,230.64,322.32,230.64"/>
<path class="st2" d="M392.2,230.64h15.44c0.71,0,1.29-0.58,1.29-1.29l0,0c0-0.71-0.58-1.29-1.29-1.29H392.2
	c-0.71,0-1.29,0.58-1.29,1.29l0,0C390.91,230.06,391.49,230.64,392.2,230.64"/>
<path class="st2" d="M315.51,225.04h15.44c0.71,0,1.29-0.58,1.29-1.29l0,0c0-0.71-0.58-1.29-1.29-1.29h-15.44
	c-0.71,0-1.29,0.58-1.29,1.29l0,0C314.22,224.46,314.8,225.04,315.51,225.04"/>
<path class="st2" d="M322.32,219.43h23.17c0.71,0,1.29-0.58,1.29-1.29l0,0c0-0.71-0.58-1.29-1.29-1.29h-23.17
	c-0.71,0-1.29,0.58-1.29,1.29l0,0C321.03,218.85,321.61,219.43,322.32,219.43"/>
<path class="st2" d="M322.4,213.83h19c0.71,0,1.29-0.58,1.29-1.29l0,0c0-0.71-0.58-1.29-1.29-1.29h-19c-0.71,0-1.29,0.58-1.29,1.29
	l0,0C321.11,213.25,321.69,213.83,322.4,213.83"/>
<path class="st2" d="M322.4,208.23h57.69c0.71,0,1.29-0.58,1.29-1.29l0,0c0-0.71-0.58-1.29-1.29-1.29H322.4
	c-0.71,0-1.29,0.58-1.29,1.29l0,0C321.11,207.65,321.69,208.23,322.4,208.23"/>
<path class="st2" d="M352.68,219.43h15.14c0.71,0,1.29-0.58,1.29-1.29l0,0c0-0.71-0.58-1.29-1.29-1.29h-15.14
	c-0.71,0-1.29,0.58-1.29,1.29l0,0C351.39,218.85,351.97,219.43,352.68,219.43"/>
<path class="st1" d="M346.96,213.83h45.01c0.71,0,1.29-0.58,1.29-1.29l0,0c0-0.71-0.58-1.29-1.29-1.29h-45.01
	c-0.71,0-1.29,0.58-1.29,1.29l0,0C345.68,213.25,346.25,213.83,346.96,213.83"/>
<path class="st3" d="M398.75,213.83h12.08c0.71,0,1.29-0.58,1.29-1.29l0,0c0-0.71-0.58-1.29-1.29-1.29h-12.08
	c-0.71,0-1.29,0.58-1.29,1.29l0,0C397.46,213.25,398.04,213.83,398.75,213.83"/>
<path class="st4" d="M417.15,213.83h12.07c0.71,0,1.29-0.58,1.29-1.29l0,0c0-0.71-0.58-1.29-1.29-1.29h-12.07
	c-0.71,0-1.29,0.58-1.29,1.29l0,0C415.86,213.25,416.44,213.83,417.15,213.83"/>
<path class="st2" d="M315.51,202.59h15.44c0.71,0,1.29-0.58,1.29-1.29l0,0c0-0.71-0.58-1.29-1.29-1.29h-15.44
	c-0.71,0-1.29,0.58-1.29,1.29l0,0C314.22,202.01,314.8,202.59,315.51,202.59"/>
<path class="st2" d="M322.32,153.35h23.17c0.71,0,1.29-0.58,1.29-1.29l0,0c0-0.71-0.58-1.29-1.29-1.29h-23.17
	c-0.71,0-1.29,0.58-1.29,1.29l0,0C321.03,152.77,321.61,153.35,322.32,153.35"/>
<path class="st2" d="M322.4,147.75h19c0.71,0,1.29-0.58,1.29-1.29l0,0c0-0.71-0.58-1.29-1.29-1.29h-19c-0.71,0-1.29,0.58-1.29,1.29
	l0,0C321.11,147.17,321.69,147.75,322.4,147.75"/>
<path class="st3" d="M322.4,142.14h57.69c0.71,0,1.29-0.58,1.29-1.29l0,0c0-0.71-0.58-1.29-1.29-1.29H322.4
	c-0.71,0-1.29,0.58-1.29,1.29l0,0C321.11,141.56,321.69,142.14,322.4,142.14"/>
<path class="st2" d="M352.68,153.35h15.14c0.71,0,1.29-0.58,1.29-1.29l0,0c0-0.71-0.58-1.29-1.29-1.29h-15.14
	c-0.71,0-1.29,0.58-1.29,1.29l0,0C351.39,152.77,351.97,153.35,352.68,153.35"/>
<path class="st5" d="M346.96,147.75h45.01c0.71,0,1.29-0.58,1.29-1.29l0,0c0-0.71-0.58-1.29-1.29-1.29h-45.01
	c-0.71,0-1.29,0.58-1.29,1.29l0,0C345.68,147.17,346.25,147.75,346.96,147.75"/>
<path class="st4" d="M398.75,147.75h12.08c0.71,0,1.29-0.58,1.29-1.29l0,0c0-0.71-0.58-1.29-1.29-1.29h-12.08
	c-0.71,0-1.29,0.58-1.29,1.29l0,0C397.46,147.17,398.04,147.75,398.75,147.75"/>
<path class="st2" d="M417.15,147.75h12.07c0.71,0,1.29-0.58,1.29-1.29l0,0c0-0.71-0.58-1.29-1.29-1.29h-12.07
	c-0.71,0-1.29,0.58-1.29,1.29l0,0C415.86,147.17,416.44,147.75,417.15,147.75"/>
<path class="st2" d="M322.7,195.1h15.44c0.71,0,1.29-0.58,1.29-1.29l0,0c0-0.71-0.58-1.29-1.29-1.29H322.7
	c-0.71,0-1.29,0.58-1.29,1.29l0,0C321.41,194.52,321.99,195.1,322.7,195.1"/>
<path class="st2" d="M322.32,189.5h23.17c0.71,0,1.29-0.58,1.29-1.29l0,0c0-0.71-0.58-1.29-1.29-1.29h-23.17
	c-0.71,0-1.29,0.58-1.29,1.29l0,0C321.03,188.92,321.61,189.5,322.32,189.5"/>
<path class="st2" d="M322.4,183.9h19c0.71,0,1.29-0.58,1.29-1.29l0,0c0-0.71-0.58-1.29-1.29-1.29h-19c-0.71,0-1.29,0.58-1.29,1.29
	l0,0C321.11,183.32,321.69,183.9,322.4,183.9"/>
<path class="st4" d="M322.4,178.29h24.93c0.71,0,1.29-0.58,1.29-1.29l0,0c0-0.71-0.58-1.29-1.29-1.29H322.4
	c-0.71,0-1.29,0.58-1.29,1.29l0,0C321.11,177.72,321.69,178.29,322.4,178.29"/>
<path class="st2" d="M352.68,189.5h15.14c0.71,0,1.29-0.58,1.29-1.29l0,0c0-0.71-0.58-1.29-1.29-1.29h-15.14
	c-0.71,0-1.29,0.58-1.29,1.29l0,0C351.39,188.92,351.97,189.5,352.68,189.5"/>
<path class="st1" d="M346.96,183.9h45.01c0.71,0,1.29-0.58,1.29-1.29l0,0c0-0.71-0.58-1.29-1.29-1.29h-45.01
	c-0.71,0-1.29,0.58-1.29,1.29l0,0C345.68,183.32,346.25,183.9,346.96,183.9"/>
<path class="st2" d="M398.75,183.9h12.08c0.71,0,1.29-0.58,1.29-1.29l0,0c0-0.71-0.58-1.29-1.29-1.29h-12.08
	c-0.71,0-1.29,0.58-1.29,1.29l0,0C397.46,183.32,398.04,183.9,398.75,183.9"/>
<path class="st2" d="M417.15,183.9h12.07c0.71,0,1.29-0.58,1.29-1.29l0,0c0-0.71-0.58-1.29-1.29-1.29h-12.07
	c-0.71,0-1.29,0.58-1.29,1.29l0,0C415.86,183.32,416.44,183.9,417.15,183.9"/>
<path class="st2" d="M340.75,136.35h45.01c0.71,0,1.29-0.58,1.29-1.29l0,0c0-0.71-0.58-1.29-1.29-1.29h-45.01
	c-0.71,0-1.29,0.58-1.29,1.29l0,0C339.47,135.77,340.05,136.35,340.75,136.35"/>
<path class="st2" d="M392.54,136.35h12.08c0.71,0,1.29-0.58,1.29-1.29l0,0c0-0.71-0.58-1.29-1.29-1.29h-12.08
	c-0.71,0-1.29,0.58-1.29,1.29l0,0C391.25,135.77,391.83,136.35,392.54,136.35"/>
<path class="st2" d="M410.94,136.35h12.07c0.71,0,1.29-0.58,1.29-1.29l0,0c0-0.71-0.58-1.29-1.29-1.29h-12.07
	c-0.71,0-1.29,0.58-1.29,1.29l0,0C409.65,135.77,410.23,136.35,410.94,136.35"/>
<path class="st5" d="M340.75,131.05h19.68c0.71,0,1.29-0.58,1.29-1.29l0,0c0-0.71-0.58-1.29-1.29-1.29h-19.68
	c-0.71,0-1.29,0.58-1.29,1.29l0,0C339.47,130.47,340.05,131.05,340.75,131.05"/>
<path class="st1" d="M367.33,131.05h30.89c0.71,0,1.29-0.58,1.29-1.29l0,0c0-0.71-0.58-1.29-1.29-1.29h-30.89
	c-0.71,0-1.29,0.58-1.29,1.29l0,0C366.04,130.47,366.62,131.05,367.33,131.05"/>
<path class="st2" d="M406.11,131.05h26.03c0.71,0,1.29-0.58,1.29-1.29l0,0c0-0.71-0.58-1.29-1.29-1.29h-26.03
	c-0.71,0-1.29,0.58-1.29,1.29l0,0C404.82,130.47,405.4,131.05,406.11,131.05"/>
<path class="st2" d="M340.75,172.71h45.01c0.71,0,1.29-0.58,1.29-1.29l0,0c0-0.71-0.58-1.29-1.29-1.29h-45.01
	c-0.71,0-1.29,0.58-1.29,1.29l0,0C339.47,172.13,340.05,172.71,340.75,172.71"/>
<path class="st2" d="M392.54,172.71h12.08c0.71,0,1.29-0.58,1.29-1.29l0,0c0-0.71-0.58-1.29-1.29-1.29h-12.08
	c-0.71,0-1.29,0.58-1.29,1.29l0,0C391.25,172.13,391.83,172.71,392.54,172.71"/>
<path class="st2" d="M410.94,172.71h12.07c0.71,0,1.29-0.58,1.29-1.29l0,0c0-0.71-0.58-1.29-1.29-1.29h-12.07
	c-0.71,0-1.29,0.58-1.29,1.29l0,0C409.65,172.13,410.23,172.71,410.94,172.71"/>
<path class="st2" d="M340.75,166.76h19.68c0.71,0,1.29-0.58,1.29-1.29l0,0c0-0.71-0.58-1.29-1.29-1.29h-19.68
	c-0.71,0-1.29,0.58-1.29,1.29l0,0C339.47,166.18,340.05,166.76,340.75,166.76"/>
<path class="st2" d="M367.33,166.76h30.89c0.71,0,1.29-0.58,1.29-1.29l0,0c0-0.71-0.58-1.29-1.29-1.29h-30.89
	c-0.71,0-1.29,0.58-1.29,1.29l0,0C366.04,166.18,366.62,166.76,367.33,166.76"/>
<path class="st2" d="M406.11,166.76h26.03c0.71,0,1.29-0.58,1.29-1.29l0,0c0-0.71-0.58-1.29-1.29-1.29h-26.03
	c-0.71,0-1.29,0.58-1.29,1.29l0,0C404.82,166.18,405.4,166.76,406.11,166.76"/>
<rect x="243.08" y="117.09" class="st6" width="38.26" height="118.49"/>
<path class="st1" d="M352.7,178.29h13.42c0.71,0,1.29-0.58,1.29-1.29l0,0c0-0.71-0.58-1.29-1.29-1.29H352.7
	c-0.71,0-1.29,0.58-1.29,1.29l0,0C351.41,177.72,351.99,178.29,352.7,178.29"/>
<path class="st1" d="M370.81,178.29h13.42c0.71,0,1.29-0.58,1.29-1.29l0,0c0-0.71-0.58-1.29-1.29-1.29h-13.42
	c-0.71,0-1.29,0.58-1.29,1.29l0,0C369.52,177.72,370.1,178.29,370.81,178.29"/>
<path class="st2" d="M315.51,160.38h19.88c0.71,0,1.29-0.58,1.29-1.29l0,0c0-0.71-0.58-1.29-1.29-1.29h-19.88
	c-0.71,0-1.29,0.58-1.29,1.29l0,0C314.22,159.8,314.8,160.38,315.51,160.38"/>
<path class="st2" d="M340.76,160.38h13.42c0.71,0,1.29-0.58,1.29-1.29l0,0c0-0.71-0.58-1.29-1.29-1.29h-13.42
	c-0.71,0-1.29,0.58-1.29,1.29l0,0C339.47,159.8,340.05,160.38,340.76,160.38"/>
<path class="st2" d="M360.23,160.38h13.42c0.71,0,1.29-0.58,1.29-1.29l0,0c0-0.71-0.58-1.29-1.29-1.29h-13.42
	c-0.71,0-1.29,0.58-1.29,1.29l0,0C358.94,159.8,359.52,160.38,360.23,160.38"/>
<path class="st7" d="M254.32,200.61h8.52c0.68,0,1.24-0.56,1.24-1.24l0,0c0-0.68-0.56-1.24-1.24-1.24h-8.52
	c-0.68,0-1.24,0.56-1.24,1.24l0,0C253.08,200.05,253.63,200.61,254.32,200.61"/>
<path class="st7" d="M249.17,194.46h22.53c0.68,0,1.24-0.56,1.24-1.24l0,0c0-0.68-0.56-1.24-1.24-1.24h-22.53
	c-0.68,0-1.24,0.56-1.24,1.24l0,0C247.93,193.9,248.49,194.46,249.17,194.46"/>
<path class="st7" d="M249.17,187.95h17.17c0.68,0,1.24-0.56,1.24-1.24l0,0c0-0.68-0.56-1.24-1.24-1.24h-17.17
	c-0.68,0-1.24,0.56-1.24,1.24l0,0C247.93,187.39,248.49,187.95,249.17,187.95"/>
<path class="st7" d="M254.32,181.43h17.14c0.68,0,1.24-0.56,1.24-1.24l0,0c0-0.68-0.56-1.24-1.24-1.24h-17.14
	c-0.68,0-1.24,0.56-1.24,1.24l0,0C253.08,180.87,253.63,181.43,254.32,181.43"/>
<path class="st7" d="M254.32,174.92h5.46c0.68,0,1.24-0.56,1.24-1.24l0,0c0-0.68-0.56-1.24-1.24-1.24h-5.46
	c-0.68,0-1.24,0.56-1.24,1.24l0,0C253.08,174.36,253.63,174.92,254.32,174.92"/>
<path class="st7" d="M249.17,168.41h16.3c0.68,0,1.24-0.56,1.24-1.24l0,0c0-0.68-0.56-1.24-1.24-1.24h-16.3
	c-0.68,0-1.24,0.56-1.24,1.24l0,0C247.93,167.85,248.49,168.41,249.17,168.41"/>
<path class="st7" d="M254.22,161.89h4.46c0.68,0,1.24-0.56,1.24-1.24l0,0c0-0.68-0.56-1.24-1.24-1.24h-4.46
	c-0.68,0-1.24,0.56-1.24,1.24l0,0C252.98,161.34,253.54,161.89,254.22,161.89"/>
<path class="st7" d="M253.63,155.38h18.08c0.68,0,1.24-0.56,1.24-1.24l0,0c0-0.68-0.56-1.24-1.24-1.24h-18.08
	c-0.68,0-1.24,0.56-1.24,1.24l0,0C252.38,154.82,252.94,155.38,253.63,155.38"/>
<path class="st7" d="M249.17,148.87h14.38c0.68,0,1.24-0.56,1.24-1.24l0,0c0-0.68-0.56-1.24-1.24-1.24h-14.38
	c-0.68,0-1.24,0.56-1.24,1.24l0,0C247.93,148.31,248.49,148.87,249.17,148.87"/>
<path class="st7" d="M253.63,142.35h18.08c0.68,0,1.24-0.56,1.24-1.24l0,0c0-0.68-0.56-1.24-1.24-1.24h-18.08
	c-0.68,0-1.24,0.56-1.24,1.24l0,0C252.38,141.79,252.94,142.35,253.63,142.35"/>
<path class="st7" d="M253.63,135.84h11.02c0.68,0,1.24-0.56,1.24-1.24l0,0c0-0.68-0.56-1.24-1.24-1.24h-11.02
	c-0.68,0-1.24,0.56-1.24,1.24l0,0C252.38,135.28,252.94,135.84,253.63,135.84"/>
<path class="st7" d="M249.17,129.33h7.93c0.68,0,1.24-0.56,1.24-1.24l0,0c0-0.68-0.56-1.24-1.24-1.24h-7.93
	c-0.68,0-1.24,0.56-1.24,1.24l0,0C247.93,128.77,248.49,129.33,249.17,129.33"/>
<path class="st7" d="M254.32,206.37h8.52c0.68,0,1.24-0.56,1.24-1.24l0,0c0-0.68-0.56-1.24-1.24-1.24h-8.52
	c-0.68,0-1.24,0.56-1.24,1.24l0,0C253.08,205.81,253.63,206.37,254.32,206.37"/>
<path class="st7" d="M249.17,212.12h21.77c0.68,0,1.24-0.56,1.24-1.24l0,0c0-0.68-0.56-1.24-1.24-1.24h-21.77
	c-0.68,0-1.24,0.56-1.24,1.24l0,0C247.93,211.57,248.49,212.12,249.17,212.12"/>
<path class="st7" d="M254.32,217.88h8.52c0.68,0,1.24-0.56,1.24-1.24l0,0c0-0.68-0.56-1.24-1.24-1.24h-8.52
	c-0.68,0-1.24,0.56-1.24,1.24l0,0C253.08,217.32,253.63,217.88,254.32,217.88"/>
<path class="st2" d="M322.4,136.35h12.64c0.71,0,1.29-0.58,1.29-1.29l0,0c0-0.71-0.58-1.29-1.29-1.29H322.4
	c-0.71,0-1.29,0.58-1.29,1.29l0,0C321.11,135.77,321.69,136.35,322.4,136.35"/>
<path class="st2" d="M309.55,131.05h25.11c0.71,0,1.29-0.58,1.29-1.29l0,0c0-0.71-0.58-1.29-1.29-1.29h-25.11
	c-0.71,0-1.29,0.58-1.29,1.29l0,0C308.26,130.47,308.84,131.05,309.55,131.05"/>
<path class="st2" d="M309.55,124.49h33.07c0.71,0,1.29-0.58,1.29-1.29l0,0c0-0.71-0.58-1.29-1.29-1.29h-33.07
	c-0.71,0-1.29,0.58-1.29,1.29l0,0C308.26,123.91,308.84,124.49,309.55,124.49"/>
<path class="st8" d="M295.89,124.49h1.21c0.71,0,1.29-0.58,1.29-1.29l0,0c0-0.71-0.58-1.29-1.29-1.29h-1.21
	c-0.71,0-1.29,0.58-1.29,1.29l0,0C294.6,123.91,295.18,124.49,295.89,124.49"/>
<path class="st8" d="M295.89,131.05h1.21c0.71,0,1.29-0.58,1.29-1.29l0,0c0-0.71-0.58-1.29-1.29-1.29h-1.21
	c-0.71,0-1.29,0.58-1.29,1.29l0,0C294.6,130.47,295.18,131.05,295.89,131.05"/>
<path class="st8" d="M295.66,153.35h1.05c0.71,0,1.29-0.58,1.29-1.29l0,0c0-0.71-0.58-1.29-1.29-1.29h-1.05
	c-0.71,0-1.29,0.58-1.29,1.29l0,0C294.37,152.77,294.95,153.35,295.66,153.35"/>
<path class="st8" d="M295.74,147.75h0.97c0.71,0,1.29-0.58,1.29-1.29l0,0c0-0.71-0.58-1.29-1.29-1.29h-0.97
	c-0.71,0-1.29,0.58-1.29,1.29l0,0C294.45,147.17,295.03,147.75,295.74,147.75"/>
<path class="st8" d="M295.74,142.14h0.97c0.71,0,1.29-0.58,1.29-1.29l0,0c0-0.71-0.58-1.29-1.29-1.29h-0.97
	c-0.71,0-1.29,0.58-1.29,1.29l0,0C294.45,141.56,295.03,142.14,295.74,142.14"/>
<path class="st8" d="M295.74,136.35h0.97c0.71,0,1.29-0.58,1.29-1.29l0,0c0-0.71-0.58-1.29-1.29-1.29h-0.97
	c-0.71,0-1.29,0.58-1.29,1.29l0,0C294.45,135.77,295.03,136.35,295.74,136.35"/>
<path class="st8" d="M295.81,172.71h0.9c0.71,0,1.29-0.58,1.29-1.29l0,0c0-0.71-0.58-1.29-1.29-1.29h-0.9
	c-0.71,0-1.29,0.58-1.29,1.29l0,0C294.52,172.13,295.1,172.71,295.81,172.71"/>
<path class="st8" d="M295.81,166.76h0.9c0.71,0,1.29-0.58,1.29-1.29l0,0c0-0.71-0.58-1.29-1.29-1.29h-0.9
	c-0.71,0-1.29,0.58-1.29,1.29l0,0C294.52,166.18,295.1,166.76,295.81,166.76"/>
<path class="st8" d="M295.82,160.38h0.89c0.71,0,1.29-0.58,1.29-1.29l0,0c0-0.71-0.58-1.29-1.29-1.29h-0.89
	c-0.71,0-1.29,0.58-1.29,1.29l0,0C294.53,159.8,295.11,160.38,295.82,160.38"/>
<path class="st8" d="M296.2,195.1h0.51c0.71,0,1.29-0.58,1.29-1.29l0,0c0-0.71-0.58-1.29-1.29-1.29h-0.51
	c-0.71,0-1.29,0.58-1.29,1.29l0,0C294.91,194.52,295.49,195.1,296.2,195.1"/>
<path class="st8" d="M295.81,189.5h0.9c0.71,0,1.29-0.58,1.29-1.29l0,0c0-0.71-0.58-1.29-1.29-1.29h-0.9
	c-0.71,0-1.29,0.58-1.29,1.29l0,0C294.52,188.92,295.1,189.5,295.81,189.5"/>
<path class="st8" d="M295.89,183.9h0.82c0.71,0,1.29-0.58,1.29-1.29l0,0c0-0.71-0.58-1.29-1.29-1.29h-0.82
	c-0.71,0-1.29,0.58-1.29,1.29l0,0C294.6,183.32,295.18,183.9,295.89,183.9"/>
<path class="st8" d="M295.89,178.29h0.82c0.71,0,1.29-0.58,1.29-1.29l0,0c0-0.71-0.58-1.29-1.29-1.29h-0.82
	c-0.71,0-1.29,0.58-1.29,1.29l0,0C294.6,177.72,295.18,178.29,295.89,178.29"/>
<path class="st8" d="M296.33,225.04h0.38c0.71,0,1.29-0.58,1.29-1.29l0,0c0-0.71-0.58-1.29-1.29-1.29h-0.38
	c-0.71,0-1.29,0.58-1.29,1.29l0,0C295.05,224.46,295.62,225.04,296.33,225.04"/>
<path class="st8" d="M296.33,219.43h0.38c0.71,0,1.29-0.58,1.29-1.29l0,0c0-0.71-0.58-1.29-1.29-1.29h-0.38
	c-0.71,0-1.29,0.58-1.29,1.29l0,0C295.05,218.85,295.62,219.43,296.33,219.43"/>
<path class="st8" d="M296.29,213.83h0.43c0.71,0,1.29-0.58,1.29-1.29l0,0c0-0.71-0.58-1.29-1.29-1.29h-0.43
	c-0.71,0-1.29,0.58-1.29,1.29l0,0C295,213.25,295.58,213.83,296.29,213.83"/>
<path class="st8" d="M296.2,208.23h0.51c0.71,0,1.29-0.58,1.29-1.29l0,0c0-0.71-0.58-1.29-1.29-1.29h-0.51
	c-0.71,0-1.29,0.58-1.29,1.29l0,0C294.91,207.65,295.49,208.23,296.2,208.23"/>
<path class="st8" d="M296.2,202.59h0.51c0.71,0,1.29-0.58,1.29-1.29l0,0c0-0.71-0.58-1.29-1.29-1.29h-0.51
	c-0.71,0-1.29,0.58-1.29,1.29l0,0C294.91,202.01,295.49,202.59,296.2,202.59"/>
<rect x="233.62" y="100.5" class="st9" width="215.95" height="7.45"/>
<rect x="434.29" y="102.61" class="st2" width="2.27" height="2.27"/>
<rect x="438.29" y="102.61" class="st2" width="2.27" height="2.27"/>
<rect x="442.29" y="102.61" class="st2" width="2.27" height="2.27"/>
<path class="st0" d="M141.76,68.24h132.23c0.02,0,0.04,0.02,0.04,0.04v80.94c0,0.02-0.02,0.04-0.04,0.04H141.76
	c-0.02,0-0.04-0.02-0.04-0.04V68.28C141.72,68.26,141.74,68.24,141.76,68.24"/>
<path class="st1" d="M196.06,143.43h38.55c0.43,0,0.79-0.35,0.79-0.79l0,0c0-0.43-0.35-0.79-0.79-0.79h-38.55
	c-0.43,0-0.79,0.35-0.79,0.79l0,0C195.28,143.07,195.63,143.43,196.06,143.43"/>
<path class="st2" d="M238.88,143.43h9.46c0.43,0,0.79-0.35,0.79-0.79l0,0c0-0.43-0.35-0.79-0.79-0.79h-9.46
	c-0.43,0-0.79,0.35-0.79,0.79l0,0C238.09,143.07,238.44,143.43,238.88,143.43"/>
<path class="st2" d="M191.89,139.99h9.46c0.43,0,0.79-0.35,0.79-0.79l0,0c0-0.43-0.35-0.79-0.79-0.79h-9.46
	c-0.43,0-0.79,0.35-0.79,0.79l0,0C191.1,139.64,191.46,139.99,191.89,139.99"/>
<path class="st2" d="M196.06,136.56h14.19c0.43,0,0.79-0.35,0.79-0.79s-0.35-0.79-0.79-0.79h-14.19c-0.43,0-0.79,0.35-0.79,0.79
	S195.63,136.56,196.06,136.56"/>
<path class="st2" d="M196.11,133.13h11.64c0.43,0,0.79-0.35,0.79-0.79l0,0c0-0.43-0.35-0.79-0.79-0.79h-11.64
	c-0.43,0-0.79,0.35-0.79,0.79l0,0C195.32,132.77,195.68,133.13,196.11,133.13"/>
<path class="st2" d="M196.11,129.7h35.35c0.43,0,0.79-0.35,0.79-0.79l0,0c0-0.43-0.35-0.79-0.79-0.79h-35.35
	c-0.43,0-0.79,0.35-0.79,0.79l0,0C195.32,129.34,195.68,129.7,196.11,129.7"/>
<path class="st2" d="M214.66,136.56h9.28c0.43,0,0.79-0.35,0.79-0.79s-0.35-0.79-0.79-0.79h-9.28c-0.43,0-0.79,0.35-0.79,0.79
	C213.88,136.2,214.23,136.56,214.66,136.56"/>
<path class="st1" d="M211.16,133.13h27.57c0.43,0,0.79-0.35,0.79-0.79l0,0c0-0.43-0.35-0.79-0.79-0.79h-27.57
	c-0.43,0-0.79,0.35-0.79,0.79l0,0C210.37,132.77,210.73,133.13,211.16,133.13"/>
<path class="st3" d="M242.89,133.13h7.4c0.43,0,0.79-0.35,0.79-0.79l0,0c0-0.43-0.35-0.79-0.79-0.79h-7.4
	c-0.43,0-0.79,0.35-0.79,0.79l0,0C242.1,132.77,242.45,133.13,242.89,133.13"/>
<path class="st4" d="M254.16,133.13h7.4c0.43,0,0.79-0.35,0.79-0.79l0,0c0-0.43-0.35-0.79-0.79-0.79h-7.4
	c-0.43,0-0.79,0.35-0.79,0.79l0,0C253.37,132.77,253.73,133.13,254.16,133.13"/>
<path class="st2" d="M191.89,126.24h9.46c0.43,0,0.79-0.35,0.79-0.79c0-0.43-0.35-0.79-0.79-0.79h-9.46c-0.43,0-0.79,0.35-0.79,0.79
	S191.46,126.24,191.89,126.24"/>
<path class="st2" d="M196.06,96.07h14.19c0.43,0,0.79-0.35,0.79-0.79l0,0c0-0.43-0.35-0.79-0.79-0.79h-14.19
	c-0.43,0-0.79,0.35-0.79,0.79l0,0C195.28,95.72,195.63,96.07,196.06,96.07"/>
<path class="st2" d="M196.11,92.64h11.64c0.43,0,0.79-0.35,0.79-0.79l0,0c0-0.43-0.35-0.79-0.79-0.79h-11.64
	c-0.43,0-0.79,0.35-0.79,0.79l0,0C195.32,92.28,195.68,92.64,196.11,92.64"/>
<path class="st3" d="M196.11,89.21h35.35c0.43,0,0.79-0.35,0.79-0.79l0,0c0-0.43-0.35-0.79-0.79-0.79h-35.35
	c-0.43,0-0.79,0.35-0.79,0.79l0,0C195.32,88.85,195.68,89.21,196.11,89.21"/>
<path class="st2" d="M214.66,96.07h9.28c0.43,0,0.79-0.35,0.79-0.79l0,0c0-0.43-0.35-0.79-0.79-0.79h-9.28
	c-0.43,0-0.79,0.35-0.79,0.79l0,0C213.88,95.72,214.23,96.07,214.66,96.07"/>
<path class="st5" d="M211.16,92.64h27.57c0.43,0,0.79-0.35,0.79-0.79l0,0c0-0.43-0.35-0.79-0.79-0.79h-27.57
	c-0.43,0-0.79,0.35-0.79,0.79l0,0C210.37,92.28,210.73,92.64,211.16,92.64"/>
<path class="st4" d="M242.89,92.64h7.4c0.43,0,0.79-0.35,0.79-0.79l0,0c0-0.43-0.35-0.79-0.79-0.79h-7.4
	c-0.43,0-0.79,0.35-0.79,0.79l0,0C242.1,92.28,242.45,92.64,242.89,92.64"/>
<path class="st2" d="M254.16,92.64h7.4c0.43,0,0.79-0.35,0.79-0.79l0,0c0-0.43-0.35-0.79-0.79-0.79h-7.4
	c-0.43,0-0.79,0.35-0.79,0.79l0,0C253.37,92.28,253.73,92.64,254.16,92.64"/>
<path class="st2" d="M196.29,121.65h9.46c0.43,0,0.79-0.35,0.79-0.79l0,0c0-0.43-0.35-0.79-0.79-0.79h-9.46
	c-0.43,0-0.79,0.35-0.79,0.79l0,0C195.51,121.3,195.86,121.65,196.29,121.65"/>
<path class="st2" d="M196.06,118.22h14.19c0.43,0,0.79-0.35,0.79-0.79s-0.35-0.79-0.79-0.79h-14.19c-0.43,0-0.79,0.35-0.79,0.79
	S195.63,118.22,196.06,118.22"/>
<path class="st2" d="M196.11,114.79h11.64c0.43,0,0.79-0.35,0.79-0.79l0,0c0-0.43-0.35-0.79-0.79-0.79h-11.64
	c-0.43,0-0.79,0.35-0.79,0.79l0,0C195.32,114.43,195.68,114.79,196.11,114.79"/>
<path class="st4" d="M196.11,111.36h15.27c0.43,0,0.79-0.35,0.79-0.79l0,0c0-0.43-0.35-0.79-0.79-0.79h-15.27
	c-0.43,0-0.79,0.35-0.79,0.79l0,0C195.32,111,195.68,111.36,196.11,111.36"/>
<path class="st2" d="M214.66,118.22h9.28c0.43,0,0.79-0.35,0.79-0.79s-0.35-0.79-0.79-0.79h-9.28c-0.43,0-0.79,0.35-0.79,0.79
	C213.88,117.87,214.23,118.22,214.66,118.22"/>
<path class="st1" d="M211.16,114.79h27.57c0.43,0,0.79-0.35,0.79-0.79l0,0c0-0.43-0.35-0.79-0.79-0.79h-27.57
	c-0.43,0-0.79,0.35-0.79,0.79l0,0C210.37,114.43,210.73,114.79,211.16,114.79"/>
<path class="st2" d="M242.89,114.79h7.4c0.43,0,0.79-0.35,0.79-0.79l0,0c0-0.43-0.35-0.79-0.79-0.79h-7.4
	c-0.43,0-0.79,0.35-0.79,0.79l0,0C242.1,114.43,242.45,114.79,242.89,114.79"/>
<path class="st2" d="M254.16,114.79h7.4c0.43,0,0.79-0.35,0.79-0.79l0,0c0-0.43-0.35-0.79-0.79-0.79h-7.4
	c-0.43,0-0.79,0.35-0.79,0.79l0,0C253.37,114.43,253.73,114.79,254.16,114.79"/>
<path class="st2" d="M207.36,85.65h27.57c0.43,0,0.79-0.35,0.79-0.79l0,0c0-0.43-0.35-0.79-0.79-0.79h-27.57
	c-0.43,0-0.79,0.35-0.79,0.79l0,0C206.57,85.3,206.92,85.65,207.36,85.65"/>
<path class="st2" d="M239.09,85.65h7.4c0.43,0,0.79-0.35,0.79-0.79l0,0c0-0.43-0.35-0.79-0.79-0.79h-7.4
	c-0.43,0-0.79,0.35-0.79,0.79l0,0C238.3,85.3,238.65,85.65,239.09,85.65"/>
<path class="st2" d="M250.36,85.65h7.4c0.43,0,0.79-0.35,0.79-0.79l0,0c0-0.43-0.35-0.79-0.79-0.79h-7.4
	c-0.43,0-0.79,0.35-0.79,0.79l0,0C249.57,85.3,249.92,85.65,250.36,85.65"/>
<path class="st5" d="M207.36,82.41h12.06c0.43,0,0.79-0.35,0.79-0.79l0,0c0-0.43-0.35-0.79-0.79-0.79h-12.06
	c-0.43,0-0.79,0.35-0.79,0.79l0,0C206.57,82.05,206.92,82.41,207.36,82.41"/>
<path class="st1" d="M223.64,82.41h18.92c0.43,0,0.79-0.35,0.79-0.79l0,0c0-0.43-0.35-0.79-0.79-0.79h-18.92
	c-0.43,0-0.79,0.35-0.79,0.79l0,0C222.85,82.05,223.21,82.41,223.64,82.41"/>
<path class="st2" d="M247.4,82.41h15.94c0.43,0,0.79-0.35,0.79-0.79l0,0c0-0.43-0.35-0.79-0.79-0.79H247.4
	c-0.43,0-0.79,0.35-0.79,0.79l0,0C246.61,82.05,246.96,82.41,247.4,82.41"/>
<path class="st2" d="M207.36,107.93h27.57c0.43,0,0.79-0.35,0.79-0.79s-0.35-0.79-0.79-0.79h-27.57c-0.43,0-0.79,0.35-0.79,0.79
	S206.92,107.93,207.36,107.93"/>
<path class="st2" d="M239.09,107.93h7.4c0.43,0,0.79-0.35,0.79-0.79s-0.35-0.79-0.79-0.79h-7.4c-0.43,0-0.79,0.35-0.79,0.79
	S238.65,107.93,239.09,107.93"/>
<path class="st2" d="M250.36,107.93h7.4c0.43,0,0.79-0.35,0.79-0.79s-0.35-0.79-0.79-0.79h-7.4c-0.43,0-0.79,0.35-0.79,0.79
	S249.92,107.93,250.36,107.93"/>
<path class="st2" d="M207.36,104.29h12.06c0.43,0,0.79-0.35,0.79-0.79l0,0c0-0.43-0.35-0.79-0.79-0.79h-12.06
	c-0.43,0-0.79,0.35-0.79,0.79l0,0C206.57,103.94,206.92,104.29,207.36,104.29"/>
<path class="st2" d="M223.64,104.29h18.92c0.43,0,0.79-0.35,0.79-0.79l0,0c0-0.43-0.35-0.79-0.79-0.79h-18.92
	c-0.43,0-0.79,0.35-0.79,0.79l0,0C222.85,103.94,223.21,104.29,223.64,104.29"/>
<path class="st2" d="M247.4,104.29h15.94c0.43,0,0.79-0.35,0.79-0.79l0,0c0-0.43-0.35-0.79-0.79-0.79H247.4
	c-0.43,0-0.79,0.35-0.79,0.79l0,0C246.61,103.94,246.96,104.29,247.4,104.29"/>
<rect x="147.51" y="73.85" class="st6" width="23.44" height="72.6"/>
<path class="st1" d="M214.67,111.36h8.22c0.43,0,0.79-0.35,0.79-0.79l0,0c0-0.43-0.35-0.79-0.79-0.79h-8.22
	c-0.43,0-0.79,0.35-0.79,0.79l0,0C213.89,111,214.24,111.36,214.67,111.36"/>
<path class="st1" d="M225.77,111.36h8.22c0.43,0,0.79-0.35,0.79-0.79l0,0c0-0.43-0.35-0.79-0.79-0.79h-8.22
	c-0.43,0-0.79,0.35-0.79,0.79l0,0C224.98,111,225.34,111.36,225.77,111.36"/>
<path class="st2" d="M191.89,100.38h12.18c0.43,0,0.79-0.35,0.79-0.79c0-0.43-0.35-0.79-0.79-0.79h-12.18
	c-0.43,0-0.79,0.35-0.79,0.79C191.1,100.03,191.46,100.38,191.89,100.38"/>
<path class="st2" d="M207.36,100.38h8.22c0.43,0,0.79-0.35,0.79-0.79c0-0.43-0.35-0.79-0.79-0.79h-8.22c-0.43,0-0.79,0.35-0.79,0.79
	S206.93,100.38,207.36,100.38"/>
<path class="st2" d="M219.29,100.38h8.22c0.43,0,0.79-0.35,0.79-0.79c0-0.43-0.35-0.79-0.79-0.79h-8.22c-0.43,0-0.79,0.35-0.79,0.79
	S218.85,100.38,219.29,100.38"/>
<path class="st7" d="M154.4,125.03h5.22c0.42,0,0.76-0.34,0.76-0.76c0-0.42-0.34-0.76-0.76-0.76h-5.22c-0.42,0-0.76,0.34-0.76,0.76
	S153.98,125.03,154.4,125.03"/>
<path class="st7" d="M151.25,121.26h13.8c0.42,0,0.76-0.34,0.76-0.76c0-0.42-0.34-0.76-0.76-0.76h-13.8c-0.42,0-0.76,0.34-0.76,0.76
	C150.49,120.92,150.83,121.26,151.25,121.26"/>
<path class="st7" d="M151.25,117.27h10.52c0.42,0,0.76-0.34,0.76-0.76c0-0.42-0.34-0.76-0.76-0.76h-10.52
	c-0.42,0-0.76,0.34-0.76,0.76S150.83,117.27,151.25,117.27"/>
<path class="st7" d="M154.4,113.28h10.5c0.42,0,0.76-0.34,0.76-0.76c0-0.42-0.34-0.76-0.76-0.76h-10.5c-0.42,0-0.76,0.34-0.76,0.76
	S153.98,113.28,154.4,113.28"/>
<path class="st7" d="M154.4,109.29h3.34c0.42,0,0.76-0.34,0.76-0.76s-0.34-0.76-0.76-0.76h-3.34c-0.42,0-0.76,0.34-0.76,0.76
	C153.64,108.95,153.98,109.29,154.4,109.29"/>
<path class="st7" d="M151.25,105.3h9.99c0.42,0,0.76-0.34,0.76-0.76s-0.34-0.76-0.76-0.76h-9.99c-0.42,0-0.76,0.34-0.76,0.76
	C150.49,104.95,150.83,105.3,151.25,105.3"/>
<path class="st7" d="M154.34,101.31h2.73c0.42,0,0.76-0.34,0.76-0.76c0-0.42-0.34-0.76-0.76-0.76h-2.73c-0.42,0-0.76,0.34-0.76,0.76
	C153.58,100.96,153.92,101.31,154.34,101.31"/>
<path class="st7" d="M153.98,97.32h11.08c0.42,0,0.76-0.34,0.76-0.76c0-0.42-0.34-0.76-0.76-0.76h-11.08
	c-0.42,0-0.76,0.34-0.76,0.76C153.22,96.97,153.56,97.32,153.98,97.32"/>
<path class="st7" d="M151.25,93.33h8.81c0.42,0,0.76-0.34,0.76-0.76c0-0.42-0.34-0.76-0.76-0.76h-8.81c-0.42,0-0.76,0.34-0.76,0.76
	C150.49,92.98,150.83,93.33,151.25,93.33"/>
<path class="st7" d="M153.98,89.34h11.08c0.42,0,0.76-0.34,0.76-0.76c0-0.42-0.34-0.76-0.76-0.76h-11.08
	c-0.42,0-0.76,0.34-0.76,0.76C153.22,88.99,153.56,89.34,153.98,89.34"/>
<path class="st7" d="M153.98,85.35h6.75c0.42,0,0.76-0.34,0.76-0.76c0-0.42-0.34-0.76-0.76-0.76h-6.75c-0.42,0-0.76,0.34-0.76,0.76
	C153.22,85,153.56,85.35,153.98,85.35"/>
<path class="st7" d="M151.25,81.35h4.86c0.42,0,0.76-0.34,0.76-0.76c0-0.42-0.34-0.76-0.76-0.76h-4.86c-0.42,0-0.76,0.34-0.76,0.76
	S150.83,81.35,151.25,81.35"/>
<path class="st7" d="M154.4,128.56h5.22c0.42,0,0.76-0.34,0.76-0.76c0-0.42-0.34-0.76-0.76-0.76h-5.22c-0.42,0-0.76,0.34-0.76,0.76
	C153.64,128.21,153.98,128.56,154.4,128.56"/>
<path class="st7" d="M151.25,132.08h13.34c0.42,0,0.76-0.34,0.76-0.76s-0.34-0.76-0.76-0.76h-13.34c-0.42,0-0.76,0.34-0.76,0.76
	S150.83,132.08,151.25,132.08"/>
<path class="st7" d="M154.4,135.61h5.22c0.42,0,0.76-0.34,0.76-0.76s-0.34-0.76-0.76-0.76h-5.22c-0.42,0-0.76,0.34-0.76,0.76
	S153.98,135.61,154.4,135.61"/>
<path class="st2" d="M196.11,85.65h7.75c0.43,0,0.79-0.35,0.79-0.79l0,0c0-0.43-0.35-0.79-0.79-0.79h-7.75
	c-0.43,0-0.79,0.35-0.79,0.79l0,0C195.32,85.3,195.68,85.65,196.11,85.65"/>
<path class="st2" d="M188.24,82.41h15.38c0.43,0,0.79-0.35,0.79-0.79l0,0c0-0.43-0.35-0.79-0.79-0.79h-15.38
	c-0.43,0-0.79,0.35-0.79,0.79l0,0C187.45,82.05,187.8,82.41,188.24,82.41"/>
<path class="st2" d="M188.24,78.39h20.26c0.43,0,0.79-0.35,0.79-0.79l0,0c0-0.43-0.35-0.79-0.79-0.79h-20.26
	c-0.43,0-0.79,0.35-0.79,0.79l0,0C187.45,78.04,187.8,78.39,188.24,78.39"/>
<path class="st8" d="M179.87,78.39h0.74c0.43,0,0.79-0.35,0.79-0.79l0,0c0-0.43-0.35-0.79-0.79-0.79h-0.74
	c-0.43,0-0.79,0.35-0.79,0.79l0,0C179.08,78.04,179.44,78.39,179.87,78.39"/>
<path class="st8" d="M179.87,82.41h0.74c0.43,0,0.79-0.35,0.79-0.79l0,0c0-0.43-0.35-0.79-0.79-0.79h-0.74
	c-0.43,0-0.79,0.35-0.79,0.79l0,0C179.08,82.05,179.44,82.41,179.87,82.41"/>
<path class="st8" d="M179.73,96.07h0.64c0.43,0,0.79-0.35,0.79-0.79l0,0c0-0.43-0.35-0.79-0.79-0.79h-0.64
	c-0.43,0-0.79,0.35-0.79,0.79l0,0C178.94,95.72,179.3,96.07,179.73,96.07"/>
<path class="st8" d="M179.78,92.64h0.6c0.43,0,0.79-0.35,0.79-0.79l0,0c0-0.43-0.35-0.79-0.79-0.79h-0.6
	c-0.43,0-0.79,0.35-0.79,0.79l0,0C178.99,92.28,179.34,92.64,179.78,92.64"/>
<path class="st8" d="M179.78,89.21h0.6c0.43,0,0.79-0.35,0.79-0.79l0,0c0-0.43-0.35-0.79-0.79-0.79h-0.6
	c-0.43,0-0.79,0.35-0.79,0.79l0,0C178.99,88.85,179.34,89.21,179.78,89.21"/>
<path class="st8" d="M179.78,85.65h0.6c0.43,0,0.79-0.35,0.79-0.79l0,0c0-0.43-0.35-0.79-0.79-0.79h-0.6
	c-0.43,0-0.79,0.35-0.79,0.79l0,0C178.99,85.3,179.34,85.65,179.78,85.65"/>
<path class="st8" d="M179.82,107.93h0.55c0.43,0,0.79-0.35,0.79-0.79s-0.35-0.79-0.79-0.79h-0.55c-0.43,0-0.79,0.35-0.79,0.79
	C179.03,107.58,179.39,107.93,179.82,107.93"/>
<path class="st8" d="M179.82,104.29h0.55c0.43,0,0.79-0.35,0.79-0.79l0,0c0-0.43-0.35-0.79-0.79-0.79h-0.55
	c-0.43,0-0.79,0.35-0.79,0.79l0,0C179.03,103.94,179.39,104.29,179.82,104.29"/>
<path class="st8" d="M179.83,100.38h0.55c0.43,0,0.79-0.35,0.79-0.79c0-0.43-0.35-0.79-0.79-0.79h-0.55c-0.43,0-0.79,0.35-0.79,0.79
	C179.04,100.03,179.39,100.38,179.83,100.38"/>
<path class="st8" d="M180.06,121.65h0.31c0.43,0,0.79-0.35,0.79-0.79l0,0c0-0.43-0.35-0.79-0.79-0.79h-0.31
	c-0.43,0-0.79,0.35-0.79,0.79l0,0C179.27,121.3,179.63,121.65,180.06,121.65"/>
<path class="st8" d="M179.82,118.22h0.55c0.43,0,0.79-0.35,0.79-0.79s-0.35-0.79-0.79-0.79h-0.55c-0.43,0-0.79,0.35-0.79,0.79
	C179.03,117.87,179.39,118.22,179.82,118.22"/>
<path class="st8" d="M179.87,114.79h0.5c0.43,0,0.79-0.35,0.79-0.79l0,0c0-0.43-0.35-0.79-0.79-0.79h-0.5
	c-0.43,0-0.79,0.35-0.79,0.79l0,0C179.08,114.43,179.44,114.79,179.87,114.79"/>
<path class="st8" d="M179.87,111.36h0.5c0.43,0,0.79-0.35,0.79-0.79l0,0c0-0.43-0.35-0.79-0.79-0.79h-0.5
	c-0.43,0-0.79,0.35-0.79,0.79l0,0C179.08,111,179.44,111.36,179.87,111.36"/>
<path class="st8" d="M180.14,139.99h0.23c0.43,0,0.79-0.35,0.79-0.79l0,0c0-0.43-0.35-0.79-0.79-0.79h-0.23
	c-0.43,0-0.79,0.35-0.79,0.79l0,0C179.35,139.64,179.71,139.99,180.14,139.99"/>
<path class="st8" d="M180.14,136.56h0.23c0.43,0,0.79-0.35,0.79-0.79s-0.35-0.79-0.79-0.79h-0.23c-0.43,0-0.79,0.35-0.79,0.79
	C179.35,136.2,179.71,136.56,180.14,136.56"/>
<path class="st8" d="M180.11,133.13h0.26c0.43,0,0.79-0.35,0.79-0.79l0,0c0-0.43-0.35-0.79-0.79-0.79h-0.26
	c-0.43,0-0.79,0.35-0.79,0.79l0,0C179.32,132.77,179.68,133.13,180.11,133.13"/>
<path class="st8" d="M180.06,129.7h0.31c0.43,0,0.79-0.35,0.79-0.79l0,0c0-0.43-0.35-0.79-0.79-0.79h-0.31
	c-0.43,0-0.79,0.35-0.79,0.79l0,0C179.27,129.34,179.63,129.7,180.06,129.7"/>
<path class="st8" d="M180.06,126.24h0.31c0.43,0,0.79-0.35,0.79-0.79c0-0.43-0.35-0.79-0.79-0.79h-0.31c-0.43,0-0.79,0.35-0.79,0.79
	S179.63,126.24,180.06,126.24"/>
<rect x="141.72" y="63.69" class="st9" width="132.3" height="4.56"/>
<rect x="264.66" y="64.99" class="st2" width="1.39" height="1.39"/>
<rect x="267.11" y="64.99" class="st2" width="1.39" height="1.39"/>
<rect x="269.57" y="64.99" class="st2" width="1.39" height="1.39"/>
<path class="st27" d="M627.85,189.94h-68.37c-4.48,0-8.15,3.67-8.15,8.15v22.4c0,4.48,3.67,8.15,8.15,8.15h9.96v14.77
	c0,3.19,2.32,4.13,4.73,2.39l23.36-16.82c0.16-0.12,0.33-0.24,0.5-0.35h29.82c4.48,0,8.15-3.67,8.15-8.15v-22.4
	C636,193.61,632.33,189.94,627.85,189.94"/>
<path class="st28" d="M622.54,208.93v1.69c0,0.1-0.03,0.2-0.1,0.29c-0.06,0.1-0.14,0.17-0.23,0.22l-6.45,3.04
	c-0.09,0.04-0.17,0.04-0.23,0s-0.1-0.11-0.1-0.21v-2.43c0-0.1,0.03-0.2,0.1-0.29c0.06-0.1,0.14-0.17,0.23-0.22l2.58-1.11
	c0.09-0.04,0.14-0.09,0.14-0.14s-0.05-0.1-0.14-0.15l-2.58-1.12c-0.09-0.04-0.17-0.11-0.23-0.2c-0.06-0.1-0.1-0.19-0.1-0.29v-2.41
	c0-0.1,0.03-0.17,0.1-0.22c0.06-0.05,0.14-0.04,0.23,0.01l6.45,3.03c0.09,0.04,0.17,0.11,0.23,0.21
	C622.51,208.73,622.54,208.83,622.54,208.93 M601.8,211.46c0.54,0.35,1.07,0.63,1.6,0.82c0.53,0.2,1.02,0.3,1.48,0.3
	c0.44,0,0.77-0.06,1.01-0.19c0.23-0.13,0.34-0.31,0.34-0.56c0-0.13-0.05-0.23-0.15-0.31c-0.1-0.08-0.23-0.14-0.4-0.19
	c-0.16-0.05-0.36-0.09-0.58-0.12c-0.22-0.03-0.44-0.07-0.68-0.12c-0.22-0.04-0.48-0.09-0.77-0.14c-0.29-0.05-0.6-0.14-0.91-0.24
	s-0.62-0.24-0.92-0.4c-0.3-0.16-0.58-0.36-0.82-0.62s-0.43-0.55-0.58-0.89s-0.22-0.75-0.22-1.22c0-0.69,0.14-1.26,0.4-1.71
	c0.27-0.45,0.61-0.81,1.03-1.07c0.41-0.26,0.88-0.45,1.39-0.55s1.01-0.16,1.48-0.16c0.84,0,1.59,0.12,2.26,0.37
	c0.67,0.24,1.3,0.6,1.91,1.07c0.08,0.07,0.13,0.15,0.14,0.25s-0.01,0.19-0.08,0.27l-1.17,1.66c-0.06,0.08-0.14,0.13-0.24,0.15
	c-0.1,0.02-0.19,0-0.27-0.06c-0.51-0.32-0.98-0.55-1.42-0.68s-0.84-0.2-1.21-0.2c-0.11,0-0.24,0-0.38,0.01
	c-0.15,0-0.28,0.03-0.41,0.06c-0.13,0.04-0.24,0.09-0.32,0.17c-0.09,0.08-0.13,0.19-0.13,0.33s0.1,0.26,0.31,0.38
	c0.21,0.11,0.45,0.2,0.72,0.29c0.27,0.08,0.53,0.14,0.78,0.19s0.41,0.07,0.48,0.08c0.36,0.07,0.75,0.17,1.18,0.31
	s0.83,0.34,1.21,0.6c0.38,0.26,0.69,0.61,0.94,1.03c0.25,0.43,0.38,0.96,0.38,1.6c0,0.6-0.1,1.12-0.31,1.55
	c-0.21,0.43-0.5,0.79-0.88,1.07c-0.38,0.28-0.82,0.49-1.35,0.62c-0.53,0.14-1.11,0.2-1.75,0.2c-0.52,0-1.01-0.04-1.45-0.13
	c-0.45-0.09-0.87-0.2-1.26-0.35c-0.39-0.15-0.75-0.33-1.09-0.53s-0.64-0.42-0.92-0.65c-0.08-0.06-0.13-0.14-0.14-0.25
	c-0.01-0.1,0.01-0.2,0.08-0.28l1.16-1.66c0.06-0.08,0.14-0.13,0.24-0.15C601.63,211.4,601.72,211.41,601.8,211.46z M591.6,211.46
	c0.54,0.35,1.07,0.63,1.6,0.82c0.53,0.2,1.02,0.3,1.48,0.3c0.44,0,0.77-0.06,1.01-0.19c0.23-0.13,0.34-0.31,0.34-0.56
	c0-0.13-0.05-0.23-0.15-0.31c-0.1-0.08-0.23-0.14-0.4-0.19c-0.16-0.05-0.36-0.09-0.58-0.12c-0.22-0.03-0.44-0.07-0.68-0.12
	c-0.22-0.04-0.48-0.09-0.77-0.14c-0.29-0.05-0.6-0.14-0.91-0.24s-0.62-0.24-0.92-0.4c-0.3-0.16-0.58-0.36-0.82-0.62
	c-0.24-0.25-0.43-0.55-0.58-0.89c-0.14-0.34-0.22-0.75-0.22-1.22c0-0.69,0.14-1.26,0.4-1.71c0.27-0.45,0.61-0.81,1.03-1.07
	c0.41-0.26,0.88-0.45,1.39-0.55s1-0.16,1.48-0.16c0.84,0,1.59,0.12,2.26,0.37c0.67,0.24,1.3,0.6,1.91,1.07
	c0.08,0.07,0.13,0.15,0.14,0.25s-0.01,0.19-0.08,0.27l-1.17,1.66c-0.06,0.08-0.14,0.13-0.24,0.15c-0.1,0.02-0.19,0-0.27-0.06
	c-0.51-0.32-0.98-0.55-1.42-0.68c-0.44-0.14-0.84-0.2-1.21-0.2c-0.11,0-0.24,0-0.38,0.01c-0.15,0-0.28,0.03-0.41,0.06
	c-0.13,0.04-0.24,0.09-0.32,0.17c-0.09,0.08-0.13,0.19-0.13,0.33s0.1,0.26,0.31,0.38s0.45,0.2,0.72,0.29
	c0.27,0.08,0.53,0.14,0.78,0.19s0.41,0.07,0.48,0.08c0.36,0.07,0.75,0.17,1.18,0.31s0.83,0.34,1.21,0.6
	c0.38,0.26,0.69,0.61,0.94,1.03c0.25,0.43,0.38,0.96,0.38,1.6c0,0.6-0.1,1.12-0.31,1.55s-0.5,0.79-0.88,1.07
	c-0.38,0.28-0.82,0.49-1.35,0.62c-0.53,0.14-1.11,0.2-1.75,0.2c-0.52,0-1-0.04-1.45-0.13c-0.45-0.09-0.87-0.2-1.26-0.35
	c-0.39-0.15-0.75-0.33-1.09-0.53s-0.64-0.42-0.92-0.65c-0.08-0.06-0.13-0.14-0.14-0.25c-0.01-0.1,0.01-0.2,0.08-0.28l1.16-1.66
	c0.06-0.08,0.14-0.13,0.24-0.15C591.43,211.4,591.52,211.41,591.6,211.46z M589.23,212.32c-0.29,0.47-0.61,0.89-0.96,1.28
	c-0.35,0.38-0.74,0.71-1.18,0.98c-0.44,0.27-0.92,0.48-1.45,0.63c-0.53,0.15-1.11,0.23-1.75,0.23c-0.8,0-1.55-0.15-2.25-0.45
	s-1.31-0.7-1.84-1.21s-0.94-1.11-1.24-1.8s-0.45-1.42-0.45-2.2s0.15-1.51,0.45-2.2s0.71-1.29,1.24-1.8
	c0.53-0.51,1.14-0.92,1.84-1.21c0.7-0.3,1.45-0.45,2.25-0.45c0.66,0,1.26,0.08,1.78,0.23c0.53,0.15,1.01,0.36,1.44,0.63
	s0.82,0.6,1.16,0.98c0.34,0.39,0.66,0.81,0.95,1.27c0.05,0.08,0.06,0.16,0.03,0.25c-0.03,0.09-0.09,0.15-0.18,0.19l-2.13,0.84
	c-0.1,0.04-0.2,0.04-0.3,0s-0.18-0.1-0.23-0.18c-0.29-0.46-0.64-0.81-1.05-1.06c-0.41-0.24-0.9-0.37-1.48-0.37
	c-0.38,0-0.74,0.08-1.07,0.24c-0.34,0.16-0.63,0.38-0.88,0.64s-0.44,0.57-0.58,0.92c-0.14,0.35-0.21,0.71-0.21,1.08
	c0,0.38,0.07,0.74,0.21,1.09c0.14,0.34,0.34,0.65,0.58,0.91c0.25,0.26,0.54,0.47,0.88,0.63s0.69,0.24,1.07,0.24
	c0.55,0,1.05-0.13,1.49-0.4c0.44-0.26,0.8-0.61,1.06-1.03c0.05-0.08,0.12-0.14,0.22-0.18s0.19-0.04,0.29,0l2.13,0.84
	c0.09,0.04,0.15,0.1,0.18,0.19C589.29,212.14,589.28,212.23,589.23,212.32z M571.89,205.6v2.41c0,0.1-0.03,0.2-0.1,0.29
	c-0.06,0.1-0.14,0.16-0.23,0.2l-2.59,1.12c-0.1,0.05-0.15,0.1-0.15,0.15c0,0.05,0.05,0.1,0.15,0.14l2.58,1.11
	c0.1,0.05,0.18,0.12,0.25,0.22c0.06,0.1,0.1,0.19,0.1,0.29v2.43c0,0.1-0.03,0.17-0.1,0.21c-0.06,0.04-0.14,0.04-0.23,0l-6.46-3.04
	c-0.09-0.05-0.16-0.12-0.23-0.22c-0.06-0.1-0.09-0.19-0.09-0.29v-1.69c0-0.1,0.03-0.2,0.09-0.3s0.14-0.17,0.23-0.21l6.46-3.03
	c0.09-0.05,0.17-0.05,0.23-0.01C571.86,205.43,571.89,205.5,571.89,205.6z"/>
<path class="st9" d="M605.92,124.36c11.04,0,19.99,8.95,19.99,19.99c0,11.04-8.95,19.99-19.99,19.99s-19.99-8.95-19.99-19.99
	S594.88,124.36,605.92,124.36"/>
<path class="st28" d="M601.66,151.34l6.24-13.62c0.05-0.09,0.12-0.16,0.22-0.23c0.1-0.06,0.19-0.09,0.29-0.09h2.23
	c0.1,0,0.17,0.03,0.22,0.09s0.04,0.14-0.01,0.23l-6.24,13.62c-0.04,0.09-0.11,0.17-0.21,0.23c-0.1,0.06-0.2,0.1-0.3,0.1h-2.23
	c-0.1,0-0.17-0.03-0.21-0.1C601.62,151.51,601.62,151.43,601.66,151.34 M618.1,143.49v1.7c0,0.1-0.03,0.2-0.1,0.29
	c-0.06,0.1-0.14,0.17-0.23,0.22l-6.47,3.05c-0.09,0.04-0.17,0.04-0.23,0s-0.1-0.11-0.1-0.21v-2.44c0-0.1,0.03-0.2,0.1-0.29
	c0.06-0.1,0.14-0.17,0.23-0.22l2.59-1.11c0.09-0.04,0.14-0.09,0.14-0.14s-0.05-0.1-0.14-0.15l-2.59-1.13
	c-0.09-0.04-0.17-0.11-0.23-0.2c-0.06-0.1-0.1-0.19-0.1-0.29v-2.42c0-0.1,0.03-0.17,0.1-0.22s0.14-0.04,0.23,0.01l6.47,3.04
	c0.09,0.04,0.17,0.11,0.23,0.21C618.06,143.29,618.1,143.39,618.1,143.49z M601.24,140.15v2.42c0,0.1-0.03,0.2-0.1,0.29
	c-0.06,0.1-0.14,0.16-0.23,0.2l-2.6,1.13c-0.1,0.05-0.15,0.1-0.15,0.15s0.05,0.1,0.15,0.14l2.59,1.11c0.1,0.05,0.18,0.12,0.25,0.22
	c0.06,0.1,0.1,0.19,0.1,0.29v2.44c0,0.1-0.03,0.17-0.1,0.21s-0.14,0.04-0.23,0l-6.49-3.05c-0.09-0.05-0.16-0.12-0.23-0.22
	c-0.06-0.1-0.09-0.19-0.09-0.29v-1.7c0-0.1,0.03-0.2,0.09-0.3s0.14-0.17,0.23-0.21l6.49-3.04c0.09-0.05,0.17-0.05,0.23-0.01
	C601.21,139.97,601.24,140.05,601.24,140.15z"/>
<path class="st27" d="M23.17,167.35h90.06c5.9,0,10.74,4.83,10.74,10.74v29.5c0,5.9-4.83,10.74-10.74,10.74h-13.12v19.46
	c0,4.2-3.05,5.44-6.23,3.15L63.1,218.78c-0.22-0.16-0.43-0.32-0.65-0.46H23.17c-5.9,0-10.74-4.83-10.74-10.74v-29.5
	C12.43,172.18,17.27,167.35,23.17,167.35"/>
<path class="st28" d="M105.52,192.05v1.77c0,0.1-0.03,0.21-0.1,0.3c-0.07,0.1-0.15,0.18-0.24,0.23l-6.73,3.18
	c-0.09,0.04-0.18,0.04-0.24,0c-0.07-0.04-0.1-0.11-0.1-0.22v-2.53c0-0.1,0.03-0.21,0.1-0.3c0.07-0.1,0.15-0.18,0.24-0.23l2.69-1.16
	c0.09-0.04,0.14-0.09,0.14-0.14s-0.05-0.1-0.14-0.16l-2.69-1.17c-0.09-0.04-0.18-0.11-0.24-0.21c-0.07-0.1-0.1-0.2-0.1-0.3v-2.52
	c0-0.1,0.03-0.18,0.1-0.23s0.15-0.04,0.24,0.01l6.73,3.16c0.09,0.04,0.18,0.11,0.24,0.22C105.48,191.84,105.52,191.94,105.52,192.05
	 M92.12,196.12v2.13c0,0.1-0.04,0.19-0.11,0.27c-0.07,0.07-0.16,0.11-0.27,0.11h-7.81c-0.11,0-0.21-0.04-0.27-0.11
	c-0.07-0.07-0.1-0.16-0.1-0.27v-10.7c0-0.1,0.03-0.19,0.1-0.27c0.07-0.07,0.16-0.11,0.27-0.11h2.35c0.1,0,0.19,0.04,0.27,0.11
	c0.07,0.07,0.11,0.16,0.11,0.27v7.82c0,0.1,0.03,0.19,0.1,0.27c0.07,0.07,0.16,0.11,0.27,0.11h4.71c0.1,0,0.19,0.04,0.27,0.11
	C92.09,195.92,92.12,196.01,92.12,196.12z M81.1,187.56v10.68c0,0.1-0.04,0.19-0.11,0.27c-0.07,0.07-0.16,0.11-0.26,0.11h-2.35
	c-0.1,0-0.19-0.04-0.26-0.11s-0.11-0.16-0.11-0.27v-5.04c0-0.1-0.05-0.16-0.14-0.17s-0.17,0.03-0.24,0.11l-2.64,4.24
	c-0.05,0.08-0.14,0.13-0.25,0.13s-0.2-0.04-0.27-0.13l-2.64-4.24c-0.05-0.08-0.13-0.12-0.22-0.11c-0.09,0.01-0.14,0.07-0.14,0.17
	v5.04c0,0.1-0.04,0.19-0.11,0.27c-0.07,0.07-0.16,0.11-0.26,0.11h-2.35c-0.1,0-0.19-0.04-0.26-0.11s-0.11-0.16-0.11-0.27v-10.68
	c0-0.1,0.04-0.19,0.11-0.27c0.07-0.07,0.16-0.11,0.26-0.11h2.18c0.1,0,0.21,0.03,0.33,0.09c0.11,0.06,0.2,0.14,0.25,0.22l3.01,4.41
	c0.06,0.08,0.14,0.13,0.22,0.13s0.15-0.04,0.2-0.13l3.01-4.41c0.06-0.08,0.15-0.16,0.26-0.22s0.23-0.09,0.33-0.09h2.18
	c0.1,0,0.19,0.04,0.26,0.11C81.06,187.37,81.1,187.45,81.1,187.56z M66.75,190.05h-2.19c-0.1,0-0.19,0.04-0.27,0.11
	c-0.07,0.07-0.11,0.16-0.11,0.27v7.82c0,0.1-0.03,0.19-0.1,0.27c-0.07,0.07-0.16,0.11-0.27,0.11h-2.35c-0.1,0-0.19-0.04-0.27-0.11
	c-0.07-0.07-0.11-0.16-0.11-0.27v-7.82c0-0.1-0.03-0.19-0.1-0.27c-0.07-0.07-0.16-0.11-0.27-0.11h-2.22c-0.1,0-0.19-0.04-0.27-0.11
	c-0.07-0.07-0.11-0.16-0.11-0.27v-2.13c0-0.1,0.04-0.19,0.11-0.27s0.16-0.11,0.27-0.11h8.26c0.11,0,0.21,0.04,0.27,0.11
	c0.07,0.07,0.1,0.16,0.1,0.27v2.13c0,0.1-0.03,0.19-0.1,0.27C66.96,190.01,66.87,190.05,66.75,190.05z M56.66,187.54v10.7
	c0,0.1-0.04,0.19-0.11,0.27c-0.07,0.07-0.16,0.11-0.27,0.11h-2.35c-0.11,0-0.21-0.04-0.27-0.11c-0.07-0.07-0.1-0.16-0.1-0.27v-3.35
	c0-0.1-0.04-0.19-0.11-0.27c-0.07-0.07-0.16-0.11-0.26-0.11h-3.21c-0.11,0-0.2,0.04-0.27,0.11s-0.1,0.16-0.1,0.27v3.35
	c0,0.1-0.04,0.19-0.11,0.27c-0.07,0.07-0.16,0.11-0.27,0.11h-2.34c-0.11,0-0.21-0.04-0.28-0.11s-0.1-0.16-0.1-0.27v-10.7
	c0-0.1,0.03-0.19,0.1-0.27c0.07-0.07,0.16-0.11,0.28-0.11h2.34c0.1,0,0.2,0.04,0.27,0.11s0.11,0.16,0.11,0.27v3.69
	c0,0.1,0.03,0.19,0.1,0.27c0.07,0.07,0.16,0.11,0.27,0.11h3.21c0.1,0,0.19-0.04,0.26-0.11s0.11-0.16,0.11-0.27v-3.69
	c0-0.1,0.03-0.19,0.1-0.27c0.07-0.07,0.16-0.11,0.27-0.11h2.35c0.1,0,0.19,0.04,0.27,0.11C56.62,187.35,56.66,187.44,56.66,187.54z
	 M39.42,188.58v2.52c0,0.1-0.03,0.21-0.1,0.3c-0.07,0.1-0.15,0.17-0.24,0.21l-2.71,1.17c-0.1,0.05-0.16,0.1-0.16,0.16
	s0.05,0.1,0.16,0.14l2.69,1.16c0.1,0.05,0.19,0.13,0.26,0.23c0.07,0.1,0.1,0.2,0.1,0.3v2.53c0,0.1-0.03,0.18-0.1,0.22
	s-0.15,0.04-0.24,0l-6.74-3.18c-0.09-0.05-0.17-0.13-0.24-0.23c-0.06-0.1-0.09-0.2-0.09-0.3v-1.77c0-0.1,0.03-0.21,0.09-0.31
	c0.06-0.1,0.14-0.18,0.24-0.22l6.74-3.16c0.09-0.05,0.18-0.05,0.24-0.01C39.39,188.39,39.42,188.47,39.42,188.58z"/>
<path class="st9" d="M92.99,103.33c11.04,0,19.99,8.95,19.99,19.99s-8.95,19.99-19.99,19.99S73,134.36,73,123.32
	S81.95,103.33,92.99,103.33"/>
<path class="st28" d="M88.74,130.32l6.24-13.62c0.05-0.09,0.12-0.16,0.22-0.23c0.1-0.06,0.19-0.09,0.29-0.09h2.23
	c0.1,0,0.17,0.03,0.22,0.09s0.04,0.14-0.01,0.23l-6.24,13.62c-0.04,0.09-0.11,0.17-0.21,0.23s-0.2,0.1-0.3,0.1h-2.23
	c-0.1,0-0.17-0.03-0.21-0.1S88.7,130.41,88.74,130.32 M105.17,122.46v1.7c0,0.1-0.03,0.2-0.1,0.29s-0.14,0.17-0.23,0.22l-6.47,3.05
	c-0.09,0.04-0.17,0.04-0.23,0c-0.06-0.04-0.1-0.11-0.1-0.21v-2.44c0-0.1,0.03-0.2,0.1-0.29c0.06-0.1,0.14-0.17,0.23-0.22l2.59-1.11
	c0.09-0.04,0.14-0.09,0.14-0.14s-0.05-0.1-0.14-0.15l-2.59-1.13c-0.09-0.04-0.17-0.11-0.23-0.2c-0.06-0.1-0.1-0.19-0.1-0.29v-2.42
	c0-0.1,0.03-0.17,0.1-0.22c0.06-0.05,0.14-0.04,0.23,0.01l6.47,3.04c0.09,0.04,0.17,0.11,0.23,0.21
	C105.14,122.26,105.17,122.36,105.17,122.46z M88.32,119.12v2.42c0,0.1-0.03,0.2-0.1,0.29s-0.14,0.16-0.23,0.2l-2.6,1.13
	c-0.1,0.05-0.15,0.1-0.15,0.15s0.05,0.1,0.15,0.14l2.59,1.11c0.1,0.05,0.18,0.12,0.25,0.22c0.06,0.1,0.1,0.19,0.1,0.29v2.44
	c0,0.1-0.03,0.17-0.1,0.21c-0.06,0.04-0.14,0.04-0.23,0l-6.49-3.05c-0.09-0.05-0.16-0.12-0.23-0.22c-0.06-0.1-0.09-0.19-0.09-0.29
	v-1.7c0-0.1,0.03-0.2,0.09-0.3s0.14-0.17,0.23-0.21l6.49-3.04c0.09-0.05,0.17-0.05,0.23-0.01
	C88.28,118.95,88.32,119.02,88.32,119.12z"/>
<path class="st27" d="M394.79,30.23h-72.11c-4.73,0-8.6,3.87-8.6,8.6v23.62c0,4.73,3.87,8.6,8.6,8.6h10.51v8.55
	c0,3.36,2.11,3.77,4.99,2.52l24.64-10.71c0.2-0.09,0.35-0.25,0.52-0.37h31.45c4.73,0,8.6-3.87,8.6-8.6V38.83
	C403.39,34.1,399.52,30.23,394.79,30.23"/>
<g>
	<path class="st28" d="M351.73,54.43c-0.38,0.61-0.8,1.17-1.25,1.67c-0.46,0.5-0.97,0.93-1.54,1.28s-1.2,0.62-1.89,0.82
		c-0.69,0.19-1.46,0.29-2.29,0.29c-1.04,0-2.02-0.2-2.94-0.59c-0.91-0.39-1.71-0.92-2.4-1.59c-0.69-0.67-1.22-1.45-1.62-2.35
		c-0.39-0.9-0.59-1.86-0.59-2.88s0.2-1.98,0.59-2.88c0.39-0.9,0.93-1.68,1.62-2.35s1.48-1.19,2.4-1.59
		c0.91-0.39,1.89-0.59,2.94-0.59c0.86,0,1.64,0.1,2.33,0.29c0.69,0.2,1.32,0.47,1.88,0.82s1.07,0.78,1.52,1.28
		c0.45,0.5,0.87,1.06,1.24,1.65c0.06,0.1,0.08,0.21,0.04,0.33c-0.04,0.12-0.12,0.2-0.24,0.25l-2.78,1.1c-0.13,0.05-0.26,0.05-0.39,0
		s-0.23-0.13-0.29-0.24c-0.38-0.6-0.84-1.06-1.37-1.38c-0.54-0.32-1.18-0.48-1.94-0.48c-0.5,0-0.96,0.1-1.4,0.31
		c-0.44,0.21-0.82,0.49-1.14,0.83c-0.33,0.35-0.58,0.75-0.76,1.21c-0.18,0.46-0.27,0.93-0.27,1.41c0,0.5,0.09,0.97,0.27,1.42
		c0.18,0.45,0.44,0.85,0.76,1.19c0.33,0.34,0.71,0.62,1.14,0.82c0.44,0.21,0.9,0.31,1.4,0.31c0.72,0,1.37-0.17,1.95-0.52
		c0.58-0.35,1.04-0.79,1.38-1.34c0.06-0.1,0.16-0.18,0.28-0.24c0.12-0.05,0.25-0.05,0.38,0l2.78,1.1c0.12,0.05,0.2,0.13,0.24,0.24
		C351.81,54.2,351.79,54.31,351.73,54.43z"/>
</g>
<g>
	<path class="st28" d="M364.82,52.7h-2.31c-0.13,0-0.24,0.04-0.33,0.13s-0.14,0.2-0.14,0.34v2.35c0,0.13-0.04,0.24-0.13,0.33
		s-0.2,0.14-0.34,0.14h-2.76c-0.13,0-0.24-0.05-0.33-0.14s-0.14-0.2-0.14-0.33v-2.35c0-0.14-0.04-0.26-0.13-0.34
		c-0.09-0.09-0.2-0.13-0.34-0.13h-2.29c-0.14,0-0.26-0.05-0.35-0.14s-0.14-0.2-0.14-0.33v-2.64c0-0.14,0.05-0.26,0.14-0.34
		c0.09-0.09,0.21-0.13,0.35-0.13h2.29c0.14,0,0.26-0.05,0.34-0.14c0.09-0.09,0.13-0.2,0.13-0.33v-2.37c0-0.14,0.05-0.26,0.14-0.34
		c0.09-0.09,0.2-0.13,0.33-0.13h2.76c0.14,0,0.26,0.04,0.34,0.13c0.09,0.09,0.13,0.2,0.13,0.34v2.37c0,0.13,0.05,0.24,0.14,0.33
		c0.09,0.09,0.2,0.14,0.33,0.14h2.31c0.14,0,0.26,0.04,0.34,0.13c0.09,0.09,0.13,0.2,0.13,0.34v2.64c0,0.13-0.04,0.24-0.13,0.33
		C365.07,52.66,364.96,52.7,364.82,52.7z"/>
</g>
<g>
	<path class="st28" d="M378.51,52.7h-2.31c-0.13,0-0.24,0.04-0.33,0.13s-0.14,0.2-0.14,0.34v2.35c0,0.13-0.04,0.24-0.13,0.33
		s-0.2,0.14-0.34,0.14h-2.76c-0.13,0-0.24-0.05-0.33-0.14s-0.14-0.2-0.14-0.33v-2.35c0-0.14-0.04-0.26-0.13-0.34
		c-0.09-0.09-0.2-0.13-0.34-0.13h-2.29c-0.14,0-0.26-0.05-0.35-0.14s-0.14-0.2-0.14-0.33v-2.64c0-0.14,0.05-0.26,0.14-0.34
		c0.09-0.09,0.21-0.13,0.35-0.13h2.29c0.14,0,0.26-0.05,0.34-0.14c0.09-0.09,0.13-0.2,0.13-0.33v-2.37c0-0.14,0.05-0.26,0.14-0.34
		c0.09-0.09,0.2-0.13,0.33-0.13h2.76c0.14,0,0.26,0.04,0.34,0.13c0.09,0.09,0.13,0.2,0.13,0.34v2.37c0,0.13,0.05,0.24,0.14,0.33
		c0.09,0.09,0.2,0.14,0.33,0.14h2.31c0.14,0,0.26,0.04,0.34,0.13c0.09,0.09,0.13,0.2,0.13,0.34v2.64c0,0.13-0.04,0.24-0.13,0.33
		C378.77,52.66,378.65,52.7,378.51,52.7z"/>
</g>
</svg>
