<?xml version="1.0" encoding="utf-8"?>
<!-- Generator: Adobe Illustrator 23.0.1, SVG Export Plug-In . SVG Version: 6.00 Build 0)  -->
<svg version="1.1" id="Layer_1" xmlns="http://www.w3.org/2000/svg" xmlns:xlink="http://www.w3.org/1999/xlink" x="0px" y="0px"
	 viewBox="0 0 650 500" style="enable-background:new 0 0 650 500;" xml:space="preserve">
<style type="text/css">
	.st0{opacity:0.15;fill:#C3DCF4;}
	.st1{opacity:0.2;}
	.st2{fill:#B5D5EA;}
	.st3{fill:#EF4036;}
	.st4{fill:#FFFFFF;}
	.st5{fill:#6D2011;}
	.st6{fill:#F2BEB7;}
	.st7{fill:#384C6B;}
	.st8{fill:#C3DCF4;}
	.st9{fill:#1F293D;}
	.st10{fill:#EB594C;}
	.st11{fill:#EDA8A2;}
	.st12{fill:#C61717;}
	.st13{fill:#30545D;}
	.st14{opacity:0.15;fill:#1F293D;}
	.st15{fill:#4A190C;}
</style>
<path class="st0" d="M269.8,135.25l10.42-1.17c0.87-0.09,1.71,0.32,2.19,1.05c0.6,0.93,1.25,1.85,1.94,2.75
	c1.28,1.67,2.65,3.21,4.13,4.6c0.69,0.66,0.92,1.65,0.57,2.52l-3.99,10.2c-0.44,1.09,0.04,2.33,1.11,2.85l8.97,4.45
	c1.02,0.5,2.24,0.15,2.85-0.79l5.42-8.5c0.51-0.84,1.52-1.23,2.5-0.97c4.12,1.09,8.41,1.52,12.7,1.27c1.03-0.06,2,0.61,2.31,1.6
	l1.84,5.85c0.36,1.11,1.49,1.8,2.65,1.57l9.75-1.97c0.2-0.04,0.39-0.1,0.56-0.19c0.84-0.4,1.37-1.32,1.25-2.28l-0.87-7.78l-0.21-1.9
	c1.62-0.91,3.21-1.96,4.73-3.12c2.04-1.57,3.9-3.29,5.55-5.13c0.63-0.7,1.62-0.95,2.5-0.6l8.21,3.23c1.13,0.43,2.4-0.05,2.92-1.13
	l3.4-6.86l0.97-1.97c0.53-1.07,0.18-2.38-0.83-3.02l-7.11-4.53c-0.83-0.52-1.24-1.5-1-2.43c0.66-2.8,1.03-5.66,1.08-8.53
	c0.03-0.25,0.02-0.48,0.02-0.72c0-0.08,0-0.16,0.01-0.24c0.09-0.92,0.73-1.68,1.61-1.96l9.5-3.01c0.11-0.03,0.21-0.08,0.31-0.12
	c0.92-0.45,1.45-1.49,1.25-2.52l-1.95-9.72c-0.24-1.17-1.32-1.97-2.52-1.84l-10.86,1.23c-0.92,0.11-1.8-0.36-2.24-1.18
	c-0.98-1.78-2.11-3.53-3.4-5.2c-0.68-0.89-1.39-1.74-2.13-2.56c-0.6-0.67-0.77-1.61-0.45-2.44l3.83-9.8
	c0.43-1.08-0.04-2.31-1.09-2.83l-8.88-4.38c-1.07-0.53-2.37-0.18-3.03,0.84l-4.29,6.72c-0.57,0.9-1.68,1.29-2.69,0.95
	c-3.95-1.37-8.08-2.1-12.26-2.2c-0.99-0.01-1.86-0.66-2.16-1.62l-2.7-8.56c-0.36-1.15-1.53-1.83-2.72-1.6l-9.68,1.94
	c-1.16,0.23-1.95,1.32-1.81,2.48l0.04,0.46l1.01,9.04c0.11,0.97-0.39,1.88-1.25,2.33l-0.01,0.01c-2.08,1.07-4.09,2.34-6.01,3.82
	c-1.03,0.79-1.99,1.61-2.93,2.48c-0.64,0.61-1.57,0.79-2.4,0.47l-8.34-3.28c-1.14-0.45-2.44,0.06-2.97,1.14l-4.37,8.84
	c-0.12,0.25-0.19,0.52-0.22,0.78c-0.09,0.85,0.31,1.71,1.05,2.19l5.68,3.61c0.69,0.45,1.09,1.24,1.06,2.04
	c-0.01,0.21-0.05,0.43-0.12,0.64c-1.73,5.08-2.42,10.43-2.05,15.78c0.08,0.91-0.43,1.76-1.21,2.17c-0.11,0.06-0.24,0.11-0.36,0.15
	l-7.69,2.43c-1.12,0.35-1.78,1.49-1.56,2.64l0.04,0.22l1.89,9.47C267.49,134.59,268.6,135.39,269.8,135.25z M336.43,105.68
	c0.6,1.49,1.08,3.1,1.41,4.81c0.64,3.27-0.03,8.44-1.51,11.43c-0.16,0.32-0.32,0.63-0.48,0.95c-10.19,18.92-36.9,15.16-41.3-6.19
	c-0.57-2.79-0.21-6.85,0.78-9.97c0.24-0.72,0.5-1.39,0.8-1.97c1.36-2.72,3.05-4.99,4.97-6.84
	C312.07,87.37,330.4,90.82,336.43,105.68z"/>
<path class="st0" d="M600.48,98.78c-10-20.15-44.61-6.36-44.61-6.36s-17,42.12-23.92,44.41c-6.92,2.3,7.5-38.85,7.5-38.85
	c-14.02,1.4-45.72,25.22-45.72,25.22s10.86,43.04,3.58,43.56s-7.67-38.6-7.67-38.6c-12.52,6.64-21.85,24.63-21.85,24.63
	c-10.5,28.37,26.47,40.4,26.47,40.4s3.44,15-2.44,34.15l0,0c0,0-1.47,3.61-2.53,9.47l3.63-0.72c0.1-1.03,0.24-2.04,0.43-3.01
	c0-0.01,0-0.01,0-0.02c0-0.01,0-0.03,0.01-0.04c0.14-0.61,0.33-1.48,0.59-2.54v0c0,0,0,0,0,0c0.68-2.39,1.11-4.14,1.35-5.4
	c0,0,0-0.01,0-0.01c1.97-7.47,4.99-17.3,7.81-19.8c0,0-0.52-0.49-1.11-1.51c0.35,0.48,0.72,0.98,1.11,1.51
	c8.85,12.07,40.35,8.13,56.95,1.14c16.6-6.99,8.09-10.37-2.8-16.44c-10.89-6.07-30-0.1-36.38-2.06c-6.39-1.96,1.43-6.74,13.14-8.14
	c11.71-1.41,19.77,8.98,38.76,7.06c18.99-1.93,26.22-39.8,26.22-39.8c-12.07,6.55-36.55,4.03-38.32-0.23
	c-1.77-4.26,32.48-10.6,37.54-12.99C603.28,131.43,610.48,118.93,600.48,98.78z"/>
<path class="st0" d="M29.34,253.66c-4.07-22.12,31.91-31.82,31.91-31.82s38.85,23.53,45.76,21.22c6.92-2.31-29.28-26.6-29.28-26.6
	c12.06-7.28,51.71-7.2,51.71-7.2s17.1,40.96,23.24,37.02c6.14-3.94-16.99-35.5-16.99-35.5c14-2.19,32.26,6.62,32.26,6.62
	c25.41,16.42,3.01,48.2,3.01,48.2s6.23,14.07,22.42,25.88l0,0c0,0,3.34,2.01,7.7,6.07l-3.34,1.6c-0.7-0.77-1.42-1.49-2.15-2.16
	c0-0.01-0.01-0.01-0.01-0.01c-0.01-0.01-0.02-0.02-0.03-0.03c-0.47-0.4-1.16-0.98-1.99-1.68c0,0,0,0,0,0c0,0,0,0,0,0
	c-1.98-1.51-3.37-2.65-4.31-3.51c0,0-0.01,0-0.01-0.01c-6.05-4.8-14.36-10.86-18.11-11.17c0,0,0.12-0.7-0.02-1.87
	c0.01,0.6,0.01,1.22,0.02,1.87c0.15,14.97-27.44,30.69-44.91,35.04c-17.47,4.35-12.69-3.46-7.6-14.84
	c5.08-11.39,23.95-18.06,27.89-23.45c3.94-5.4-5.18-4.54-15.4,1.35c-10.22,5.89-10.44,19.04-26.8,28.88
	c-16.36,9.83-44.84-16.15-44.84-16.15c13.59-1.99,31.68-18.67,30.55-23.15c-1.14-4.47-32.36,10.97-37.84,12.09
	C46.67,281.47,33.41,275.78,29.34,253.66z"/>
<path class="st0" d="M621.82,395.65c17.71-13.88-2.82-44.98-2.82-44.98s-44.69-8.1-48.34-14.42c-3.65-6.31,39.56-0.53,39.56-0.53
	c-4.21-13.44-33.97-39.65-33.97-39.65s-39.94,19.36-41.93,12.34c-1.99-7.02,36.24-15.34,36.24-15.34
	c-9.04-10.91-28.56-16.41-28.56-16.41c-29.91-4.53-34.19,34.12-34.19,34.12s-13.99,6.41-33.94,4.54l0,0c0,0-3.83-0.71-9.78-0.56
	l1.44,3.41c1.03-0.11,2.04-0.18,3.04-0.2c0.01,0,0.01,0,0.02,0c0.01,0,0.03,0,0.04,0c0.63,0.01,1.52,0.03,2.61,0.06h0c0,0,0,0,0,0
	c2.48,0.18,4.28,0.25,5.56,0.23c0,0,0.01,0,0.01,0c7.72,0.41,17.95,1.38,20.97,3.64c0,0,0.37-0.6,1.25-1.39
	c-0.4,0.44-0.82,0.91-1.25,1.39c-10.03,11.12,0.23,41.16,10.43,56c10.21,14.84,11.79,5.81,15.53-6.08s-5.98-29.39-5.36-36.04
	c0.63-6.65,6.89,0.03,10.64,11.21c3.75,11.18-4.79,21.18,0.95,39.38c5.74,18.2,44.29,17.61,44.29,17.61
	c-8.86-10.49-11.36-34.98-7.55-37.57c3.81-2.59,16.97,29.66,20.34,34.13C590.42,405.01,604.12,409.53,621.82,395.65z"/>
<g class="st1">
	<path class="st0" d="M461.09,135.21c0,0,2.08-41.45,21.45-67.43c2.58-3.45,8.07-1.75,8.28,2.55c0,0.07,0.01,0.14,0.01,0.22
		C491.07,77.91,469.62,110.46,461.09,135.21z"/>
	<path class="st0" d="M459.35,147.16c0,0,17.45-52.83,51.74-78.03c2.09-1.54,5.09-1.24,6.7,0.79c1.05,1.32,1.63,3.46,0.79,6.93
		C516.35,86.09,478.45,119.27,459.35,147.16z"/>
</g>
<g class="st1">
	<path class="st0" d="M162.51,202.54c0,0-17.39-30.34-41.87-42.45c-3.25-1.61-6.73,1.77-5.24,5.08c0.03,0.06,0.05,0.11,0.08,0.17
		C118.1,170.95,146.65,187.21,162.51,202.54z"/>
	<path class="st0" d="M168.38,210.84c0,0-33.29-33.01-68.67-38.84c-2.16-0.36-4.29,1.01-4.73,3.16c-0.28,1.39,0.1,3.22,2.05,5.51
		C102.25,186.75,143.38,197.19,168.38,210.84z"/>
</g>
<path class="st2" d="M546.56,136.96v263.16c0,4.6-3.32,8.34-7.42,8.34H159.45c-4.1,0-7.42-3.74-7.42-8.34V136.96
	c0-4.61,3.32-8.34,7.42-8.34h379.68C543.23,128.62,546.56,132.35,546.56,136.96z"/>
<g>
	<path class="st3" d="M527.79,121.94v21.34H104.06v-21.34c0-4.41,3.57-7.97,7.97-7.97h407.79
		C524.22,113.97,527.79,117.53,527.79,121.94z"/>
	<g>
		<path class="st4" d="M117.02,128.62c0-2.05,1.66-3.71,3.71-3.71s3.71,1.66,3.71,3.71s-1.66,3.71-3.71,3.71
			C118.68,132.33,117.02,130.67,117.02,128.62z"/>
		<path class="st4" d="M131.65,128.62c0-2.05,1.66-3.71,3.71-3.71c2.05,0,3.71,1.66,3.71,3.71s-1.66,3.71-3.71,3.71
			C133.31,132.33,131.65,130.67,131.65,128.62z"/>
		<path class="st4" d="M146.64,128.62c0-2.05,1.66-3.71,3.71-3.71s3.71,1.66,3.71,3.71s-1.66,3.71-3.71,3.71
			S146.64,130.67,146.64,128.62z"/>
	</g>
</g>
<path class="st0" d="M378.57,90.98l5.07-0.57c0.42-0.04,0.84,0.15,1.06,0.51c0.29,0.46,0.61,0.9,0.94,1.34
	c0.63,0.81,1.29,1.56,2.01,2.24c0.33,0.32,0.45,0.8,0.28,1.23l-1.95,4.97c-0.21,0.53,0.02,1.13,0.54,1.39l4.37,2.16
	c0.5,0.24,1.09,0.08,1.39-0.39l2.64-4.14c0.25-0.41,0.74-0.6,1.22-0.47c2.01,0.53,4.1,0.74,6.19,0.61c0.5-0.03,0.97,0.3,1.13,0.78
	l0.89,2.85c0.18,0.54,0.73,0.88,1.29,0.77l4.74-0.96c0.1-0.02,0.19-0.05,0.27-0.09c0.41-0.2,0.67-0.64,0.61-1.11l-0.42-3.79
	l-0.1-0.92c0.79-0.45,1.56-0.95,2.3-1.52c0.99-0.76,1.9-1.6,2.7-2.5c0.31-0.34,0.79-0.46,1.21-0.29l4,1.57
	c0.55,0.21,1.17-0.03,1.42-0.55l1.66-3.34l0.47-0.96c0.26-0.52,0.08-1.16-0.4-1.47l-3.46-2.21c-0.4-0.25-0.6-0.73-0.49-1.19
	c0.32-1.36,0.5-2.76,0.53-4.15c0.01-0.12,0.01-0.23,0.01-0.35c0-0.04,0-0.08,0.01-0.12c0.04-0.45,0.35-0.82,0.78-0.95l4.63-1.46
	c0.06-0.01,0.1-0.04,0.15-0.06c0.45-0.22,0.71-0.73,0.61-1.23l-0.95-4.73c-0.11-0.57-0.64-0.96-1.23-0.9l-5.29,0.6
	c-0.45,0.06-0.88-0.18-1.09-0.57c-0.48-0.87-1.03-1.72-1.66-2.53c-0.33-0.43-0.68-0.85-1.04-1.24c-0.29-0.32-0.38-0.78-0.22-1.19
	l1.87-4.77c0.21-0.53-0.02-1.13-0.53-1.38l-4.33-2.13c-0.52-0.26-1.16-0.09-1.48,0.41l-2.09,3.28c-0.28,0.44-0.82,0.63-1.31,0.46
	c-1.92-0.67-3.94-1.02-5.97-1.07c-0.48,0-0.91-0.32-1.05-0.79l-1.32-4.17c-0.18-0.56-0.75-0.89-1.32-0.78l-4.71,0.94
	c-0.57,0.11-0.95,0.64-0.88,1.21l0.02,0.22l0.49,4.4c0.05,0.47-0.19,0.92-0.61,1.13l0,0c-1.01,0.52-1.99,1.14-2.93,1.86
	c-0.5,0.38-0.97,0.79-1.42,1.21c-0.31,0.3-0.77,0.38-1.17,0.23l-4.06-1.59c-0.56-0.22-1.19,0.03-1.45,0.56l-2.13,4.31
	c-0.06,0.12-0.09,0.25-0.11,0.38c-0.04,0.41,0.15,0.84,0.51,1.07l2.77,1.76c0.33,0.22,0.53,0.6,0.52,0.99c0,0.1-0.02,0.21-0.06,0.31
	c-0.84,2.47-1.18,5.08-1,7.68c0.04,0.44-0.21,0.85-0.59,1.06c-0.06,0.03-0.11,0.05-0.18,0.07l-3.75,1.18
	c-0.54,0.17-0.87,0.73-0.76,1.28l0.02,0.11l0.92,4.62C377.45,90.66,377.98,91.04,378.57,90.98z M411.02,76.58
	c0.29,0.73,0.52,1.51,0.69,2.34c0.31,1.59-0.01,4.11-0.73,5.57c-0.08,0.16-0.15,0.31-0.24,0.46c-4.96,9.21-17.97,7.38-20.11-3.01
	c-0.28-1.36-0.1-3.34,0.38-4.85c0.12-0.35,0.24-0.68,0.39-0.96c0.66-1.32,1.48-2.43,2.42-3.33
	C399.16,67.66,408.08,69.34,411.02,76.58z"/>
<g>
	<path class="st5" d="M143.65,329.08c0,0,0.57-6.16-6.32-6.16c0,0,2.09,0.57,3.17,1.7c0,0-4.39-2.58-9.16,1.38
		c-4.78,3.96-1.81,13.89-3.26,15.77c-1.45,1.88-7.11,2.26-6.42,8.36c0.69,6.09,17.95,13.73,16.84,18.77c0,0,6.76-9.94,1.93-14.48
		c0,0,2.36,2.22,2.6,4.86c0,0,0.64-5.15-2.64-6.8c-2.9-1.46-5.28-6.79-5.03-7.75C135.61,343.79,143.65,329.08,143.65,329.08z"/>
	<path class="st6" d="M136.88,358.65c0,0,5.14,21.27,10.19,25.52c3.03,2.55,12.05,8.42,12.05,8.42l-3.75,1.36
		c0,0-12.51-4.22-15.31-7.52s-10.47-19.79-10.47-19.79L136.88,358.65z"/>
	<path class="st7" d="M88.56,396.01c0.04,0.08,0.09,0.17,0.14,0.25c1.13,1.95,3.71,6.75,6.55,11.99c1.34,2.49,2.75,5.08,4.09,7.52
		c2.3,4.21,4.39,7.95,5.62,9.93c1.24,2.01,2.16,3.43,2.53,3.99c0,0,0,0,0,0c0.11,0.17,0.14,0.38,0.12,0.58
		c-0.13,1.77-0.09,3.54,0.08,5.27c1.71,17.06,13.22,26.2,13.22,26.2l3.42,0.5c0,0-4.84-17.93-6.26-28.07
		c-0.24-1.72-0.35-3.11-0.26-4.02c0.25-2.64-0.22-6.52-1.1-10.97c-1.58-7.91-4.48-17.62-6.99-25.39c-0.16-0.5-4.97-17.89-4.97-17.89
		c-4.04,3.53-18.76,4.98-18.76,4.98S83.47,386.96,88.56,396.01z"/>
	<path class="st8" d="M131.5,466.57h-14.27c0,0-0.34-2.18,0.4-3.83c0.71-1.58,1.73-1.63,0.13-4.11c0.91,0.93,3.82,1.32,5.88,1.04
		c0.25,0.41,1.63,3.16,2.47,3.76C127.06,464.11,131.22,463.87,131.5,466.57z"/>
	<path class="st9" d="M88.56,396.01c0.04,0.08,0.09,0.17,0.14,0.25c1.13,1.95,7.21,13.19,10.05,18.43c-3.29-13.55-1-27.1-1-27.1
		L88.56,396.01z"/>
	<path class="st5" d="M141.71,328.21c0.09-0.38-8.15,3.73-8.57,4.19c-3.87,4.29-2.76,9.89-0.55,9.94c1.42,0.03,1.14,2.39,1.14,2.39
		l15.81-6.69C149.54,338.05,147.64,326.95,141.71,328.21z"/>
	<path class="st3" d="M136.39,355.46c0,0,2.41,4.81,2.11,8.71c0,0-2.9,4.58-10.43,5.74C128.08,369.9,134.54,355.45,136.39,355.46z"
		/>
	<path class="st7" d="M99.69,381.96l0.05-2.67c-5.32,0.67-18.34-6.36-18.34-6.36s-5.56,3.7-6.33,14.27
		c-0.37,5.16-2.72,26.98-2.98,33.49c-0.1,2.36-0.13,4.04-0.14,4.72c0,0,0,0,0,0.01c0,0.21-0.1,0.39-0.22,0.55
		c-1.1,1.4-2.05,2.88-2.88,4.42c-8.11,15.1-3.87,35.62-3.87,35.62l1.88-0.48c0,0,6.86-21.27,11.35-30.47
		c0.76-1.56,1.45-2.77,2.03-3.48c1.69-2.05,3.46-5.53,5.22-9.71C88.77,413.95,99.69,381.96,99.69,381.96z"/>
	<path class="st8" d="M76.32,466.57H62.05c0,0-0.34-2.18,0.4-3.83c0.71-1.58,1.83-2.3,1.56-4.22c0.91,0.93,2.38,1.98,4.45,1.7
		c0.25,0.41,1.63,2.6,2.48,3.21C71.88,464.11,76.04,463.87,76.32,466.57z"/>
	<path class="st3" d="M127.11,372.97c-1.92,0.33,0.31,1.85-2.32,2.14c-3.75,0.41-7.63,0.69-9.66,1.5c-0.74,0.29-1.24,0.66-1.39,1.13
		c-0.88,2.65-6.45,7.19-6.45,7.19c-24.85-1.13-26.45-12.21-26.45-12.21c16.13-15.67,29.85-24.21,41.19-25.26
		c2.76-0.26,6.48,0.09,8.23,0.86c3.97,1.77,6.14,7.14,6.14,7.14S134.39,371.72,127.11,372.97z"/>
	<path class="st10" d="M124.79,375.1c-3.75,0.41-7.63,0.69-9.66,1.5c-0.83-12.4,5.02-21.72,5.02-21.72S123.97,370.41,124.79,375.1z"
		/>
	<path class="st6" d="M130.04,349.34c0.71,2.22,3.07,8.55,6.35,6.12c-0.11-0.47,0.58-1.85,1.39-3.24c1.04-1.78,2.27-3.61,2.27-3.61
		l-5.34-4.68l-0.32-0.28c-1.4,2.44-2.77,3.61-3.97,4.51C130.06,348.43,129.9,348.9,130.04,349.34z"/>
	<path class="st11" d="M140.06,348.61c0,0-1.23,1.82-2.27,3.6c-3.32-2.05-3.32-6.16-3.07-8.29L140.06,348.61z"/>
	<path class="st6" d="M140.21,350.95c0,0-8.06-4.49-5.19-9.46c2.87-4.98,3.76-8.91,9.03-6.26c5.27,2.65,5.16,5.12,4.61,7.02
		C148.1,344.15,142.38,351.99,140.21,350.95z"/>
	<path class="st5" d="M150.02,339.35c-0.37-2.21-1.49-2.42-2.27-2.27c-2.98-4.92-7.84-3-7.84-3c-2.6,3.26-6.36,3.82-6.36,3.82
		s0.93,1.74,4.79,2.82c1.18,0.33,2.51,0.13,3.8-0.31c-2.68,1.49-5.47,2.06-5.47,2.06c5.08,0.46,9.91-4.18,10.42-4.68
		c0.24,0.72,0.64,2.23,0.4,3.33c-0.33,1.5-1.66,4.21-0.85,4.56C146.63,345.68,150.57,342.67,150.02,339.35z"/>
	<g>
		
			<rect x="187.65" y="392.36" transform="matrix(0.4382 -0.8989 0.8989 0.4382 -272.4084 415.7974)" class="st3" width="17.55" height="66.92"/>
		<g>
			<path class="st3" d="M143.68,422.34c-5.52-2.69-9.44-7.68-10.76-13.68c-0.54-2.44,1-4.85,3.44-5.38c2.44-0.54,4.85,1,5.38,3.44
				c0.73,3.29,2.87,6.02,5.9,7.5c5.42,2.65,11.99,0.38,14.64-5.04c2.65-5.42,0.38-11.99-5.04-14.64c-2.47-1.2-5.27-1.44-7.89-0.66
				c-2.39,0.71-4.91-0.66-5.62-3.05c-0.71-2.39,0.66-4.91,3.05-5.62c4.8-1.42,9.91-0.99,14.42,1.2c9.91,4.83,14.04,16.82,9.21,26.72
				C165.57,423.04,153.59,427.17,143.68,422.34z"/>
		</g>
		<g>
			<path class="st3" d="M228.78,463.82c-9.91-4.83-14.04-16.82-9.21-26.72s16.82-14.04,26.72-9.21c4.5,2.19,7.99,5.96,9.83,10.61
				c0.92,2.32-0.22,4.95-2.54,5.86c-2.32,0.92-4.95-0.22-5.86-2.54c-1-2.55-2.92-4.61-5.38-5.81c-5.42-2.65-11.99-0.38-14.64,5.04
				s-0.38,11.99,5.04,14.64c3.03,1.48,6.5,1.48,9.54,0.03c2.25-1.08,4.95-0.13,6.03,2.12c1.08,2.25,0.13,4.95-2.12,6.03
				C240.64,466.53,234.3,466.51,228.78,463.82z"/>
		</g>
		<path class="st12" d="M208.69,434.38L177,418.93c-0.91-0.44-1.29-1.55-0.85-2.46l0.81-1.65c0.44-0.91,1.55-1.29,2.46-0.85
			l31.69,15.45c0.91,0.44,1.29,1.55,0.85,2.46l-0.81,1.65C210.71,434.44,209.6,434.82,208.69,434.38z"/>
	</g>
	<path class="st6" d="M135.59,406.31c0,0,0.17,1.5,0.81,2.28c0.64,0.78,2.48,2.65,2.51,3.75c0,0-0.09,0.49-0.49,0.4
		c-0.4-0.09-1.77-1.45-2.48-1.35c0,0,0.38,2.2,0.75,2.82c0.37,0.62,1.06,2.96,0.84,3.49c-0.22,0.53-3.96-2.58-5.09-4.1
		c-1.13-1.52-0.02-7.7-0.02-7.7L135.59,406.31z"/>
	<path class="st6" d="M128.02,352.79c0,0-9.44-0.52-11.11,5.41c-1.68,5.93,3.15,29.58,4.18,32.02c1.89,4.45,11.11,17.13,11.11,17.13
		l3.39-1.03c0,0-6.14-19.38-7.52-21.29C125.92,382,130.85,355.36,128.02,352.79z"/>
	<path class="st12" d="M115.05,366.12c0.03,0.14,8.93,1.64,14.5-1.19c0,0,4.66-14.58-2-13.88c-6.65,0.7-10.59,2.79-10.76,5.98
		C116.63,360.21,115.05,366.12,115.05,366.12z"/>
	<path class="st6" d="M154.48,383.11c-0.45,0.02-1.27,0.17-1.56,0.39c-0.52,0.4-1.09,1.09,0.06,1.66c1.73,0.86,5.19,0.48,5.05-0.04
		C157.61,383.49,156.98,382.99,154.48,383.11z"/>
</g>
<g>
	<path class="st6" d="M204.21,151.01c-0.46,0.52-0.51,1.1-0.29,1.73c0,0,0,0.01,0,0.01c0.42,1.15,1.79,2.44,3.39,3.72
		c0.2,0.17,0.39,0.32,0.54,0.45c0.04,0.04,0.08,0.07,0.12,0.11c0.03,0.03,0.06,0.06,0.1,0.08c1.49,1.37,0.93,1.69,3.61,4.48
		c3.05,3.18,5.16,3.23,5.75,2.94c0.5-0.25-0.52-1.93-1.66-3.82c-0.06-0.09-0.11-0.18-0.17-0.28c-0.15-0.25-0.3-0.51-0.45-0.76
		c-1.34-2.28-0.99-3.35-0.68-6.74c0.26-2.76,4.29-15.4,4.29-15.4l-5.85-1.01c0,0-1.76,10.07-3.7,11.62c-1.04,0.83-2.2,0.84-3.2,1.45
		c-0.07,0.04-0.14,0.08-0.21,0.13C205.24,150.1,204.67,150.49,204.21,151.01z"/>
	<path class="st9" d="M204.21,151.01c-0.46,0.52-0.51,1.1-0.29,1.73c0,0,0,0.01,0,0.01c0.51,1.15,1.85,2.43,3.4,3.71
		c0.2,0.17,0.38,0.32,0.54,0.46c0.04,0.04,0.08,0.07,0.12,0.11c0.03,0.03,0.06,0.06,0.1,0.08c1.49,1.37,0.93,1.69,3.61,4.48
		c3.05,3.18,5.16,3.23,5.75,2.94c0.5-0.25-0.52-1.93-1.66-3.82c-0.6-0.22-3.36-1.34-5.44-4.01c-1.84-2.34-3.07-5.36-4.32-7.11
		c-0.07,0.04-0.14,0.08-0.21,0.13C205.24,150.1,204.67,150.49,204.21,151.01z"/>
	<path class="st6" d="M251.39,147.36c0.36,1.81,2.94,1.51,5.81,0.8c2.88-0.7,2.19,0.13,6.29-0.32s5.33-1.98,5.46-2.59
		c0.11-0.54-1.91-0.73-4.08-0.98c-0.27-0.03-0.55-0.07-0.82-0.1c-2.45-0.31-4.24-1.89-6.47-3.19c-2.11-1.23-5.25-6.24-5.25-6.24
		l-5.61,0.45c0,0,2.94,4.48,4.09,6.42c0.67,1.14,0.63,2.66,0.55,3.83C251.3,146.07,251.26,146.72,251.39,147.36z"/>
	<path class="st9" d="M257.2,148.16c2.88-0.7,2.19,0.13,6.29-0.32s5.33-1.98,5.46-2.59c0.11-0.54-1.91-0.73-4.08-0.98l-0.02,0.04
		c0,0-2.45,1.74-5.86,1.82c-2.78,0.07-5.72-0.73-7.64-0.7c-0.04,0.64-0.08,1.28,0.04,1.92C251.75,149.17,254.33,148.86,257.2,148.16
		z"/>
	<path class="st9" d="M229.88,111.46l-5.25,14.12l-6.85,18.44c0,0-1.86,0.18-3.64-0.33c-1.64-0.47-3.52-1.71-3.52-1.71
		s1.9-19.8,5.45-31.16c0.91-2.92,1.93-5.28,3.05-6.61C224.62,97.71,229.88,111.46,229.88,111.46z"/>
	<path class="st7" d="M224.54,89.03c-3.44-1.11-13.25,0.32-23.09,2.24l-2.06-3.4l-21.28-1.66c0,0-7.02,15.57-3.18,25.49
		c0.56,1.46,1.69,2.39,3.6,2.43h0.31c0,0,12.66-0.01,16.77-0.01c10.58,0,22.39-7.27,23.92-7.58c2.5-0.5,3.5,4.5,6,9.76
		c2.5,5.25,23.51,23.26,23.51,23.26s3.23,0.03,4.56-0.47c1.44-0.54,1.96-1.24,1.96-1.24S232.29,91.53,224.54,89.03z"/>
	<path d="M192.33,23.1c-2.98-0.77-7.06,0-7.74,0.06c-8.1,0.8-10.82,9.83-9.59,16.83c1.13,6.47-2.15,8.25-5.95,13.36
		c-7.62,10.24-2.64,18.88,3.37,21.1c3.61,1.34,8.62-2.04,8.62-2.04c0.09,0.04,15.74-10.25,22.16-16.05
		C213.88,52.2,199.93,25.05,192.33,23.1z"/>
	<path class="st6" d="M193.53,52.72c0.21,0.75-3.33,2.13-6.03,1.62c-2.54-0.47-5.4-3.45-4.81-3.73c0.97-0.46,1.63-1.61,1.1-7.83
		l0.49,0.06l8.14,0.93c0,0,0.03,2.54,0.21,4.91C192.78,50.66,193.18,51.5,193.53,52.72z"/>
	<path class="st11" d="M192.41,43.76c0,0,0.03,2.54,0.21,4.91c-4.49,0.24-7.19-3.65-8.35-5.84L192.41,43.76z"/>
	<path class="st6" d="M194.09,45.89c0,0-10.59,1.05-11.14-5.56s-2.29-10.92,4.45-11.86c6.73-0.95,8.26,1.46,8.98,3.63
		C197.1,34.25,196.83,45.45,194.09,45.89z"/>
	<path d="M192.95,27.42c0,0-1.33,8.07-7.36,9.98c-4.4,1.39-6.39,0.47-6.39,0.47s2.12-2.81,2.87-6.71c0.22-1.15,1.04-2.1,2.15-2.46
		C187.35,27.68,191.14,24.87,192.95,27.42z"/>
	<path d="M190.96,29.15c0,0,1.99,0.45,3.76,3.02c0.97,1.41,2.09,4.95,1.9,6.53c0,0,1.85-7.47-0.85-10.24
		C192.9,25.5,190.96,29.15,190.96,29.15z"/>
	<path class="st3" d="M174.47,74.41c0.19,0.8,0.35,1.54,0.48,2.22c0.22,1.1,0.36,2.05,0.47,2.88c0.32,2.61,0.22,4.15,0.45,5.83
		c0.12,0.94,0.34,1.93,0.79,3.18c0.44,1.21,11.94,2.29,18.49,1.85c2.08-0.14,3.66-0.43,4.22-0.91c2.33-2.03,2.1,2.43,2.42-18.91
		c0.15-10.41-8.83-19.68-8.83-19.68s-0.72,4.45-9.63-0.85c-0.32-0.18-3.83,5.01-7.21,11.41C172.39,68.51,173.41,70.01,174.47,74.41z
		"/>
	<path class="st9" d="M224.63,125.58l-6.85,18.44c0,0-1.86,0.18-3.64-0.33c-1.64-0.47-3.52-1.71-3.52-1.71s1.9-19.8,5.45-31.16
		L224.63,125.58z"/>
	<path class="st12" d="M192.95,50.87c0,0,9.17,1.55,10.25,5.5c1.08,3.95,8.52,26.03,8.52,26.03s-5.77,1.97-7.92-0.19
		c-2.15-2.15-7.49-19.98-7.49-19.98L192.95,50.87z"/>
	<path class="st4" d="M191.64,41.99c0,0,0.45,1.09,1.62,1.09c1.17,0,1.49-0.18,1.71-0.42c0.22-0.25,0.44-0.73,0.44-0.73
		S193.47,41.54,191.64,41.99z"/>
	<path class="st12" d="M175.42,79.51c0.32,2.61,0.22,4.15,0.45,5.83c8.33,0.03,19.46-6.43,19.46-6.43L175.42,79.51z"/>
	<path class="st12" d="M195.32,73.45c0,0-12.97-0.39-15.16-7.76c-2.4-8.1-5.09,3.33-5.09,3.33l1.43,7.3h14.23L195.32,73.45z"/>
	<g>
		<path class="st4" d="M217.94,53.44l-0.7-1.74c-0.75-1.86-2.56-3.08-4.57-3.08h-12.93v8.21v35.03h53.5V56.83h-30.27
			C220.75,56.83,218.76,55.49,217.94,53.44z"/>
		<g>
			<path class="st9" d="M207.8,74.92V71.8l10.93-4.79v3.18l-7.63,3.14l7.63,3.14v3.23L207.8,74.92z"/>
			<path class="st9" d="M230.1,63.29h2.91l-10.01,20.91h-2.91L230.1,63.29z"/>
			<path class="st9" d="M245.16,71.8v3.12l-10.93,4.79v-3.18l7.63-3.14l-7.63-3.14v-3.23L245.16,71.8z"/>
		</g>
	</g>
	<path class="st6" d="M195.32,75.16l0.94-1.47c0,0,0.74-0.24,1.78-0.98c1.24-0.87,1.07-2.18,1.69-2.04l0.01,2.86l-0.07,0.01
		c2.66,0.71,5.77-0.06,5.83,0.6c0.17,1.82-1.24,2.64-2.42,3.21c-0.9,0.44-1.93,1.09-3.56,0.59c-1.19-0.37-3.07-0.75-3.07-0.75
		L195.32,75.16z"/>
	<path class="st3" d="M183.32,50.03c0,0-8.42,0.55-10.53,3.83c-2.11,3.28-4.71,19.96-3.62,25.68s28.06-1.09,28.06-1.09l-0.86-4.97
		c0,0-15.56,0.09-16.45-1.94C178.75,68.86,183.32,50.03,183.32,50.03z"/>
	<path class="st6" d="M223.97,56.81c-0.07,0.22,1.27,2.43,3.18,2.04c1.19-0.24,2.74-2.81,1.38-3.37
		C226.26,54.54,224.16,56.23,223.97,56.81z"/>
</g>
<g>
	<g>
		
			<rect x="288.59" y="143.1" transform="matrix(0.4709 -0.8822 0.8822 0.4709 43.8841 359.6798)" class="st13" width="66.41" height="0.32"/>
	</g>
	<g>
		
			<rect x="434.2" y="107.06" transform="matrix(0.7334 -0.6798 0.6798 0.7334 25.4412 330.7162)" class="st13" width="0.32" height="51.72"/>
	</g>
	<g>
		<path class="st14" d="M473.8,162.97c0.52,3.8-0.52,7.46-2.62,10.3c-2.1,2.84-5.26,4.86-8.97,5.37l-157.19,21.6
			c-8.02,1.1-15.44-4.21-16.48-11.81c-0.52-3.8,0.64-7.48,2.94-10.35c2.3-2.87,5.73-4.92,9.75-5.47l157.19-21.6
			C465.83,149.99,472.75,155.37,473.8,162.97z"/>
		<path class="st9" d="M473.8,162.97c0.52,3.8-0.52,7.46-2.62,10.3c-2.1,2.84-5.26,4.86-8.97,5.37l-28.44,3.91l-3.8-27.63
			l28.44-3.91C465.83,149.99,472.75,155.37,473.8,162.97z"/>
		<g>
			<g>
				<path class="st8" d="M456.48,170.46c-0.35,0.05-0.71,0.07-1.06,0.07c-1.9-0.02-3.67-0.78-5-2.14c-2.74-2.8-2.69-7.31,0.12-10.05
					l0,0c2.8-2.74,7.31-2.69,10.05,0.12c2.74,2.8,2.69,7.31-0.12,10.05C459.37,169.58,457.98,170.26,456.48,170.46z M451.35,159.18
					c-2.34,2.29-2.38,6.05-0.1,8.39c1.11,1.13,2.59,1.77,4.18,1.79c1.58,0.02,3.08-0.58,4.22-1.69c2.34-2.29,2.38-6.05,0.1-8.39
					C457.46,156.94,453.69,156.89,451.35,159.18L451.35,159.18z"/>
			</g>
			
				<rect x="442.53" y="170.77" transform="matrix(0.7152 -0.6989 0.6989 0.7152 7.6446 361.4789)" class="st8" width="9.7" height="1.17"/>
			<path class="st8" d="M441.49,177.11L441.49,177.11c-0.4-0.41-0.4-1.07,0.02-1.48l4.09-3.99c0.41-0.4,1.07-0.39,1.48,0.02l0,0
				c0.4,0.41,0.4,1.07-0.02,1.48l-4.09,3.99C442.55,177.54,441.89,177.53,441.49,177.11z"/>
		</g>
	</g>
</g>
<g>
	<path class="st3" d="M209.83,313.09h-32.84c-0.68,0-1.24-0.56-1.24-1.24v-0.52c0-0.68,0.56-1.24,1.24-1.24h32.84
		c0.68,0,1.24,0.56,1.24,1.24v0.52C211.07,312.54,210.52,313.09,209.83,313.09z"/>
	<g>
		<path class="st9" d="M192.98,323.39h-16.2c-0.56,0-1.02-0.46-1.02-1.02l0,0c0-0.56,0.46-1.02,1.02-1.02h16.2
			c0.56,0,1.02,0.46,1.02,1.02l0,0C194,322.93,193.54,323.39,192.98,323.39z"/>
		<g>
			<path class="st9" d="M205.39,319.1h-28.68c-0.53,0-0.95-0.43-0.95-0.95v-0.14c0-0.53,0.43-0.95,0.95-0.95h28.68
				c0.53,0,0.95,0.43,0.95,0.95v0.14C206.34,318.68,205.91,319.1,205.39,319.1z"/>
			<path class="st9" d="M236.77,319.1h-26.72c-0.51,0-0.92-0.41-0.92-0.92v-0.21c0-0.51,0.41-0.92,0.92-0.92h26.72
				c0.51,0,0.92,0.41,0.92,0.92v0.21C237.69,318.69,237.28,319.1,236.77,319.1z"/>
			<path class="st9" d="M213.19,323.39h-16.2c-0.56,0-1.02-0.46-1.02-1.02l0,0c0-0.56,0.46-1.02,1.02-1.02h16.2
				c0.56,0,1.02,0.46,1.02,1.02l0,0C214.21,322.93,213.76,323.39,213.19,323.39z"/>
		</g>
	</g>
	<path class="st3" d="M249.82,313.09h-32.84c-0.68,0-1.24-0.56-1.24-1.24v-0.52c0-0.68,0.56-1.24,1.24-1.24h32.84
		c0.68,0,1.24,0.56,1.24,1.24v0.52C251.06,312.54,250.51,313.09,249.82,313.09z"/>
</g>
<g>
	<path class="st3" d="M209.83,335.65h-32.84c-0.68,0-1.24-0.56-1.24-1.24v-0.52c0-0.68,0.56-1.24,1.24-1.24h32.84
		c0.68,0,1.24,0.56,1.24,1.24v0.52C211.07,335.1,210.52,335.65,209.83,335.65z"/>
	<g>
		<path class="st9" d="M192.98,345.95h-16.2c-0.56,0-1.02-0.46-1.02-1.02l0,0c0-0.56,0.46-1.02,1.02-1.02h16.2
			c0.56,0,1.02,0.46,1.02,1.02l0,0C194,345.49,193.54,345.95,192.98,345.95z"/>
		<g>
			<path class="st9" d="M205.39,341.66h-28.68c-0.53,0-0.95-0.43-0.95-0.95v-0.14c0-0.53,0.43-0.95,0.95-0.95h28.68
				c0.53,0,0.95,0.43,0.95,0.95v0.14C206.34,341.24,205.91,341.66,205.39,341.66z"/>
			<path class="st9" d="M236.77,341.66h-26.72c-0.51,0-0.92-0.41-0.92-0.92v-0.21c0-0.51,0.41-0.92,0.92-0.92h26.72
				c0.51,0,0.92,0.41,0.92,0.92v0.21C237.69,341.25,237.28,341.66,236.77,341.66z"/>
			<path class="st9" d="M213.19,345.95h-16.2c-0.56,0-1.02-0.46-1.02-1.02l0,0c0-0.56,0.46-1.02,1.02-1.02h16.2
				c0.56,0,1.02,0.46,1.02,1.02l0,0C214.21,345.49,213.76,345.95,213.19,345.95z"/>
		</g>
	</g>
	<path class="st3" d="M249.82,335.65h-32.84c-0.68,0-1.24-0.56-1.24-1.24v-0.52c0-0.68,0.56-1.24,1.24-1.24h32.84
		c0.68,0,1.24,0.56,1.24,1.24v0.52C251.06,335.1,250.51,335.65,249.82,335.65z"/>
</g>
<g>
	<polygon class="st3" points="380.53,198.53 361.77,202.9 352.5,219.78 345.42,181.31 	"/>
	
		<rect x="363.66" y="198.2" transform="matrix(0.797 -0.604 0.604 0.797 -51.5251 262.9347)" class="st3" width="3.43" height="19.84"/>
</g>
<g>
	<path class="st14" d="M368.25,278.03h-46.12c-1.87,0-3.38-1.51-3.38-3.38v-46.12c0-1.87,1.51-3.38,3.38-3.38h46.12
		c1.87,0,3.38,1.51,3.38,3.38v46.12C371.63,276.52,370.12,278.03,368.25,278.03z"/>
	<g>
		<path class="st9" d="M325.51,266.97l10.28-18.52c1.2-2.16,4.22-2.35,5.68-0.36l5.93,8.08c1.26,1.72,3.78,1.85,5.22,0.28l0,0
			c1.49-1.63,4.13-1.41,5.33,0.45l6.4,9.87c1.46,2.25-0.16,5.22-2.84,5.22h-33.03C325.89,271.99,324.26,269.23,325.51,266.97z"/>
		<path class="st9" d="M345.79,239.79c0-2.23,1.81-4.04,4.04-4.04c2.23,0,4.04,1.81,4.04,4.04c0,2.23-1.81,4.04-4.04,4.04
			C347.6,243.83,345.79,242.02,345.79,239.79z"/>
	</g>
</g>
<g>
	<path class="st14" d="M435.9,279.46l-45.69,6.23c-1.85,0.25-3.55-1.04-3.81-2.89l-6.23-45.69c-0.25-1.85,1.04-3.56,2.89-3.81
		l45.7-6.23c1.85-0.25,3.55,1.04,3.81,2.89l6.23,45.69C439.04,277.5,437.75,279.2,435.9,279.46z"/>
	<g>
		<path class="st9" d="M392.05,274.28l7.68-19.74c0.89-2.3,3.87-2.9,5.58-1.12l6.96,7.21c1.48,1.53,4,1.33,5.21-0.43l0,0
			c1.26-1.82,3.9-1.96,5.34-0.28l7.67,8.92c1.75,2.03,0.55,5.19-2.11,5.55l-32.73,4.46C393.11,279.2,391.12,276.68,392.05,274.28z"
			/>
		<path class="st9" d="M408.47,244.6c-0.3-2.21,1.25-4.25,3.46-4.55s4.25,1.25,4.55,3.46c0.3,2.21-1.25,4.25-3.46,4.55
			C410.81,248.36,408.77,246.81,408.47,244.6z"/>
	</g>
</g>
<g>
	<rect x="274.89" y="442.81" class="st3" width="26.65" height="22.85"/>
	<rect x="273.81" y="441.84" class="st8" width="28.63" height="1.77"/>
	<rect x="274.89" y="449" class="st8" width="26.65" height="7.26"/>
</g>
<path class="st3" d="M333.96,465.68h-25.17c-0.92,0-1.67-0.75-1.67-1.67v-2.79c0-0.99,0.86-1.77,1.85-1.66l25.16,2.79
	c0.85,0.09,1.48,0.81,1.48,1.66l0,0C335.63,464.93,334.88,465.68,333.96,465.68z"/>
<path class="st8" d="M603.51,467.91l-562.89-0.2c-0.38,0-0.68-0.38-0.68-0.85v-0.44c0-0.47,0.31-0.85,0.68-0.85l562.89,0.2
	c0.38,0,0.68,0.38,0.68,0.85v0.44C604.19,467.53,603.88,467.91,603.51,467.91z"/>
<g>
	<path class="st9" d="M290,280.11h-2.9c-0.26,0-0.48-0.21-0.48-0.48c0-0.26,0.21-0.48,0.48-0.48h2.88c0.26,0,0.49,0.21,0.49,0.48
		C290.47,279.9,290.26,280.11,290,280.11z M284.22,280.11h-2.88c-0.26,0-0.48-0.21-0.48-0.48c0-0.26,0.21-0.48,0.48-0.48h2.88
		c0.26,0,0.48,0.21,0.48,0.48C284.7,279.9,284.49,280.11,284.22,280.11z M278.46,280.11h-2.88c-0.26,0-0.48-0.21-0.48-0.48
		c0-0.26,0.21-0.48,0.48-0.48h2.88c0.26,0,0.48,0.21,0.48,0.48C278.94,279.9,278.73,280.11,278.46,280.11z M272.7,280.11h-2.88
		c-0.26,0-0.48-0.21-0.48-0.48c0-0.26,0.21-0.48,0.48-0.48h2.88c0.26,0,0.48,0.21,0.48,0.48
		C273.18,279.9,272.96,280.11,272.7,280.11z M266.94,280.11h-2.88c-0.26,0-0.48-0.21-0.48-0.48c0-0.26,0.21-0.48,0.48-0.48h2.88
		c0.26,0,0.48,0.21,0.48,0.48C267.42,279.9,267.2,280.11,266.94,280.11z M261.18,280.11h-2.88c-0.26,0-0.48-0.21-0.48-0.48
		c0-0.26,0.21-0.48,0.48-0.48h2.88c0.26,0,0.48,0.21,0.48,0.48C261.66,279.9,261.44,280.11,261.18,280.11z M255.42,280.11h-2.88
		c-0.26,0-0.48-0.21-0.48-0.48c0-0.26,0.21-0.48,0.48-0.48h2.88c0.26,0,0.48,0.21,0.48,0.48
		C255.9,279.9,255.69,280.11,255.42,280.11z M249.66,280.11h-2.88c-0.26,0-0.48-0.21-0.48-0.48c0-0.26,0.21-0.48,0.48-0.48h2.88
		c0.26,0,0.48,0.21,0.48,0.48C250.14,279.9,249.93,280.11,249.66,280.11z M243.9,280.11h-2.88c-0.26,0-0.48-0.21-0.48-0.48
		c0-0.26,0.21-0.48,0.48-0.48h2.88c0.26,0,0.48,0.21,0.48,0.48C244.38,279.9,244.16,280.11,243.9,280.11z M238.14,280.11h-2.88
		c-0.26,0-0.48-0.21-0.48-0.48c0-0.26,0.21-0.48,0.48-0.48h2.88c0.26,0,0.48,0.21,0.48,0.48
		C238.62,279.9,238.4,280.11,238.14,280.11z M232.38,280.11h-2.88c-0.26,0-0.48-0.21-0.48-0.48c0-0.26,0.21-0.48,0.48-0.48h2.88
		c0.26,0,0.48,0.21,0.48,0.48C232.86,279.9,232.64,280.11,232.38,280.11z M226.62,280.11h-2.88c-0.26,0-0.48-0.21-0.48-0.48
		c0-0.26,0.21-0.48,0.48-0.48h2.88c0.26,0,0.48,0.21,0.48,0.48C227.1,279.9,226.88,280.11,226.62,280.11z M220.86,280.11h-2.88
		c-0.26,0-0.48-0.21-0.48-0.48c0-0.26,0.21-0.48,0.48-0.48h2.88c0.26,0,0.48,0.21,0.48,0.48
		C221.34,279.9,221.12,280.11,220.86,280.11z M215.1,280.11h-2.88c-0.26,0-0.48-0.21-0.48-0.48c0-0.26,0.21-0.48,0.48-0.48h2.88
		c0.26,0,0.48,0.21,0.48,0.48C215.58,279.9,215.36,280.11,215.1,280.11z M209.34,280.11h-2.88c-0.26,0-0.48-0.21-0.48-0.48
		c0-0.26,0.21-0.48,0.48-0.48h2.88c0.26,0,0.48,0.21,0.48,0.48C209.82,279.9,209.6,280.11,209.34,280.11z M203.58,280.11h-2.88
		c-0.26,0-0.48-0.21-0.48-0.48c0-0.26,0.21-0.48,0.48-0.48h2.88c0.26,0,0.48,0.21,0.48,0.48
		C204.06,279.9,203.84,280.11,203.58,280.11z M197.82,280.11h-2.88c-0.26,0-0.48-0.21-0.48-0.48c0-0.26,0.21-0.48,0.48-0.48h2.88
		c0.26,0,0.48,0.21,0.48,0.48C198.3,279.9,198.08,280.11,197.82,280.11z M192.06,280.11h-2.57c-0.11,0-0.23,0-0.34-0.01
		c-0.26-0.02-0.46-0.24-0.45-0.5c0.02-0.26,0.24-0.47,0.51-0.45c0.09,0.01,0.19,0.01,0.28,0.01h2.57c0.26,0,0.48,0.21,0.48,0.48
		C192.54,279.9,192.32,280.11,192.06,280.11z M292.72,279.27c-0.15,0-0.3-0.07-0.39-0.21c-0.15-0.22-0.09-0.52,0.13-0.66
		c0.73-0.49,1.28-1.18,1.61-1.99c0.1-0.24,0.38-0.36,0.62-0.26c0.24,0.1,0.36,0.38,0.26,0.62c-0.4,0.99-1.07,1.83-1.96,2.43
		C292.9,279.24,292.81,279.27,292.72,279.27z M186.52,279.1c-0.1,0-0.2-0.03-0.29-0.1c-0.85-0.65-1.47-1.53-1.81-2.54
		c-0.08-0.25,0.05-0.52,0.3-0.6c0.25-0.08,0.52,0.05,0.6,0.3c0.28,0.83,0.79,1.55,1.49,2.08c0.21,0.16,0.25,0.46,0.09,0.67
		C186.81,279.04,186.67,279.1,186.52,279.1z M294.85,274.23c-0.26,0-0.48-0.21-0.48-0.48v-2.88c0-0.26,0.21-0.48,0.48-0.48
		c0.26,0,0.48,0.21,0.48,0.48v2.88C295.33,274.02,295.11,274.23,294.85,274.23z M184.63,273.94c-0.26,0-0.48-0.21-0.48-0.48v-2.88
		c0-0.26,0.21-0.48,0.48-0.48s0.48,0.21,0.48,0.48v2.88C185.1,273.72,184.89,273.94,184.63,273.94z M294.85,268.47
		c-0.26,0-0.48-0.21-0.48-0.48v-2.88c0-0.26,0.21-0.48,0.48-0.48c0.26,0,0.48,0.21,0.48,0.48v2.88
		C295.33,268.26,295.11,268.47,294.85,268.47z M184.63,268.18c-0.26,0-0.48-0.21-0.48-0.48v-2.88c0-0.26,0.21-0.48,0.48-0.48
		s0.48,0.21,0.48,0.48v2.88C185.1,267.96,184.89,268.18,184.63,268.18z M294.85,262.71c-0.26,0-0.48-0.21-0.48-0.48v-2.88
		c0-0.26,0.21-0.48,0.48-0.48c0.26,0,0.48,0.21,0.48,0.48v2.88C295.33,262.5,295.11,262.71,294.85,262.71z M184.63,262.42
		c-0.26,0-0.48-0.21-0.48-0.48v-2.88c0-0.26,0.21-0.48,0.48-0.48s0.48,0.21,0.48,0.48v2.88C185.1,262.2,184.89,262.42,184.63,262.42
		z M294.85,256.95c-0.26,0-0.48-0.21-0.48-0.48v-2.88c0-0.26,0.21-0.48,0.48-0.48c0.26,0,0.48,0.21,0.48,0.48v2.88
		C295.33,256.74,295.11,256.95,294.85,256.95z M184.63,256.66c-0.26,0-0.48-0.21-0.48-0.48v-2.88c0-0.26,0.21-0.48,0.48-0.48
		s0.48,0.21,0.48,0.48v2.88C185.1,256.44,184.89,256.66,184.63,256.66z M294.85,251.19c-0.26,0-0.48-0.21-0.48-0.48v-2.88
		c0-0.26,0.21-0.48,0.48-0.48c0.26,0,0.48,0.21,0.48,0.48v2.88C295.33,250.98,295.11,251.19,294.85,251.19z M184.63,250.9
		c-0.26,0-0.48-0.21-0.48-0.48v-2.88c0-0.26,0.21-0.48,0.48-0.48s0.48,0.21,0.48,0.48v2.88C185.1,250.68,184.89,250.9,184.63,250.9z
		 M294.85,245.43c-0.26,0-0.48-0.21-0.48-0.48v-2.88c0-0.26,0.21-0.48,0.48-0.48c0.26,0,0.48,0.21,0.48,0.48v2.88
		C295.33,245.21,295.11,245.43,294.85,245.43z M184.63,245.14c-0.26,0-0.48-0.21-0.48-0.48v-2.88c0-0.26,0.21-0.48,0.48-0.48
		s0.48,0.21,0.48,0.48v2.88C185.1,244.92,184.89,245.14,184.63,245.14z M294.85,239.67c-0.26,0-0.48-0.21-0.48-0.48v-2.88
		c0-0.26,0.21-0.48,0.48-0.48c0.26,0,0.48,0.21,0.48,0.48v2.88C295.33,239.45,295.11,239.67,294.85,239.67z M184.63,239.38
		c-0.26,0-0.48-0.21-0.48-0.48v-2.88c0-0.26,0.21-0.48,0.48-0.48s0.48,0.21,0.48,0.48v2.88
		C185.1,239.16,184.89,239.38,184.63,239.38z M294.85,233.91c-0.26,0-0.48-0.21-0.48-0.48v-2.88c0-0.26,0.21-0.48,0.48-0.48
		c0.26,0,0.48,0.21,0.48,0.48v2.88C295.33,233.69,295.11,233.91,294.85,233.91z M184.63,233.61c-0.26,0-0.48-0.21-0.48-0.48v-2.88
		c0-0.26,0.21-0.48,0.48-0.48s0.48,0.21,0.48,0.48v2.88C185.1,233.4,184.89,233.61,184.63,233.61z M294.85,228.15
		c-0.26,0-0.48-0.21-0.48-0.48v-2.88c0-0.26,0.21-0.48,0.48-0.48c0.26,0,0.48,0.21,0.48,0.48v2.88
		C295.33,227.93,295.11,228.15,294.85,228.15z M184.63,227.85c-0.26,0-0.48-0.21-0.48-0.48v-2.88c0-0.26,0.21-0.48,0.48-0.48
		s0.48,0.21,0.48,0.48v2.88C185.1,227.64,184.89,227.85,184.63,227.85z M294.85,222.39c-0.26,0-0.48-0.21-0.48-0.48v-1.3
		c0-0.48-0.08-0.95-0.23-1.4c-0.08-0.25,0.05-0.52,0.3-0.6c0.25-0.08,0.52,0.05,0.6,0.3c0.18,0.55,0.28,1.12,0.28,1.7v1.3
		C295.33,222.18,295.11,222.39,294.85,222.39z M184.63,222.09c-0.26,0-0.48-0.21-0.48-0.48v-1.01c0-0.69,0.13-1.37,0.39-2.01
		c0.1-0.24,0.38-0.36,0.62-0.26c0.24,0.1,0.36,0.38,0.26,0.62c-0.21,0.52-0.32,1.08-0.32,1.65v1.01
		C185.1,221.88,184.89,222.09,184.63,222.09z M292.94,217.23c-0.1,0-0.2-0.03-0.29-0.1c-0.7-0.53-1.52-0.84-2.4-0.9
		c-0.26-0.01-0.46-0.24-0.45-0.5c0.01-0.26,0.25-0.47,0.5-0.45c1.06,0.07,2.07,0.44,2.92,1.09c0.21,0.16,0.25,0.46,0.09,0.67
		C293.23,217.16,293.09,217.23,292.94,217.23z M186.77,217.06c-0.15,0-0.3-0.07-0.39-0.21c-0.15-0.22-0.09-0.52,0.13-0.66
		c0.88-0.6,1.91-0.91,2.98-0.91l0,0c0.26,0,0.47,0.21,0.48,0.47c0,0.26-0.21,0.48-0.47,0.48c-0.88,0-1.72,0.26-2.45,0.75
		C186.95,217.03,186.86,217.06,186.77,217.06z M287.41,216.22h-2.88c-0.26,0-0.48-0.21-0.48-0.48s0.21-0.48,0.48-0.48h2.88
		c0.26,0,0.48,0.21,0.48,0.48S287.67,216.22,287.41,216.22z M281.65,216.22h-2.88c-0.26,0-0.48-0.21-0.48-0.48s0.21-0.48,0.48-0.48
		h2.88c0.26,0,0.48,0.21,0.48,0.48S281.91,216.22,281.65,216.22z M275.89,216.22H273c-0.26,0-0.48-0.21-0.48-0.48
		s0.21-0.48,0.48-0.48h2.88c0.26,0,0.48,0.21,0.48,0.48C276.36,216.01,276.15,216.22,275.89,216.22z M270.13,216.22h-2.88
		c-0.26,0-0.48-0.21-0.48-0.48s0.21-0.48,0.48-0.48h2.88c0.26,0,0.48,0.21,0.48,0.48C270.6,216.01,270.39,216.22,270.13,216.22z
		 M264.36,216.22h-2.88c-0.26,0-0.48-0.21-0.48-0.48s0.21-0.48,0.48-0.48h2.88c0.26,0,0.48,0.21,0.48,0.48
		C264.84,216.01,264.63,216.22,264.36,216.22z M258.6,216.22h-2.88c-0.26,0-0.48-0.21-0.48-0.48s0.21-0.48,0.48-0.48h2.88
		c0.26,0,0.48,0.21,0.48,0.48C259.08,216.01,258.87,216.22,258.6,216.22z M252.84,216.22h-2.88c-0.26,0-0.48-0.21-0.48-0.48
		s0.21-0.48,0.48-0.48h2.88c0.26,0,0.48,0.21,0.48,0.48S253.11,216.22,252.84,216.22z M247.08,216.22h-2.88
		c-0.26,0-0.48-0.21-0.48-0.48s0.21-0.48,0.48-0.48h2.88c0.26,0,0.48,0.21,0.48,0.48C247.56,216.01,247.35,216.22,247.08,216.22z
		 M241.32,216.22h-2.88c-0.26,0-0.48-0.21-0.48-0.48s0.21-0.48,0.48-0.48h2.88c0.26,0,0.48,0.21,0.48,0.48
		C241.8,216.01,241.59,216.22,241.32,216.22z M235.56,216.22h-2.88c-0.26,0-0.48-0.21-0.48-0.48s0.21-0.48,0.48-0.48h2.88
		c0.26,0,0.48,0.21,0.48,0.48S235.83,216.22,235.56,216.22z M229.8,216.22h-2.88c-0.26,0-0.48-0.21-0.48-0.48s0.21-0.48,0.48-0.48
		h2.88c0.26,0,0.48,0.21,0.48,0.48S230.07,216.22,229.8,216.22z M224.04,216.22h-2.88c-0.26,0-0.48-0.21-0.48-0.48
		s0.21-0.48,0.48-0.48h2.88c0.26,0,0.48,0.21,0.48,0.48C224.52,216.01,224.31,216.22,224.04,216.22z M218.28,216.22h-2.88
		c-0.26,0-0.48-0.21-0.48-0.48s0.21-0.48,0.48-0.48h2.88c0.26,0,0.48,0.21,0.48,0.48C218.76,216.01,218.54,216.22,218.28,216.22z
		 M212.52,216.22h-2.88c-0.26,0-0.48-0.21-0.48-0.48s0.21-0.48,0.48-0.48h2.88c0.26,0,0.48,0.21,0.48,0.48
		C213,216.01,212.78,216.22,212.52,216.22z M206.76,216.22h-2.88c-0.26,0-0.48-0.21-0.48-0.48s0.21-0.48,0.48-0.48h2.88
		c0.26,0,0.48,0.21,0.48,0.48C207.24,216.01,207.02,216.22,206.76,216.22z M201,216.22h-2.88c-0.26,0-0.48-0.21-0.48-0.48
		s0.21-0.48,0.48-0.48H201c0.26,0,0.48,0.21,0.48,0.48C201.48,216.01,201.27,216.22,201,216.22z M195.24,216.22h-2.88
		c-0.26,0-0.48-0.21-0.48-0.48s0.21-0.48,0.48-0.48h2.88c0.26,0,0.48,0.21,0.48,0.48S195.51,216.22,195.24,216.22z"/>
</g>
<g>
	<path class="st9" d="M453.73,360.04h-2.57c-0.23,0-0.42-0.19-0.42-0.42c0-0.23,0.19-0.42,0.42-0.42h2.55
		c0.23,0,0.43,0.19,0.43,0.42C454.14,359.85,453.96,360.04,453.73,360.04z M448.6,360.04h-2.55c-0.23,0-0.42-0.19-0.42-0.42
		c0-0.23,0.19-0.42,0.42-0.42h2.55c0.23,0,0.42,0.19,0.42,0.42C449.03,359.85,448.84,360.04,448.6,360.04z M443.5,360.04h-2.55
		c-0.23,0-0.42-0.19-0.42-0.42c0-0.23,0.19-0.42,0.42-0.42h2.55c0.23,0,0.42,0.19,0.42,0.42
		C443.92,359.85,443.73,360.04,443.5,360.04z M438.4,360.04h-2.55c-0.23,0-0.42-0.19-0.42-0.42c0-0.23,0.19-0.42,0.42-0.42h2.55
		c0.23,0,0.42,0.19,0.42,0.42C438.82,359.85,438.63,360.04,438.4,360.04z M433.3,360.04h-2.55c-0.23,0-0.42-0.19-0.42-0.42
		c0-0.23,0.19-0.42,0.42-0.42h2.55c0.23,0,0.42,0.19,0.42,0.42C433.72,359.85,433.53,360.04,433.3,360.04z M428.19,360.04h-2.55
		c-0.23,0-0.42-0.19-0.42-0.42c0-0.23,0.19-0.42,0.42-0.42h2.55c0.23,0,0.42,0.19,0.42,0.42
		C428.62,359.85,428.43,360.04,428.19,360.04z M423.09,360.04h-2.55c-0.23,0-0.42-0.19-0.42-0.42c0-0.23,0.19-0.42,0.42-0.42h2.55
		c0.23,0,0.42,0.19,0.42,0.42C423.51,359.85,423.32,360.04,423.09,360.04z M417.99,360.04h-2.55c-0.23,0-0.42-0.19-0.42-0.42
		c0-0.23,0.19-0.42,0.42-0.42h2.55c0.23,0,0.42,0.19,0.42,0.42C418.41,359.85,418.22,360.04,417.99,360.04z M412.88,360.04h-2.55
		c-0.23,0-0.42-0.19-0.42-0.42c0-0.23,0.19-0.42,0.42-0.42h2.55c0.23,0,0.42,0.19,0.42,0.42
		C413.31,359.85,413.12,360.04,412.88,360.04z M407.78,360.04h-2.47c-0.04,0-0.07,0-0.11,0c-0.23-0.01-0.41-0.21-0.4-0.44
		c0.01-0.23,0.2-0.41,0.44-0.4c0.02,0,0.04,0,0.07,0h2.47c0.23,0,0.42,0.19,0.42,0.42C408.21,359.85,408.01,360.04,407.78,360.04z
		 M455.38,358.43c0,0-0.01,0-0.01,0c-0.23-0.01-0.42-0.2-0.41-0.43v-0.04v-2.5c0-0.23,0.19-0.42,0.42-0.42
		c0.23,0,0.42,0.19,0.42,0.42v2.57C455.79,358.25,455.6,358.43,455.38,358.43z M403.65,358.36c-0.23,0-0.42-0.19-0.42-0.42v-2.55
		c0-0.23,0.19-0.42,0.42-0.42c0.23,0,0.42,0.19,0.42,0.42v2.55C404.07,358.17,403.88,358.36,403.65,358.36z M455.38,353.32
		c-0.23,0-0.42-0.19-0.42-0.42v-2.55c0-0.23,0.19-0.42,0.42-0.42c0.23,0,0.42,0.19,0.42,0.42v2.55
		C455.8,353.14,455.61,353.32,455.38,353.32z M403.65,353.25c-0.23,0-0.42-0.19-0.42-0.42v-2.55c0-0.23,0.19-0.42,0.42-0.42
		c0.23,0,0.42,0.19,0.42,0.42v2.55C404.07,353.07,403.88,353.25,403.65,353.25z M455.38,348.22c-0.23,0-0.42-0.19-0.42-0.42v-2.55
		c0-0.23,0.19-0.42,0.42-0.42c0.23,0,0.42,0.19,0.42,0.42v2.55C455.8,348.03,455.61,348.22,455.38,348.22z M403.65,348.15
		c-0.23,0-0.42-0.19-0.42-0.42v-2.49c0-0.03,0-0.06,0-0.08c0.01-0.23,0.2-0.42,0.44-0.4c0.23,0.01,0.42,0.21,0.4,0.44v0.05v2.49
		C404.07,347.97,403.88,348.15,403.65,348.15z M453.79,344c-0.01,0-0.01,0-0.02,0h-0.06h-2.47c-0.23,0-0.42-0.19-0.42-0.42
		c0-0.23,0.19-0.42,0.42-0.42h2.47c0.03,0,0.06,0,0.1,0c0.23,0.01,0.41,0.21,0.4,0.44C454.2,343.82,454.01,344,453.79,344z
		 M448.68,344h-2.55c-0.23,0-0.42-0.19-0.42-0.42c0-0.23,0.19-0.42,0.42-0.42h2.55c0.23,0,0.42,0.19,0.42,0.42
		C449.1,343.81,448.92,344,448.68,344z M443.58,344h-2.55c-0.23,0-0.42-0.19-0.42-0.42c0-0.23,0.19-0.42,0.42-0.42h2.55
		c0.23,0,0.42,0.19,0.42,0.42S443.81,344,443.58,344z M438.48,344h-2.55c-0.23,0-0.42-0.19-0.42-0.42c0-0.23,0.19-0.42,0.42-0.42
		h2.55c0.23,0,0.42,0.19,0.42,0.42S438.71,344,438.48,344z M433.38,344h-2.55c-0.23,0-0.42-0.19-0.42-0.42
		c0-0.23,0.19-0.42,0.42-0.42h2.55c0.23,0,0.42,0.19,0.42,0.42C433.79,343.81,433.61,344,433.38,344z M428.27,344h-2.55
		c-0.23,0-0.42-0.19-0.42-0.42c0-0.23,0.19-0.42,0.42-0.42h2.55c0.23,0,0.42,0.19,0.42,0.42S428.51,344,428.27,344z M423.17,344
		h-2.55c-0.23,0-0.42-0.19-0.42-0.42c0-0.23,0.19-0.42,0.42-0.42h2.55c0.23,0,0.42,0.19,0.42,0.42
		C423.59,343.81,423.4,344,423.17,344z M418.07,344h-2.55c-0.23,0-0.42-0.19-0.42-0.42c0-0.23,0.19-0.42,0.42-0.42h2.55
		c0.23,0,0.42,0.19,0.42,0.42S418.3,344,418.07,344z M412.96,344h-2.55c-0.23,0-0.42-0.19-0.42-0.42c0-0.23,0.19-0.42,0.42-0.42
		h2.55c0.23,0,0.42,0.19,0.42,0.42C413.38,343.81,413.2,344,412.96,344z M407.86,344h-2.54c-0.23,0-0.43-0.19-0.43-0.42
		c0-0.23,0.18-0.42,0.42-0.42h2.55c0.23,0,0.42,0.19,0.42,0.42C408.28,343.81,408.09,344,407.86,344z"/>
</g>
<g>
	<path class="st9" d="M271.48,207.78h-2.84c-0.26,0-0.48-0.21-0.48-0.48c0-0.26,0.21-0.48,0.48-0.48h2.82
		c0.26,0,0.49,0.21,0.49,0.48C271.95,207.57,271.75,207.78,271.48,207.78z M265.82,207.78H263c-0.26,0-0.48-0.21-0.48-0.48
		c0-0.26,0.21-0.48,0.48-0.48h2.82c0.26,0,0.48,0.21,0.48,0.48C266.3,207.57,266.08,207.78,265.82,207.78z M260.17,207.78h-2.82
		c-0.26,0-0.48-0.21-0.48-0.48c0-0.26,0.21-0.48,0.48-0.48h2.82c0.26,0,0.48,0.21,0.48,0.48
		C260.65,207.57,260.44,207.78,260.17,207.78z M254.53,207.78h-2.82c-0.26,0-0.48-0.21-0.48-0.48c0-0.26,0.21-0.48,0.48-0.48h2.82
		c0.26,0,0.48,0.21,0.48,0.48C255,207.57,254.79,207.78,254.53,207.78z M248.88,207.78h-2.82c-0.26,0-0.48-0.21-0.48-0.48
		c0-0.26,0.21-0.48,0.48-0.48h2.82c0.26,0,0.48,0.21,0.48,0.48C249.36,207.57,249.14,207.78,248.88,207.78z M243.23,207.78h-2.82
		c-0.26,0-0.48-0.21-0.48-0.48c0-0.26,0.21-0.48,0.48-0.48h2.82c0.26,0,0.48,0.21,0.48,0.48
		C243.71,207.57,243.5,207.78,243.23,207.78z M237.59,207.78h-2.82c-0.26,0-0.48-0.21-0.48-0.48c0-0.26,0.21-0.48,0.48-0.48h2.82
		c0.26,0,0.48,0.21,0.48,0.48C238.06,207.57,237.85,207.78,237.59,207.78z M231.99,207.48c-0.08,0-0.16-0.02-0.24-0.06
		c-0.88-0.5-1.43-1.44-1.43-2.45v-0.35c0-0.26,0.21-0.48,0.48-0.48s0.48,0.21,0.48,0.48v0.35c0,0.67,0.36,1.3,0.95,1.63
		c0.23,0.13,0.31,0.42,0.18,0.65C232.32,207.39,232.16,207.48,231.99,207.48z M273.66,206.26c-0.06,0-0.11-0.01-0.17-0.03
		c-0.25-0.09-0.37-0.37-0.28-0.61c0.08-0.21,0.12-0.43,0.12-0.66v-1.98c0-0.26,0.21-0.48,0.48-0.48c0.26,0,0.48,0.21,0.48,0.48v1.98
		c0,0.34-0.06,0.68-0.18,0.99C274.03,206.14,273.85,206.26,273.66,206.26z M230.8,202.26c-0.26,0-0.48-0.21-0.48-0.48v-2.82
		c0-0.26,0.21-0.48,0.48-0.48c0.26,0,0.48,0.21,0.48,0.48v2.82C231.28,202.05,231.06,202.26,230.8,202.26z M273.81,200.63
		c-0.26,0-0.48-0.21-0.48-0.48v-2.82c0-0.26,0.21-0.48,0.48-0.48s0.48,0.21,0.48,0.48v2.82
		C274.29,200.42,274.08,200.63,273.81,200.63z M230.8,196.62c-0.26,0-0.48-0.21-0.48-0.48v-2.82c0-0.26,0.21-0.48,0.48-0.48
		c0.26,0,0.48,0.21,0.48,0.48v2.82C231.28,196.41,231.06,196.62,230.8,196.62z M273.81,194.99c-0.26,0-0.48-0.21-0.48-0.48v-2.82
		c0-0.26,0.21-0.48,0.48-0.48s0.48,0.21,0.48,0.48v2.82C274.29,194.77,274.08,194.99,273.81,194.99z M230.8,190.97
		c-0.26,0-0.48-0.21-0.48-0.48v-2.82c0-0.26,0.21-0.48,0.48-0.48c0.26,0,0.48,0.21,0.48,0.48v2.82
		C231.28,190.76,231.06,190.97,230.8,190.97z M273.81,189.34c-0.26,0-0.48-0.21-0.48-0.48v-2.82c0-0.26,0.21-0.48,0.48-0.48
		s0.48,0.21,0.48,0.48v2.82C274.29,189.13,274.08,189.34,273.81,189.34z M230.8,185.32c-0.26,0-0.48-0.21-0.48-0.48v-2.82
		c0-0.26,0.21-0.48,0.48-0.48c0.26,0,0.48,0.21,0.48,0.48v2.82C231.28,185.11,231.06,185.32,230.8,185.32z M273.81,183.69
		c-0.26,0-0.48-0.21-0.48-0.48v-2.82c0-0.26,0.21-0.48,0.48-0.48s0.48,0.21,0.48,0.48v2.82
		C274.29,183.48,274.08,183.69,273.81,183.69z M230.8,179.68c-0.26,0-0.48-0.21-0.48-0.48v-2.82c0-0.26,0.21-0.48,0.48-0.48
		c0.26,0,0.48,0.21,0.48,0.48v2.82C231.28,179.47,231.06,179.68,230.8,179.68z M273.81,178.05c-0.26,0-0.48-0.21-0.48-0.48v-2.82
		c0-0.26,0.21-0.48,0.48-0.48s0.48,0.21,0.48,0.48v2.82C274.29,177.83,274.08,178.05,273.81,178.05z M230.8,174.03
		c-0.26,0-0.48-0.21-0.48-0.48v-1.97c0-0.35,0.06-0.68,0.18-1c0.09-0.25,0.37-0.37,0.61-0.28c0.25,0.09,0.37,0.37,0.28,0.61
		c-0.08,0.21-0.12,0.43-0.12,0.67v1.97C231.28,173.82,231.06,174.03,230.8,174.03z M273.81,172.4c-0.26,0-0.48-0.21-0.48-0.48v-0.34
		c0-0.67-0.36-1.3-0.95-1.63c-0.23-0.13-0.31-0.42-0.18-0.65c0.13-0.23,0.42-0.31,0.65-0.18c0.89,0.5,1.44,1.44,1.44,2.46v0.34
		C274.29,172.19,274.08,172.4,273.81,172.4z M269.84,169.72h-2.82c-0.26,0-0.48-0.21-0.48-0.48s0.21-0.48,0.48-0.48h2.82
		c0.26,0,0.48,0.21,0.48,0.48C270.32,169.5,270.1,169.72,269.84,169.72z M264.2,169.72h-2.82c-0.26,0-0.48-0.21-0.48-0.48
		s0.21-0.48,0.48-0.48h2.82c0.26,0,0.48,0.21,0.48,0.48C264.67,169.5,264.46,169.72,264.2,169.72z M258.55,169.72h-2.82
		c-0.26,0-0.48-0.21-0.48-0.48s0.21-0.48,0.48-0.48h2.82c0.26,0,0.48,0.21,0.48,0.48S258.81,169.72,258.55,169.72z M252.9,169.72
		h-2.82c-0.26,0-0.48-0.21-0.48-0.48s0.21-0.48,0.48-0.48h2.82c0.26,0,0.48,0.21,0.48,0.48S253.16,169.72,252.9,169.72z
		 M247.26,169.72h-2.82c-0.26,0-0.48-0.21-0.48-0.48s0.21-0.48,0.48-0.48h2.82c0.26,0,0.48,0.21,0.48,0.48
		C247.73,169.5,247.52,169.72,247.26,169.72z M241.61,169.72h-2.82c-0.26,0-0.48-0.21-0.48-0.48s0.21-0.48,0.48-0.48h2.82
		c0.26,0,0.48,0.21,0.48,0.48S241.87,169.72,241.61,169.72z M235.96,169.72h-2.82c-0.26,0-0.48-0.21-0.48-0.48s0.21-0.48,0.47-0.48
		h2.82c0.26,0,0.48,0.21,0.48,0.48C236.44,169.5,236.23,169.72,235.96,169.72z"/>
</g>
<g>
	<path class="st9" d="M453.73,383.59h-2.57c-0.23,0-0.42-0.19-0.42-0.42c0-0.23,0.19-0.42,0.42-0.42h2.55
		c0.23,0,0.43,0.19,0.43,0.42C454.14,383.4,453.96,383.59,453.73,383.59z M448.6,383.59h-2.55c-0.23,0-0.42-0.19-0.42-0.42
		c0-0.23,0.19-0.42,0.42-0.42h2.55c0.23,0,0.42,0.19,0.42,0.42S448.84,383.59,448.6,383.59z M443.5,383.59h-2.55
		c-0.23,0-0.42-0.19-0.42-0.42c0-0.23,0.19-0.42,0.42-0.42h2.55c0.23,0,0.42,0.19,0.42,0.42
		C443.92,383.4,443.73,383.59,443.5,383.59z M438.4,383.59h-2.55c-0.23,0-0.42-0.19-0.42-0.42c0-0.23,0.19-0.42,0.42-0.42h2.55
		c0.23,0,0.42,0.19,0.42,0.42S438.63,383.59,438.4,383.59z M433.3,383.59h-2.55c-0.23,0-0.42-0.19-0.42-0.42
		c0-0.23,0.19-0.42,0.42-0.42h2.55c0.23,0,0.42,0.19,0.42,0.42C433.72,383.4,433.53,383.59,433.3,383.59z M428.19,383.59h-2.55
		c-0.23,0-0.42-0.19-0.42-0.42c0-0.23,0.19-0.42,0.42-0.42h2.55c0.23,0,0.42,0.19,0.42,0.42S428.43,383.59,428.19,383.59z
		 M423.09,383.59h-2.55c-0.23,0-0.42-0.19-0.42-0.42c0-0.23,0.19-0.42,0.42-0.42h2.55c0.23,0,0.42,0.19,0.42,0.42
		C423.51,383.4,423.32,383.59,423.09,383.59z M417.99,383.59h-2.55c-0.23,0-0.42-0.19-0.42-0.42c0-0.23,0.19-0.42,0.42-0.42h2.55
		c0.23,0,0.42,0.19,0.42,0.42S418.22,383.59,417.99,383.59z M412.88,383.59h-2.55c-0.23,0-0.42-0.19-0.42-0.42
		c0-0.23,0.19-0.42,0.42-0.42h2.55c0.23,0,0.42,0.19,0.42,0.42S413.12,383.59,412.88,383.59z M407.78,383.59h-2.47
		c-0.04,0-0.07,0-0.11,0c-0.23-0.01-0.41-0.21-0.4-0.44c0.01-0.23,0.2-0.42,0.44-0.4c0.02,0,0.04,0,0.07,0h2.47
		c0.23,0,0.42,0.19,0.42,0.42C408.21,383.4,408.01,383.59,407.78,383.59z M455.38,381.98c0,0-0.01,0-0.01,0
		c-0.23-0.01-0.42-0.2-0.41-0.43v-0.04V379c0-0.23,0.19-0.42,0.42-0.42c0.23,0,0.42,0.19,0.42,0.42v2.57
		C455.79,381.8,455.6,381.98,455.38,381.98z M403.65,381.91c-0.23,0-0.42-0.19-0.42-0.42v-2.55c0-0.23,0.19-0.42,0.42-0.42
		c0.23,0,0.42,0.19,0.42,0.42v2.55C404.07,381.72,403.88,381.91,403.65,381.91z M455.38,376.87c-0.23,0-0.42-0.19-0.42-0.42v-2.55
		c0-0.23,0.19-0.42,0.42-0.42c0.23,0,0.42,0.19,0.42,0.42v2.55C455.8,376.68,455.61,376.87,455.38,376.87z M403.65,376.8
		c-0.23,0-0.42-0.19-0.42-0.42v-2.55c0-0.23,0.19-0.42,0.42-0.42c0.23,0,0.42,0.19,0.42,0.42v2.55
		C404.07,376.61,403.88,376.8,403.65,376.8z M455.38,371.77c-0.23,0-0.42-0.19-0.42-0.42v-2.55c0-0.23,0.19-0.42,0.42-0.42
		c0.23,0,0.42,0.19,0.42,0.42v2.55C455.8,371.58,455.61,371.77,455.38,371.77z M403.65,371.7c-0.23,0-0.42-0.19-0.42-0.42v-2.49
		c0-0.03,0-0.06,0-0.08c0.01-0.23,0.2-0.42,0.44-0.4c0.23,0.01,0.42,0.21,0.4,0.44v0.05v2.49
		C404.07,371.51,403.88,371.7,403.65,371.7z M453.79,367.55c-0.01,0-0.01,0-0.02,0h-0.06h-2.47c-0.23,0-0.42-0.19-0.42-0.42
		s0.19-0.42,0.42-0.42h2.47c0.03,0,0.06,0,0.1,0c0.23,0.01,0.41,0.21,0.4,0.44C454.2,367.37,454.01,367.55,453.79,367.55z
		 M448.68,367.54h-2.55c-0.23,0-0.42-0.19-0.42-0.42s0.19-0.42,0.42-0.42h2.55c0.23,0,0.42,0.19,0.42,0.42
		S448.92,367.54,448.68,367.54z M443.58,367.54h-2.55c-0.23,0-0.42-0.19-0.42-0.42s0.19-0.42,0.42-0.42h2.55
		c0.23,0,0.42,0.19,0.42,0.42S443.81,367.54,443.58,367.54z M438.48,367.54h-2.55c-0.23,0-0.42-0.19-0.42-0.42s0.19-0.42,0.42-0.42
		h2.55c0.23,0,0.42,0.19,0.42,0.42S438.71,367.54,438.48,367.54z M433.38,367.54h-2.55c-0.23,0-0.42-0.19-0.42-0.42
		s0.19-0.42,0.42-0.42h2.55c0.23,0,0.42,0.19,0.42,0.42S433.61,367.54,433.38,367.54z M428.27,367.54h-2.55
		c-0.23,0-0.42-0.19-0.42-0.42s0.19-0.42,0.42-0.42h2.55c0.23,0,0.42,0.19,0.42,0.42S428.51,367.54,428.27,367.54z M423.17,367.54
		h-2.55c-0.23,0-0.42-0.19-0.42-0.42s0.19-0.42,0.42-0.42h2.55c0.23,0,0.42,0.19,0.42,0.42S423.4,367.54,423.17,367.54z
		 M418.07,367.54h-2.55c-0.23,0-0.42-0.19-0.42-0.42s0.19-0.42,0.42-0.42h2.55c0.23,0,0.42,0.19,0.42,0.42
		S418.3,367.54,418.07,367.54z M412.96,367.54h-2.55c-0.23,0-0.42-0.19-0.42-0.42s0.19-0.42,0.42-0.42h2.55
		c0.23,0,0.42,0.19,0.42,0.42S413.2,367.54,412.96,367.54z M407.86,367.54h-2.54c-0.23,0-0.43-0.19-0.43-0.42s0.18-0.42,0.42-0.42
		h2.55c0.23,0,0.42,0.19,0.42,0.42S408.09,367.54,407.86,367.54z"/>
</g>
<g>
	<path class="st9" d="M252.38,365.85h-2.55c-0.23,0-0.42-0.19-0.42-0.42c0-0.23,0.19-0.42,0.42-0.42h2.53
		c0.23,0,0.43,0.19,0.43,0.42C252.79,365.66,252.61,365.85,252.38,365.85z M247.3,365.85h-2.53c-0.23,0-0.42-0.19-0.42-0.42
		c0-0.23,0.19-0.42,0.42-0.42h2.53c0.23,0,0.42,0.19,0.42,0.42C247.72,365.66,247.53,365.85,247.3,365.85z M242.24,365.85h-2.53
		c-0.23,0-0.42-0.19-0.42-0.42c0-0.23,0.19-0.42,0.42-0.42h2.53c0.23,0,0.42,0.19,0.42,0.42
		C242.66,365.66,242.47,365.85,242.24,365.85z M237.18,365.85h-2.53c-0.23,0-0.42-0.19-0.42-0.42c0-0.23,0.19-0.42,0.42-0.42h2.53
		c0.23,0,0.42,0.19,0.42,0.42C237.6,365.66,237.42,365.85,237.18,365.85z M232.12,365.85h-2.53c-0.23,0-0.42-0.19-0.42-0.42
		c0-0.23,0.19-0.42,0.42-0.42h2.53c0.23,0,0.42,0.19,0.42,0.42C232.54,365.66,232.36,365.85,232.12,365.85z M227.06,365.85h-2.53
		c-0.23,0-0.42-0.19-0.42-0.42c0-0.23,0.19-0.42,0.42-0.42h2.53c0.23,0,0.42,0.19,0.42,0.42
		C227.49,365.66,227.3,365.85,227.06,365.85z M222,365.85h-2.53c-0.23,0-0.42-0.19-0.42-0.42c0-0.23,0.19-0.42,0.42-0.42H222
		c0.23,0,0.42,0.19,0.42,0.42C222.43,365.66,222.24,365.85,222,365.85z M216.95,365.85h-2.53c-0.23,0-0.42-0.19-0.42-0.42
		c0-0.23,0.19-0.42,0.42-0.42h2.53c0.23,0,0.42,0.19,0.42,0.42C217.37,365.66,217.18,365.85,216.95,365.85z M211.89,365.85h-2.53
		c-0.23,0-0.42-0.19-0.42-0.42c0-0.23,0.19-0.42,0.42-0.42h2.53c0.23,0,0.42,0.19,0.42,0.42
		C212.31,365.66,212.12,365.85,211.89,365.85z M206.83,365.85h-2.53c-0.23,0-0.42-0.19-0.42-0.42c0-0.23,0.19-0.42,0.42-0.42h2.53
		c0.23,0,0.42,0.19,0.42,0.42C207.25,365.66,207.06,365.85,206.83,365.85z M201.77,365.85h-2.53c-0.23,0-0.42-0.19-0.42-0.42
		c0-0.23,0.19-0.42,0.42-0.42h2.53c0.23,0,0.42,0.19,0.42,0.42C202.19,365.66,202,365.85,201.77,365.85z M196.71,365.85h-2.53
		c-0.23,0-0.42-0.19-0.42-0.42c0-0.23,0.19-0.42,0.42-0.42h2.53c0.23,0,0.42,0.19,0.42,0.42
		C197.13,365.66,196.94,365.85,196.71,365.85z M191.65,365.85h-2.53c-0.23,0-0.42-0.19-0.42-0.42c0-0.23,0.19-0.42,0.42-0.42h2.53
		c0.23,0,0.42,0.19,0.42,0.42C192.08,365.66,191.88,365.85,191.65,365.85z M186.59,365.85h-2.53c-0.23,0-0.42-0.19-0.42-0.42
		c0-0.23,0.19-0.42,0.42-0.42h2.53c0.23,0,0.42,0.19,0.42,0.42C187.02,365.66,186.83,365.85,186.59,365.85z M181.54,365.85h-2.53
		c-0.23,0-0.42-0.19-0.42-0.42c0-0.23,0.19-0.42,0.42-0.42h2.53c0.23,0,0.42,0.19,0.42,0.42
		C181.96,365.66,181.77,365.85,181.54,365.85z M176.47,365.85h-2.02c-0.19,0-0.38-0.01-0.56-0.03c-0.23-0.03-0.4-0.24-0.37-0.47
		c0.03-0.23,0.24-0.4,0.47-0.37c0.15,0.02,0.31,0.03,0.46,0.03h2.02c0.23,0,0.42,0.19,0.42,0.42
		C176.9,365.66,176.71,365.85,176.47,365.85z M254.76,365.12c-0.14,0-0.27-0.07-0.35-0.19c-0.13-0.2-0.08-0.46,0.11-0.59
		c0.64-0.43,1.13-1.03,1.43-1.74c0.09-0.22,0.34-0.32,0.55-0.23c0.22,0.09,0.32,0.33,0.23,0.55c-0.36,0.86-0.96,1.59-1.74,2.12
		C254.92,365.1,254.84,365.12,254.76,365.12z M171.66,364.83c-0.1,0-0.2-0.03-0.27-0.1c-0.71-0.61-1.23-1.4-1.48-2.3
		c-0.06-0.22,0.07-0.46,0.29-0.52c0.22-0.07,0.46,0.07,0.52,0.29c0.21,0.74,0.63,1.39,1.22,1.89c0.18,0.15,0.2,0.42,0.05,0.6
		C171.9,364.77,171.78,364.83,171.66,364.83z M256.67,360.71c-0.23,0-0.42-0.19-0.42-0.42v-2.53c0-0.23,0.19-0.42,0.42-0.42
		c0.23,0,0.42,0.19,0.42,0.42v2.53C257.09,360.52,256.9,360.71,256.67,360.71z M170.15,360.21c-0.23,0-0.42-0.19-0.42-0.42v-2.53
		c0-0.23,0.19-0.42,0.42-0.42c0.23,0,0.42,0.19,0.42,0.42v2.53C170.57,360.03,170.38,360.21,170.15,360.21z M256.67,355.65
		c-0.23,0-0.42-0.19-0.42-0.42v-2.53c0-0.23,0.19-0.42,0.42-0.42c0.23,0,0.42,0.19,0.42,0.42v2.53
		C257.09,355.46,256.9,355.65,256.67,355.65z M170.15,355.16c-0.23,0-0.42-0.19-0.42-0.42v-2.53c0-0.23,0.19-0.42,0.42-0.42
		c0.23,0,0.42,0.19,0.42,0.42v2.53C170.57,354.97,170.38,355.16,170.15,355.16z M256.67,350.59c-0.23,0-0.42-0.19-0.42-0.42v-2.53
		c0-0.23,0.19-0.42,0.42-0.42c0.23,0,0.42,0.19,0.42,0.42v2.53C257.09,350.4,256.9,350.59,256.67,350.59z M170.15,350.1
		c-0.23,0-0.42-0.19-0.42-0.42v-2.53c0-0.23,0.19-0.42,0.42-0.42c0.23,0,0.42,0.19,0.42,0.42v2.53
		C170.57,349.91,170.38,350.1,170.15,350.1z M256.67,345.53c-0.23,0-0.42-0.19-0.42-0.42v-2.53c0-0.23,0.19-0.42,0.42-0.42
		c0.23,0,0.42,0.19,0.42,0.42v2.53C257.09,345.34,256.9,345.53,256.67,345.53z M170.15,345.04c-0.23,0-0.42-0.19-0.42-0.42v-2.53
		c0-0.23,0.19-0.42,0.42-0.42c0.23,0,0.42,0.19,0.42,0.42v2.53C170.57,344.85,170.38,345.04,170.15,345.04z M256.67,340.47
		c-0.23,0-0.42-0.19-0.42-0.42v-2.53c0-0.23,0.19-0.42,0.42-0.42c0.23,0,0.42,0.19,0.42,0.42v2.53
		C257.09,340.29,256.9,340.47,256.67,340.47z M170.15,339.98c-0.23,0-0.42-0.19-0.42-0.42v-2.53c0-0.23,0.19-0.42,0.42-0.42
		c0.23,0,0.42,0.19,0.42,0.42v2.53C170.57,339.79,170.38,339.98,170.15,339.98z M256.67,335.41c-0.23,0-0.42-0.19-0.42-0.42v-2.53
		c0-0.23,0.19-0.42,0.42-0.42c0.23,0,0.42,0.19,0.42,0.42v2.53C257.09,335.23,256.9,335.41,256.67,335.41z M170.15,334.92
		c-0.23,0-0.42-0.19-0.42-0.42v-2.53c0-0.23,0.19-0.42,0.42-0.42c0.23,0,0.42,0.19,0.42,0.42v2.53
		C170.57,334.73,170.38,334.92,170.15,334.92z M256.67,330.36c-0.23,0-0.42-0.19-0.42-0.42v-2.53c0-0.23,0.19-0.42,0.42-0.42
		c0.23,0,0.42,0.19,0.42,0.42v2.53C257.09,330.16,256.9,330.36,256.67,330.36z M170.15,329.86c-0.23,0-0.42-0.19-0.42-0.42v-2.53
		c0-0.23,0.19-0.42,0.42-0.42c0.23,0,0.42,0.19,0.42,0.42v2.53C170.57,329.68,170.38,329.86,170.15,329.86z M256.67,325.3
		c-0.23,0-0.42-0.19-0.42-0.42v-2.53c0-0.23,0.19-0.42,0.42-0.42c0.23,0,0.42,0.19,0.42,0.42v2.53
		C257.09,325.11,256.9,325.3,256.67,325.3z M170.15,324.8c-0.23,0-0.42-0.19-0.42-0.42v-2.53c0-0.23,0.19-0.42,0.42-0.42
		c0.23,0,0.42,0.19,0.42,0.42v2.53C170.57,324.62,170.38,324.8,170.15,324.8z M256.67,320.24c-0.23,0-0.42-0.19-0.42-0.42v-2.53
		c0-0.23,0.19-0.42,0.42-0.42c0.23,0,0.42,0.19,0.42,0.42v2.53C257.09,320.05,256.9,320.24,256.67,320.24z M170.15,319.75
		c-0.23,0-0.42-0.19-0.42-0.42v-2.53c0-0.23,0.19-0.42,0.42-0.42c0.23,0,0.42,0.19,0.42,0.42v2.53
		C170.57,319.55,170.38,319.75,170.15,319.75z M256.67,315.18c-0.23,0-0.42-0.19-0.42-0.42v-2.53c0-0.23,0.19-0.42,0.42-0.42
		c0.23,0,0.42,0.19,0.42,0.42v2.53C257.09,314.99,256.9,315.18,256.67,315.18z M170.15,314.69c-0.23,0-0.42-0.19-0.42-0.42v-2.53
		c0-0.23,0.19-0.42,0.42-0.42c0.23,0,0.42,0.19,0.42,0.42v2.53C170.57,314.5,170.38,314.69,170.15,314.69z M256.67,310.12
		c-0.23,0-0.42-0.19-0.42-0.42v-2.53c0-0.23,0.19-0.42,0.42-0.42c0.23,0,0.42,0.19,0.42,0.42v2.53
		C257.09,309.93,256.9,310.12,256.67,310.12z M170.15,309.63c-0.23,0-0.42-0.19-0.42-0.42v-2.53c0-0.23,0.19-0.42,0.42-0.42
		c0.23,0,0.42,0.19,0.42,0.42v2.53C170.57,309.44,170.38,309.63,170.15,309.63z M256.5,305.08c-0.18,0-0.35-0.12-0.4-0.31
		c-0.21-0.74-0.64-1.39-1.22-1.89c-0.18-0.15-0.2-0.42-0.05-0.6c0.15-0.18,0.42-0.2,0.6-0.05c0.71,0.61,1.23,1.4,1.49,2.3
		c0.07,0.22-0.07,0.46-0.29,0.52C256.58,305.07,256.54,305.08,256.5,305.08z M170.48,304.61c-0.06,0-0.11-0.01-0.16-0.03
		c-0.21-0.09-0.32-0.34-0.23-0.55c0.36-0.86,0.96-1.59,1.74-2.11c0.2-0.13,0.46-0.08,0.59,0.12s0.08,0.46-0.12,0.59
		c-0.64,0.43-1.13,1.03-1.43,1.74C170.8,304.52,170.65,304.61,170.48,304.61z M252.86,301.99c-0.01,0-0.03,0-0.05,0
		c-0.15-0.02-0.3-0.03-0.45-0.03h-2.03c-0.23,0-0.42-0.19-0.42-0.42c0-0.23,0.19-0.42,0.42-0.42h2.03c0.18,0,0.37,0.01,0.55,0.03
		c0.23,0.03,0.4,0.24,0.37,0.47C253.25,301.83,253.07,301.99,252.86,301.99z M247.8,301.96h-2.53c-0.23,0-0.42-0.19-0.42-0.42
		c0-0.23,0.19-0.42,0.42-0.42h2.53c0.23,0,0.42,0.19,0.42,0.42C248.22,301.78,248.03,301.96,247.8,301.96z M242.74,301.96h-2.53
		c-0.23,0-0.42-0.19-0.42-0.42c0-0.23,0.19-0.42,0.42-0.42h2.53c0.23,0,0.42,0.19,0.42,0.42S242.97,301.96,242.74,301.96z
		 M237.68,301.96h-2.53c-0.23,0-0.42-0.19-0.42-0.42c0-0.23,0.19-0.42,0.42-0.42h2.53c0.23,0,0.42,0.19,0.42,0.42
		C238.1,301.78,237.92,301.96,237.68,301.96z M232.62,301.96h-2.53c-0.23,0-0.42-0.19-0.42-0.42c0-0.23,0.19-0.42,0.42-0.42h2.53
		c0.23,0,0.42,0.19,0.42,0.42S232.86,301.96,232.62,301.96z M227.56,301.96h-2.53c-0.23,0-0.42-0.19-0.42-0.42
		c0-0.23,0.19-0.42,0.42-0.42h2.53c0.23,0,0.42,0.19,0.42,0.42S227.8,301.96,227.56,301.96z M222.51,301.96h-2.53
		c-0.23,0-0.42-0.19-0.42-0.42c0-0.23,0.19-0.42,0.42-0.42h2.53c0.23,0,0.42,0.19,0.42,0.42S222.74,301.96,222.51,301.96z
		 M217.45,301.96h-2.53c-0.23,0-0.42-0.19-0.42-0.42c0-0.23,0.19-0.42,0.42-0.42h2.53c0.23,0,0.42,0.19,0.42,0.42
		S217.68,301.96,217.45,301.96z M212.39,301.96h-2.53c-0.23,0-0.42-0.19-0.42-0.42c0-0.23,0.19-0.42,0.42-0.42h2.53
		c0.23,0,0.42,0.19,0.42,0.42C212.81,301.78,212.62,301.96,212.39,301.96z M207.33,301.96h-2.53c-0.23,0-0.42-0.19-0.42-0.42
		c0-0.23,0.19-0.42,0.42-0.42h2.53c0.23,0,0.42,0.19,0.42,0.42S207.56,301.96,207.33,301.96z M202.27,301.96h-2.53
		c-0.23,0-0.42-0.19-0.42-0.42c0-0.23,0.19-0.42,0.42-0.42h2.53c0.23,0,0.42,0.19,0.42,0.42S202.51,301.96,202.27,301.96z
		 M197.21,301.96h-2.53c-0.23,0-0.42-0.19-0.42-0.42c0-0.23,0.19-0.42,0.42-0.42h2.53c0.23,0,0.42,0.19,0.42,0.42
		S197.45,301.96,197.21,301.96z M192.15,301.96h-2.53c-0.23,0-0.42-0.19-0.42-0.42c0-0.23,0.19-0.42,0.42-0.42h2.53
		c0.23,0,0.42,0.19,0.42,0.42S192.39,301.96,192.15,301.96z M187.1,301.96h-2.53c-0.23,0-0.42-0.19-0.42-0.42
		c0-0.23,0.19-0.42,0.42-0.42h2.53c0.23,0,0.42,0.19,0.42,0.42C187.52,301.78,187.33,301.96,187.1,301.96z M182.04,301.96h-2.53
		c-0.23,0-0.42-0.19-0.42-0.42c0-0.23,0.19-0.42,0.42-0.42h2.53c0.23,0,0.42,0.19,0.42,0.42
		C182.46,301.78,182.27,301.96,182.04,301.96z M176.98,301.96h-2.52c-0.23,0-0.43-0.19-0.43-0.42c0-0.23,0.18-0.42,0.42-0.42h2.53
		c0.23,0,0.42,0.19,0.42,0.42C177.4,301.78,177.21,301.96,176.98,301.96z"/>
</g>
<g>
	<path class="st4" d="M276.96,288.32H174.73c-2.2,0-3.99-1.79-3.99-4v-55.9c0-2.2,1.79-3.99,3.99-3.99h102.23
		c2.2,0,3.99,1.79,3.99,3.99v55.9C280.96,286.53,279.17,288.32,276.96,288.32z"/>
	<path class="st3" d="M213.41,243.7v25.35c0,1.59,1.76,2.54,3.08,1.66l19.26-12.67c1.2-0.79,1.2-2.54,0-3.33l-19.26-12.67
		C215.17,241.17,213.41,242.12,213.41,243.7z"/>
	<g>
		<path class="st9" d="M176.46,282.56c0-1.09,0.89-1.98,1.98-1.98c1.09,0,1.98,0.89,1.98,1.98c0,1.09-0.89,1.98-1.98,1.98
			C177.35,284.54,176.46,283.65,176.46,282.56z"/>
		<path class="st9" d="M268.44,283.09h-89.47c-0.29,0-0.53-0.24-0.53-0.53l0,0c0-0.29,0.24-0.53,0.53-0.53h89.47
			c0.29,0,0.53,0.24,0.53,0.53l0,0C268.98,282.85,268.74,283.09,268.44,283.09z"/>
	</g>
</g>
<rect x="273.81" y="301.54" class="st4" width="57.02" height="85.12"/>
<g>
	<g>
		<g>
			<path class="st9" d="M307.8,328.89h-0.78v-3.51c0-1.26,1.02-2.28,2.28-2.28h9.65c0.68,0,1.28-0.46,1.45-1.12l1.53-5.8
				c0.12-0.45,0.02-0.93-0.26-1.3c-0.29-0.37-0.72-0.59-1.19-0.59h-12.59v-0.78h12.59c0.71,0,1.37,0.32,1.81,0.89
				c0.43,0.56,0.58,1.28,0.4,1.97l-1.53,5.8c-0.26,1-1.17,1.7-2.2,1.7h-9.65c-0.83,0-1.5,0.67-1.5,1.5L307.8,328.89L307.8,328.89z"
				/>
		</g>
		<path class="st3" d="M316.87,317.2h-16.58c-1.4,0-2.53-1.13-2.53-2.53v-1.52c0-1.4,1.13-2.53,2.53-2.53h16.58
			c1.4,0,2.53,1.13,2.53,2.53v1.52C319.4,316.06,318.26,317.2,316.87,317.2z"/>
		<path class="st9" d="M307.41,343.45L307.41,343.45c-1.19,0-2.15-0.96-2.15-2.15v-13c0-1.19,0.96-2.15,2.15-2.15l0,0
			c1.19,0,2.15,0.96,2.15,2.15v13C309.55,342.49,308.59,343.45,307.41,343.45z"/>
	</g>
	<g>
		<path class="st6" d="M389.5,371.64c0,0,1.48,4.55,1.35,5.58c-0.13,1.04-1.05,4.59-1.71,5.5s-0.99-3.7-1.51-4.4
			c-0.52-0.7-0.11,1.74-0.48,1.96c-0.37,0.22-1.14-1.79-1.47-2.5c-0.33-0.71,0.81-3.33,0.81-5.15
			C386.48,370.81,389.5,371.64,389.5,371.64z"/>
		<path class="st9" d="M354.79,335.54c-0.41-5.21,5.25-8.78,9.72-6.08c0.09,0.06,0.18,0.11,0.27,0.17
			c6.69,4.31,21.13,24.41,22.13,26.42c0.99,2.01,3.93,18.03,3.93,18.03s-3.63,1.32-5.32-0.05c0,0-5.88-15.19-6.75-15.95
			c-0.87-0.76-23.51-13.47-23.71-18.23C355.01,338.6,354.91,337.08,354.79,335.54z"/>
	</g>
	<g>
		<path class="st8" d="M395.2,453.19c0,0,2.7,2.46,2.17,4.21c-0.53,1.75-2.96,2.91-3.29,5.05c-0.33,2.14-1.65,3.3-2.83,3.3
			c-1.19,0-5.65,0-5.65,0s-0.87-1.51,1.23-1.96s2.9-2.97,2.77-5.3c-0.13-2.33,0.2-5.44,0.2-5.44l4.48-1.04L395.2,453.19z"/>
		<path class="st8" d="M362.09,459.56c0,0,0.49,5.61-0.7,6.19l-15.16-0.03c0,0,0-1.75,2.44-2.14c2.44-0.39,6.71-1.81,7.44-4.99
			C356.83,455.41,362.09,459.56,362.09,459.56z"/>
		<path class="st3" d="M349.29,380.39c0,0,0.8,9.82,1.74,21.63c1.28,16.04,2.81,35.75,2.97,39.48c0.26,6.48,1.32,16.85,1.32,16.85
			s2.5,2.46,7.5,1.42c0,0,4.46-14.8,5.73-30.46c0.02-0.26,0.04-0.52,0.06-0.77c1.19-15.94,3.03-49.51,3.03-49.51L349.29,380.39z"/>
		<path class="st12" d="M349.29,380.39c0,0,0.8,9.82,1.74,21.63l17.52,27.29c0.02-0.26,0.04-0.52,0.06-0.77
			c1.19-15.94,3.03-49.51,3.03-49.51L349.29,380.39z"/>
		<path class="st3" d="M352.95,381.56c0,0,14.41,35.58,23.89,52.3c9.48,16.72,12.44,21.39,12.44,21.39s5.43-2.14,5.92-3.6
			c0,0-3.63-32.28-9.97-40.15c-3.58-4.45-7.8-17.79-8-22.45c-0.2-4.67-1.28-13.9-1.28-13.9L352.95,381.56z"/>
	</g>
	<path class="st6" d="M365.38,328.19c0,0-9.66,4.9-15.31,3.26c0,0,1.35-1.77,3.74-3.12c-0.22-1.13-0.39-2.1-0.49-2.93
		c-0.28-1.91-0.3-3-0.3-3l3.7-3.03l3.51-2.9C360.11,324.44,365.38,328.19,365.38,328.19z"/>
	<path class="st7" d="M374.97,377.96c-3.9,2.36-7.59,4.13-11.91,5.13c-5.09,1.21-11.36,0.85-13.45,1.17
		c-0.22,0.03-0.42-0.03-0.61-0.15c-0.17-0.08-1.09-6.3-2.02-14.14c-0.04-0.32-0.08-0.63-0.1-0.95l-0.01-0.11
		c-0.36-3.07-0.68-6.29-0.95-9.52c-0.22-2.51-0.41-5-0.53-7.33c-0.16-2.92-0.23-5.6-0.16-7.81c0.03-1.01,0.09-1.91,0.18-2.7
		c0.55-4.58,2.74-7.86,4.8-10.29l1.71-1.94c1.98,0.13,4-0.25,5.91-1.51c2.09-1.37,4.34-2.85,4.76-2.6c3.19,1.75,5.8,6.28,7.65,12.26
		c1.06,3.44,1.88,7.35,2.41,11.49c0.17,1.28,0.31,2.6,0.42,3.92c0.02,0.24,0.04,0.49,0.06,0.73c0.25,3.59,0.66,6.95,1.12,9.95
		c0.61,4.05,1.31,7.44,1.8,9.83c0.25,1.21,0.43,2.16,0.54,2.83C376.67,376.79,375.49,377.63,374.97,377.96z"/>
	<path class="st11" d="M360.36,319.52c0,0-2.37,4.54-7.04,5.89c-0.28-1.91-0.3-3-0.3-3l3.7-3.03L360.36,319.52z"/>
	<path class="st6" d="M351.3,322.31c0,0,9.33,1.34,10.09-4.4c0.76-5.73,2.48-9.43-3.45-10.52s-7.38,0.95-8.1,2.8
		C349.11,312.05,348.89,321.82,351.3,322.31z"/>
	<path d="M364.55,306.58c0.08-0.1,0.28-0.18,0.71-0.21c0,0-0.35-0.21-0.81-0.21c-0.1-0.6-0.45-1.66-1.49-1.9
		c0,0,0.56,0.29,0.65,0.92c-1.23-1.21-3.82-2.06-10.93-1.35c-9.38,0.93-6.16,6.88-4.94,7.57c1.23,0.69,4.25-1.33,6.52-1.2
		c2.27,0.14,2.76,3.4,3.54,3.83c0.78,0.43,0.46-0.35,1.49-0.85c1.03-0.49,1.16,1.23,0.89,2.36c-0.28,1.13,1.18,2.58,1.18,2.58
		s0,0,1.41-1.58c1.41-1.58,2.64-8.2,1.96-9.59C364.67,306.83,364.61,306.7,364.55,306.58z"/>
	<path class="st9" d="M361.58,344.76c0,0-7.87,5.99-16.21,7.3c-0.16-2.92-0.23-5.6-0.16-7.81L361.58,344.76z"/>
	<g>
		<path class="st6" d="M313.27,337.03c-0.13-0.13-1.73-5.49-4.5-5.1c-1.81,0.25-4.77,1.3-3.98,3.69c0.31,0.94,5.83,4.17,5.83,4.17
			L313.27,337.03z"/>
		<path class="st7" d="M362.56,333.19c4.49,2.68,4.12,9.37-0.68,11.45c-0.1,0.04-0.2,0.08-0.3,0.13c-7.39,2.96-32.14,3.1-34.36,2.75
			c-2.22-0.36-16.98-7.24-16.98-7.24s1.02-3.72,3.12-4.31c0,0,15.79,4,16.91,3.73c1.12-0.27,24.59-11.38,28.59-8.78
			C359.94,331.6,361.23,332.39,362.56,333.19z"/>
	</g>
</g>
<g>
	<path class="st9" d="M529.05,157.11h-19.7c-0.83,0-1.51-0.68-1.51-1.51l0,0c0-0.83,0.68-1.51,1.51-1.51h19.7
		c0.83,0,1.51,0.68,1.51,1.51l0,0C530.56,156.43,529.88,157.11,529.05,157.11z"/>
	<path class="st9" d="M529.05,162.99h-19.7c-0.83,0-1.51-0.68-1.51-1.51l0,0c0-0.83,0.68-1.51,1.51-1.51h19.7
		c0.83,0,1.51,0.68,1.51,1.51l0,0C530.56,162.31,529.88,162.99,529.05,162.99z"/>
	<path class="st9" d="M529.05,169.02h-19.7c-0.83,0-1.51-0.68-1.51-1.51l0,0c0-0.83,0.68-1.51,1.51-1.51h19.7
		c0.83,0,1.51,0.68,1.51,1.51l0,0C530.56,168.35,529.88,169.02,529.05,169.02z"/>
</g>
<path class="st4" d="M451.91,311.08H405c-1.1,0-2-0.9-2-1.99l0,0c0-1.1,0.9-2,2-2h46.9c1.1,0,2,0.9,2,2l0,0
	C453.9,310.18,453,311.08,451.91,311.08z"/>
<path class="st4" d="M222.63,174.04h-46.9c-1.1,0-1.99-0.9-1.99-1.99l0,0c0-1.1,0.9-2,1.99-2h46.9c1.1,0,1.99,0.9,1.99,2l0,0
	C224.63,173.15,223.73,174.04,222.63,174.04z"/>
<path class="st4" d="M451.91,330.89H405c-1.1,0-2-0.9-2-1.99l0,0c0-1.1,0.9-2,2-2h46.9c1.1,0,2,0.9,2,2l0,0
	C453.9,329.99,453,330.89,451.91,330.89z"/>
<path class="st4" d="M451.91,320.98h-56.1c-1.1,0-2-0.9-2-2l0,0c0-1.1,0.9-1.99,2-1.99h56.1c1.1,0,2,0.9,2,1.99l0,0
	C453.9,320.08,453,320.98,451.91,320.98z"/>
<g>
	<path class="st4" d="M208.71,186.6h-26.46c-0.84,0-1.52-0.68-1.52-1.52v-0.95c0-0.84,0.68-1.52,1.52-1.52h26.46
		c0.84,0,1.52,0.68,1.52,1.52v0.95C210.23,185.91,209.55,186.6,208.71,186.6z"/>
	<path class="st4" d="M171.96,184.6c0-1.1,0.89-1.99,1.99-1.99c1.1,0,2,0.89,2,1.99c0,1.1-0.89,2-2,2
		C172.85,186.6,171.96,185.7,171.96,184.6z"/>
</g>
<g>
	<path class="st9" d="M213.73,194.54h-31.36c-0.91,0-1.65-0.74-1.65-1.65v-0.7c0-0.91,0.74-1.65,1.65-1.65h31.36
		c0.91,0,1.65,0.74,1.65,1.65v0.7C215.38,193.8,214.64,194.54,213.73,194.54z"/>
	<path class="st9" d="M171.96,192.55c0-1.1,0.89-1.99,1.99-1.99c1.1,0,2,0.89,2,1.99c0,1.1-0.89,1.99-2,1.99
		C172.85,194.54,171.96,193.65,171.96,192.55z"/>
</g>
<g>
	<path class="st4" d="M208.71,203.17h-26.46c-0.84,0-1.52-0.68-1.52-1.52v-0.95c0-0.84,0.68-1.52,1.52-1.52h26.46
		c0.84,0,1.52,0.68,1.52,1.52v0.95C210.23,202.49,209.55,203.17,208.71,203.17z"/>
	<path class="st4" d="M171.96,201.17c0-1.1,0.89-2,1.99-2c1.1,0,2,0.89,2,2c0,1.1-0.89,1.99-2,1.99
		C172.85,203.17,171.96,202.28,171.96,201.17z"/>
</g>
<g>
	<g>
		<path class="st9" d="M256.85,191.07c-0.35,0.05-0.7,0.07-1.06,0.07c-1.88-0.02-3.64-0.78-4.96-2.12
			c-2.72-2.78-2.66-7.25,0.11-9.96l0,0c2.78-2.72,7.25-2.66,9.96,0.11c2.72,2.78,2.66,7.25-0.11,9.96
			C259.71,190.2,258.33,190.87,256.85,191.07z M251.77,179.89c-2.32,2.27-2.36,6-0.1,8.32c1.1,1.12,2.57,1.75,4.14,1.77
			c1.57,0.02,3.05-0.58,4.18-1.67c2.32-2.27,2.36-6,0.1-8.32S254.09,177.62,251.77,179.89L251.77,179.89z"/>
	</g>
	
		<rect x="243.01" y="191.4" transform="matrix(0.7153 -0.6989 0.6989 0.7153 -63.6053 227.8578)" class="st13" width="9.61" height="1.16"/>
	<path class="st9" d="M241.99,197.66L241.99,197.66c-0.4-0.41-0.39-1.06,0.02-1.46l4.05-3.96c0.41-0.4,1.06-0.39,1.46,0.02l0,0
		c0.4,0.41,0.39,1.06-0.02,1.46l-4.05,3.96C243.05,198.08,242.39,198.07,241.99,197.66z"/>
</g>
<g>
	<path class="st3" d="M513.25,465.89L513.25,465.89c-0.9,0-1.84-0.64-2.11-1.45l-54.12-164.78c-0.26-0.81,0.25-1.46,1.15-1.47l0,0
		c0.9,0,1.84,0.64,2.11,1.45l54.12,164.78C514.66,465.23,514.15,465.89,513.25,465.89z"/>
	<path class="st3" d="M556.87,465.64L556.87,465.64c-0.9,0-1.84-0.64-2.11-1.45l-54.12-164.78c-0.26-0.81,0.25-1.46,1.15-1.47l0,0
		c0.9,0,1.84,0.64,2.11,1.45l54.12,164.78C558.28,464.98,557.76,465.63,556.87,465.64z"/>
	<path class="st3" d="M509.9,322.37l-43.8,0.25c-0.84,0-1.74-0.61-1.99-1.37l0,0c-0.25-0.76,0.24-1.38,1.08-1.39l43.8-0.25
		c0.84,0,1.74,0.61,1.99,1.37l0,0C511.23,321.74,510.75,322.37,509.9,322.37z"/>
	<path class="st3" d="M519.35,351.14l-43.8,0.25c-0.84,0-1.74-0.61-1.99-1.37l0,0c-0.25-0.76,0.24-1.38,1.08-1.39l43.8-0.25
		c0.84,0,1.74,0.61,1.99,1.37l0,0C520.69,350.51,520.2,351.13,519.35,351.14z"/>
	<path class="st3" d="M528.45,378.85l-43.8,0.25c-0.84,0-1.74-0.61-1.99-1.37l0,0c-0.25-0.76,0.24-1.38,1.08-1.39l43.8-0.25
		c0.84,0,1.74,0.61,1.99,1.37l0,0C529.78,378.22,529.3,378.84,528.45,378.85z"/>
	<path class="st3" d="M538.7,410.04l-43.8,0.25c-0.84,0-1.74-0.61-1.99-1.37l0,0c-0.25-0.76,0.24-1.38,1.08-1.39l43.8-0.25
		c0.84,0,1.74,0.61,1.99,1.37l0,0C540.03,409.42,539.54,410.04,538.7,410.04z"/>
	<path class="st3" d="M549.42,442.7l-43.8,0.25c-0.84,0-1.74-0.61-1.99-1.37l0,0c-0.25-0.76,0.24-1.38,1.08-1.39l43.8-0.25
		c0.84,0,1.74,0.61,1.99,1.37l0,0C550.75,442.07,550.27,442.69,549.42,442.7z"/>
</g>
<g>
	<path class="st13" d="M455.13,224.19L455.13,224.19c-0.34,0.07-0.68-0.16-0.74-0.5l-0.7-3.62c-0.07-0.34,0.16-0.68,0.5-0.74l0,0
		c0.34-0.07,0.68,0.16,0.74,0.5l0.7,3.62C455.7,223.79,455.48,224.13,455.13,224.19z"/>
	
		<rect x="453.3" y="213.18" transform="matrix(0.9818 -0.19 0.19 0.9818 -32.7489 90.0989)" class="st13" width="0.44" height="5.33"/>
	<path class="st6" d="M453.23,183.72c0,0-0.41-3.6-1.29-4.98c-0.87-1.38-4.17-2.26-4.38-2.06c-0.65,0.63,1.91,2.84,2.01,3.65
		c0.1,0.82-1.3,0.25-0.63,1.84c0.57,1.34,2.44,3.08,2.44,3.08L453.23,183.72z"/>
	<path class="st12" d="M451.63,183.32c1.2-0.95,1.46-0.93,1.46-0.93s11.14,9.65,12.22,10.51c1.09,0.86,17.81,5.71,17.81,5.71
		l2.66,13.6c0,0-22.63-10.93-25.34-13.16c-4.47-3.69-10.11-14-10.11-14S450.69,184.06,451.63,183.32z"/>
	<path class="st9" d="M483.49,314c0,0-0.19,4.65-1.09,5.78l-12.41,0.07c0.08-0.48,0.14-1.59,1.85-1.89
		c2.17-0.38,4.72-1.89,6.03-4.76C479.26,310.19,483.49,314,483.49,314z"/>
	<path class="st9" d="M507.85,313.33c0,0,0.86,6.18-0.31,6.28c-0.15,0.01-5,0.09-7.1,0.13c-2.47,0.04-6.53-0.04-6.53-0.04
		c-0.51,0.02-0.84-0.53-0.59-0.97c0.28-0.48,0.83-1,1.87-1.2c2.16-0.42,5.76-2.01,7.03-4.89
		C503.55,309.6,507.85,313.33,507.85,313.33z"/>
	<path class="st9" d="M477.03,250.06c0,0,3.45,12.08,13.34,33.06c9.89,20.98,10.32,31.08,10.32,31.08s1.5,0.53,3.49,0.32
		c2.15-0.23,3.67-1.19,3.67-1.19s-0.64-24.97-5.31-35.55c-4.67-10.58-5.63-39.55-5.63-39.55L477.03,250.06z"/>
	<path class="st7" d="M471.49,239.67c0,0-0.28,18.7,2.96,41.67c3.23,22.96,1.72,33.64,1.72,33.64s0.86,0.63,3.5,0.61
		c3.09-0.01,4.67-1.29,4.67-1.29s4.63-22.97,3.3-34.47c-1.33-11.49,6.34-39.44,6.34-39.44L471.49,239.67z"/>
	<path class="st6" d="M486.78,195.9l-3.65,2.71l-5.28-1.11c0.07-0.48,0.42-2.48,0.74-4.29c0.02-0.11,0.04-0.21,0.06-0.32
		c0.27-1.54,0.51-2.86,0.51-2.86l4.94-2.46l1.84-0.92c0,0.03-0.14,1.71-0.16,1.95C485.41,192.95,486.78,195.9,486.78,195.9z"/>
	<path class="st3" d="M497.25,241.98c-1.2,5.47-26.78,3.07-26.44-0.27c0.01-0.11,0.08-1.66,0.17-3.74c0.2-4.5,0.49-11.54,0.53-12.09
		c0-0.01,0-0.02,0-0.03c0.46-4.65,0.9-9.19,0.93-12.16c0.03-2.58,0.38-5.21,0.85-7.6c0.43-2.2,0.97-4.21,1.44-5.77
		c0.33-1.1,0.94-2.06,1.74-2.83c0.57-0.54,1.25-0.98,1.99-1.27c0.2-0.08,0.41-0.15,0.62-0.22c3.01-0.87,7.18-1.95,8.31-1.62
		c3.06,0.9,5.33,6.28,6.94,13.15C497.34,220.38,498.03,238.42,497.25,241.98z"/>
	<path class="st11" d="M485.39,188.68c-1.08,2.07-5.12,3.87-6.8,4.53c0.02-0.11,0.04-0.21,0.06-0.32c0.27-1.54,0.51-2.86,0.51-2.86
		l4.94-2.46C485.17,187.56,485.84,187.83,485.39,188.68z"/>
	<path class="st6" d="M476.75,189.74c0,0,8.9,2.78,10.55-2.79c1.65-5.57,3.9-8.97-1.72-10.97c-5.62-2.01-7.35-0.21-8.35,1.52
		C476.23,179.22,474.48,188.88,476.75,189.74z"/>
	<path class="st15" d="M477.58,176.96c0,0,0.57,6.48,1.91,6.2c1.34-0.28,2.56-0.49,2.36,1.46c-0.2,1.95-2.05,4.21,2.08,4.56
		c4.13,0.35,10.07-10.31,8.94-12.33C489.58,171.03,472.85,169.85,477.58,176.96z"/>
	<path class="st10" d="M470.98,237.97c0.2-4.5,0.49-11.54,0.53-12.09c0-0.01,0-0.02,0-0.03l15.11-9.04
		C486.62,216.82,487.21,237.91,470.98,237.97z"/>
	<path class="st6" d="M458.97,219.07c0,0-3.07-2.08-3.65-2.26c-0.58-0.18-2.49-0.38-2.58-0.23c-0.09,0.15-0.35,0.61-0.02,0.77
		c0.33,0.15,0.75,0.1,0.63,0.21c-0.13,0.11-1.38-0.49-1.67,0.15c-0.29,0.64-0.54,2.83,0.93,3.5c1.47,0.67,5.11,0.06,5.37,0.14
		C460.2,221.99,458.97,219.07,458.97,219.07z"/>
	<path class="st12" d="M458.94,218.5c0,0,14.99,2.55,16.32,1.9c2.12-1.03-0.82-16.24-0.82-16.24s-0.13-3.45,3.9-4.26
		c3.5-0.71,6.87,1.91,6.87,1.91s3.07,2.75,2.68,5.79c-0.87,6.75-2.22,20.49-6.74,22.6c-5.83,2.72-22.69-7.53-22.69-7.53
		s-0.56-0.69-0.48-1.97C458.05,219.58,458.94,218.5,458.94,218.5z"/>
	<path class="st6" d="M448.87,181.99c0,0-0.96-1.91-1.11-2.26c-0.15-0.36,0.22-0.28,0.59-0.08c0.37,0.2,0.87,1.31,1.44,1.17
		C450.24,180.71,448.87,181.99,448.87,181.99z"/>
</g>
</svg>
