<?xml version="1.0" encoding="utf-8"?>
<!-- Generator: Adobe Illustrator 23.0.1, SVG Export Plug-In . SVG Version: 6.00 Build 0)  -->
<svg version="1.1" id="Layer_1" xmlns="http://www.w3.org/2000/svg" xmlns:xlink="http://www.w3.org/1999/xlink" x="0px" y="0px"
	 viewBox="0 0 650 500" style="enable-background:new 0 0 650 500;" xml:space="preserve">
<style type="text/css">
	.st0{fill:url(#SVGID_1_);}
	.st1{fill:url(#SVGID_2_);}
	.st2{fill:url(#SVGID_3_);}
	.st3{fill:url(#SVGID_4_);}
	.st4{fill:#B5D5EA;}
	.st5{fill:url(#SVGID_5_);}
	.st6{fill:url(#SVGID_6_);}
	.st7{fill:url(#SVGID_7_);}
	.st8{fill:url(#SVGID_8_);}
	.st9{fill:url(#SVGID_9_);}
	.st10{fill:url(#SVGID_10_);}
	.st11{fill:url(#SVGID_11_);}
	.st12{fill:#26314C;}
	.st13{fill:#3C4456;}
	.st14{fill:#EF4036;}
	.st15{fill:#C61717;}
	.st16{fill:url(#SVGID_12_);}
	.st17{fill:url(#SVGID_13_);}
	.st18{fill:url(#SVGID_14_);}
	.st19{fill:url(#SVGID_15_);}
	.st20{fill:url(#SVGID_16_);}
	.st21{fill:url(#SVGID_17_);}
	.st22{fill:url(#SVGID_18_);}
	.st23{fill:url(#SVGID_19_);}
	.st24{fill:url(#SVGID_20_);}
	.st25{fill:url(#SVGID_21_);}
	.st26{fill:url(#SVGID_22_);}
	.st27{fill:url(#SVGID_23_);}
	.st28{opacity:0.5;fill:url(#SVGID_24_);enable-background:new    ;}
	.st29{opacity:0.5;fill:url(#SVGID_25_);enable-background:new    ;}
	.st30{fill:#697182;}
	.st31{fill:#414A5C;}
	.st32{fill:#1F293D;}
	.st33{fill:url(#SVGID_26_);}
	.st34{fill:url(#SVGID_27_);}
	.st35{fill:#F17E59;}
	.st36{fill:url(#SVGID_28_);}
	.st37{fill:url(#SVGID_29_);}
	.st38{fill:url(#SVGID_30_);}
	.st39{fill:url(#SVGID_31_);}
	.st40{fill:url(#SVGID_32_);}
	.st41{fill:#FFFFFF;}
	.st42{fill:url(#SVGID_33_);}
	.st43{opacity:0.5;fill:url(#SVGID_34_);enable-background:new    ;}
	.st44{fill:#CEE5F2;}
	.st45{fill:url(#SVGID_35_);}
	.st46{fill:url(#SVGID_36_);}
	.st47{fill:url(#SVGID_37_);}
	.st48{fill:url(#SVGID_38_);}
</style>
<g>
	<g>
		
			<linearGradient id="SVGID_1_" gradientUnits="userSpaceOnUse" x1="1134.2169" y1="250.3419" x2="1134.2169" y2="66.5261" gradientTransform="matrix(-1 0 0 -1 1343.627 302.5551)">
			<stop  offset="2.700000e-07" style="stop-color:#FFFFFF"/>
			<stop  offset="1" style="stop-color:#B5D5EA"/>
		</linearGradient>
		<polygon class="st0" points="180.07,280.49 238.75,274.79 238.75,52.94 180.07,44.51 		"/>
		
			<linearGradient id="SVGID_2_" gradientUnits="userSpaceOnUse" x1="1121.147" y1="243.3431" x2="1121.147" y2="70.8775" gradientTransform="matrix(-1 0 0 -1 1343.627 302.5551)">
			<stop  offset="2.700000e-07" style="stop-color:#FFFFFF"/>
			<stop  offset="1" style="stop-color:#B5D5EA"/>
		</linearGradient>
		<polygon class="st1" points="212.22,160.08 232.74,160.22 232.74,268.72 212.22,270.78 		"/>
		
			<linearGradient id="SVGID_3_" gradientUnits="userSpaceOnUse" x1="1147.5769" y1="243.3434" x2="1147.5769" y2="70.878" gradientTransform="matrix(-1 0 0 -1 1343.627 302.5551)">
			<stop  offset="2.700000e-07" style="stop-color:#FFFFFF"/>
			<stop  offset="1" style="stop-color:#B5D5EA"/>
		</linearGradient>
		<polygon class="st2" points="206.23,160.04 206.23,271.37 185.87,273.4 185.87,159.9 		"/>
		
			<linearGradient id="SVGID_4_" gradientUnits="userSpaceOnUse" x1="1134.322" y1="243.3291" x2="1134.322" y2="70.5154" gradientTransform="matrix(-1 0 0 -1 1343.627 302.5551)">
			<stop  offset="2.700000e-07" style="stop-color:#FFFFFF"/>
			<stop  offset="1" style="stop-color:#B5D5EA"/>
		</linearGradient>
		<polygon class="st3" points="185.87,152.86 185.87,51.98 232.74,58.83 232.74,153.06 		"/>
		<polygon class="st4" points="185.87,71.24 185.87,51.98 232.74,58.83 		"/>
		<polygon class="st4" points="180.07,280.47 153.87,275.29 153.87,59.72 180.07,44.51 		"/>
	</g>
	
		<linearGradient id="SVGID_5_" gradientUnits="userSpaceOnUse" x1="494.3757" y1="-342.5722" x2="445.8791" y2="-295.9512" gradientTransform="matrix(-0.999 0.0205 0.0205 -0.5888 547.7326 194.6173)">
		<stop  offset="2.700000e-07" style="stop-color:#FFFFFF"/>
		<stop  offset="1" style="stop-color:#B5D5EA"/>
	</linearGradient>
	<polygon class="st5" points="125.64,383.41 40.01,429.21 0,411.09 93.99,375.13 	"/>
	<g>
		<g>
			
				<linearGradient id="SVGID_6_" gradientUnits="userSpaceOnUse" x1="90.66" y1="124.88" x2="130.26" y2="124.88" gradientTransform="matrix(1 0 0 -1 0 501)">
				<stop  offset="2.700000e-07" style="stop-color:#FFFFFF"/>
				<stop  offset="1" style="stop-color:#D8DCDF"/>
			</linearGradient>
			<path class="st6" d="M110.46,364.9c-10.94,0-19.8,5.03-19.8,11.22c0,6.2,8.86,11.22,19.8,11.22s19.8-5.03,19.8-11.22
				C130.26,369.93,121.4,364.9,110.46,364.9z"/>
		</g>
		
			<linearGradient id="SVGID_7_" gradientUnits="userSpaceOnUse" x1="85.8" y1="140.66" x2="135.14" y2="140.66" gradientTransform="matrix(1 0 0 -1 0 501)">
			<stop  offset="2.700000e-07" style="stop-color:#FFFFFF"/>
			<stop  offset="1" style="stop-color:#D8DCDF"/>
		</linearGradient>
		<path class="st7" d="M135.14,341.57H85.8l4.89,34.8l0,0l0,0c0,1.51,8.85,2.74,19.78,2.74c10.92,0,19.78-1.23,19.78-2.74l0,0l0,0
			L135.14,341.57z"/>
		
			<linearGradient id="SVGID_8_" gradientUnits="userSpaceOnUse" x1="509.3264" y1="-64.6245" x2="505.3834" y2="-46.8813" gradientTransform="matrix(1 0 0 -1 -394.132 302.5551)">
			<stop  offset="2.700000e-07" style="stop-color:#FFFFFF"/>
			<stop  offset="1" style="stop-color:#D8DCDF"/>
		</linearGradient>
		<path class="st8" d="M93.88,361.1c3.64-4.77,8.08-0.23,12.82-1.24c5-1.06,10.1-1.88,14.54,1.84c-0.79-0.67,5.96,8.91,11.26-1.36
			l2.64-18.77H85.79l3.83,25.89C91.21,364.87,93.26,361.91,93.88,361.1z"/>
		<g>
			
				<linearGradient id="SVGID_9_" gradientUnits="userSpaceOnUse" x1="525.359" y1="-38.5699" x2="495.9608" y2="-38.5699" gradientTransform="matrix(1 0 0 -1 -394.132 302.5551)">
				<stop  offset="2.700000e-07" style="stop-color:#FFFFFF"/>
				<stop  offset="1" style="stop-color:#D8DCDF"/>
			</linearGradient>
			<path class="st9" d="M138.93,334.08l-4.63,14.09c0-3.14-10.67-5.7-23.85-5.7s-23.83,2.55-23.83,5.7l-4.63-14.09H138.93z"/>
		</g>
		<g>
			
				<linearGradient id="SVGID_10_" gradientUnits="userSpaceOnUse" x1="525.3594" y1="-45.2949" x2="495.9612" y2="-45.2949" gradientTransform="matrix(1 0 0 -1 -394.132 302.5551)">
				<stop  offset="2.700000e-07" style="stop-color:#FFFFFF"/>
				<stop  offset="1" style="stop-color:#D8DCDF"/>
			</linearGradient>
			<path class="st10" d="M110.46,338.47c-13.22,0-23.94,4.2-23.94,9.38s10.72,9.38,23.94,9.38s23.94-4.2,23.94-9.38
				C134.41,342.67,123.69,338.47,110.46,338.47z"/>
		</g>
		<g>
			
				<linearGradient id="SVGID_11_" gradientUnits="userSpaceOnUse" x1="464.9307" y1="-31.5249" x2="488.0104" y2="-31.5249" gradientTransform="matrix(1 0 0 -1 -394.132 302.5551)">
				<stop  offset="2.700000e-07" style="stop-color:#FFFFFF"/>
				<stop  offset="1" style="stop-color:#D8DCDF"/>
			</linearGradient>
			<ellipse class="st11" cx="110.46" cy="334.08" rx="28.48" ry="10.52"/>
		</g>
		<g>
			<path class="st12" d="M110.46,326c-14.28,0-25.87,3.61-25.87,8.08s11.58,8.08,25.87,8.08s25.87-3.61,25.87-8.08
				S124.74,326,110.46,326z"/>
		</g>
		<g>
			<g>
				<path class="st13" d="M120.92,283.16c-2.3,4.86-7.49,49.32-7.49,49.32l1.95,1.05c2.12-30.84,3.46-38.91,5.9-50.05
					C121.32,283.3,123.22,278.28,120.92,283.16z"/>
			</g>
			<g>
				<path class="st14" d="M124.6,209.89c-13.92,38.18-3.68,73.75-3.68,73.75c15.73-6.91,17.14-27.74,17.14-27.74
					c-17.37,10.78,0.85-6.9,0.85-6.9C146.22,220.28,124.6,209.89,124.6,209.89z"/>
			</g>
			<g>
				<path class="st15" d="M113.91,253.3c0,0,16.67,17.85,0.05,5.73c0,0-1.81,18.8,6.98,24.62c0,0,14.54-35.07,3.14-74.24
					C124.08,209.41,108.51,224.07,113.91,253.3z"/>
			</g>
		</g>
		<g>
			<path class="st15" d="M136.85,273.59c0,0-2.69,3.74,2.35,8.23c5.03,4.49-5.17,2.64-5.79-5.38c-0.61-8.02-9.91,2.69-4.73,13.95
				c4.79,10.42-10.6,22.41-16.88,44.29c0.85-0.36,1.74-0.64,2.64-0.89c3.45-9.97,10.26-27.48,19.58-40.62
				c13.76-19.42,38.55-18.98,38.55-18.98S151.13,264.16,136.85,273.59z"/>
		</g>
		<g>
			<path class="st15" d="M112.03,321.4c0.44,2.21,2.33,8,3.68,12.08c0.39-0.08,0.78-0.13,1.17-0.19c-1.13-3.45-2.64-6.6-3.33-9.33
				c-5.72-22.44,3.18-30.99,5.82-47.73C84.63,315.4,111.31,317.85,112.03,321.4z"/>
		</g>
		<g>
			<g>
				<path class="st14" d="M142.66,286.74c-1.33,4.87,1.65,10.25-1.52,10.77c-3.16,0.51,2.62-9.96-1.37-9.27
					c-3.99,0.69-7.04,6.27-7.04,6.27c0.2,18.39-1.86,2.16-1.86,2.16c-6.48,13.26-1.57,19.94-1.57,19.94
					c-7.03,4.3-12.26,11.71-15.49,17.34c0.53-0.16,1.05-0.3,1.59-0.42c3.55-6.46,9.9-14.96,20.3-19.66
					c18.32-8.3,25.68-26.9,25.68-26.9S144,281.87,142.66,286.74z"/>
			</g>
			<g>
				<path class="st15" d="M142,299.08c-12.5,3.12-12.67,17.53-12.67,17.53c-7.38,4.78-12.5,11.94-15.59,17.37
					c0.56-0.18,1.12-0.33,1.69-0.44c3.55-6.46,9.9-14.96,20.3-19.66c18.32-8.3,25.68-26.9,25.68-26.9S154.49,295.96,142,299.08z"/>
			</g>
		</g>
		<g>
			<g>
				<path class="st14" d="M104.57,296.55c0.9,10.96,7.97,29.98,10.71,37.03c0.9-0.2,1.81-0.34,2.75-0.42
					c-2.78-5-10.75-20.36-12.78-35.47c-2.47-18.38,8.51-26.79-6.45-49.2c0,0-13.86,25.95-3.13-4.29c0,0-6.37-5.53-8.64-8.94
					c0,0,0.04,4.08-2.92,8.05c0,0,1.67-14.58-14.93-12.09c0,0-7.94,13.24,6.57,23.99c0,0,7.64,4.76,10.3,8.04
					c0,0-7.08-4.24-12.08-1.62c0,0,2.1,11.7,6.96,12.79c4.84,1.09,5.34,1.67,5.34,1.67s0.64,2.77,3.86,2.41
					c3.21-0.36,3.31,2.36,3.31,2.36s-5.45-2.57-9.64-0.9c0,0-0.18,7.19,7.43,8.77C98.82,290.32,103.45,282.91,104.57,296.55z"/>
			</g>
			<g>
				<path class="st15" d="M104.57,296.55c0.9,10.95,7.97,29.98,10.71,37.03c0.9-0.2,1.81-0.34,2.75-0.42
					c-2.78-5-10.74-20.36-12.78-35.47c-0.63-4.71-0.39-8.77,0.09-12.57c1.06-8.62,3.26-15.94-1.12-26.68c0,0,0,0,0-0.01
					c-1.23-3.02-2.98-6.29-5.42-9.95c0,0-13.86,25.95-3.13-4.29c0,0-6.37-5.52-8.64-8.94c0,0,0.04,4.08-2.92,8.05
					c0,0,1.67-14.58-14.93-12.09c0,0-1.27,11.16,13.23,21.91c0,0,22,29.19,17.79,30.87c0,0-16.59,3.16-8.98,4.75
					C98.82,290.32,103.45,282.91,104.57,296.55z"/>
			</g>
			<g>
				<path class="st14" d="M102.02,274.44c-0.5,6.48,3.31,10.68,3.31,10.68c1.06-8.62,3.26-15.94-1.12-26.68
					C106.01,267.95,102.53,267.95,102.02,274.44z"/>
			</g>
		</g>
		<g>
			<g>
				<path class="st14" d="M110.2,335.44c-1.71-6.03-5.72-17.37-13.36-24.56c0,0,6.02-5.47,2.07-19.88c0,0-4.94,15.45-1.44-2.52
					c0,0-1.99-6.13-5.76-7.67c-3.78-1.54-0.01,9.97-3.02,8.78c-3-1.19,0.88-5.81,0.46-10.87c-0.42-5.07-18.41-3.88-18.41-3.88
					s3.86,19.84,20.32,31.97c12.2,9,16.47,22.82,17.87,29.36C109.36,335.91,109.78,335.67,110.2,335.44z"/>
			</g>
			<g>
				<path class="st15" d="M110.26,335.41c-1.59-5.82-5.42-16.63-13.41-24.52c0,0,2.43-14.17-9.26-19.95
					c-11.68-5.79-16.84-16.11-16.84-16.11s3.86,19.84,20.32,31.97c12.2,9,16.47,22.82,17.87,29.36
					C109.37,335.9,109.82,335.64,110.26,335.41z"/>
			</g>
		</g>
		<g>
			<path class="st15" d="M109.3,333.71c-7.39-9.5-19.39-12.69-18.13-18.24c1.33-5.84-6.11-9.32-5.18-5.61
				c0.94,3.72-5,6.03-2.67,3.27c2.35-2.76,0.09-4.06,0.09-4.06c-10.28-2.17-21.75,5.48-21.75,5.48s15.1-3.81,26.69,2.95
				c8.73,5.08,16.47,13.09,19.76,16.73C108.51,334.05,108.9,333.89,109.3,333.71z"/>
		</g>
	</g>
	<g>
		
			<linearGradient id="SVGID_12_" gradientUnits="userSpaceOnUse" x1="-256.7799" y1="138.8817" x2="-267.4982" y2="236.2781" gradientTransform="matrix(-1 0 0 -1 139.3779 302.5551)">
			<stop  offset="2.700000e-07" style="stop-color:#FFFFFF"/>
			<stop  offset="1" style="stop-color:#B5D5EA"/>
		</linearGradient>
		<polygon class="st16" points="376.4,208.66 423.01,208.66 423.01,52.68 376.4,54.22 		"/>
		
			<linearGradient id="SVGID_13_" gradientUnits="userSpaceOnUse" x1="-202.5561" y1="138.3116" x2="-213.131" y2="234.4056" gradientTransform="matrix(-1 0 0 -1 139.3779 302.5551)">
			<stop  offset="2.700000e-07" style="stop-color:#FFFFFF"/>
			<stop  offset="1" style="stop-color:#B5D5EA"/>
		</linearGradient>
		<polygon class="st17" points="322.73,208.66 368.14,208.66 368.14,54.71 322.73,56.2 		"/>
	</g>
	<g>
		
			<linearGradient id="SVGID_14_" gradientUnits="userSpaceOnUse" x1="-376.37" y1="143.4532" x2="-387.0883" y2="240.8492" gradientTransform="matrix(-1 0 0 -1 139.3779 302.5551)">
			<stop  offset="2.700000e-07" style="stop-color:#FFFFFF"/>
			<stop  offset="1" style="stop-color:#B5D5EA"/>
		</linearGradient>
		<polygon class="st18" points="495.99,204.09 542.6,204.09 542.6,48.11 495.99,49.65 		"/>
		
			<linearGradient id="SVGID_15_" gradientUnits="userSpaceOnUse" x1="-322.1463" y1="142.883" x2="-332.7211" y2="238.9768" gradientTransform="matrix(-1 0 0 -1 139.3779 302.5551)">
			<stop  offset="2.700000e-07" style="stop-color:#FFFFFF"/>
			<stop  offset="1" style="stop-color:#B5D5EA"/>
		</linearGradient>
		<polygon class="st19" points="442.31,204.09 487.74,204.09 487.74,50.14 442.31,51.63 		"/>
	</g>
	<g>
		
			<linearGradient id="SVGID_16_" gradientUnits="userSpaceOnUse" x1="923.6732" y1="-80.1085" x2="923.6732" y2="41.1466" gradientTransform="matrix(-1 0 0 -1 1089.8633 302.5551)">
			<stop  offset="2.700000e-07" style="stop-color:#FFFFFF"/>
			<stop  offset="1" style="stop-color:#B5D5EA"/>
		</linearGradient>
		<polygon class="st20" points="158.36,250.82 174.02,255.63 174.02,453.48 158.36,452.76 		"/>
		
			<linearGradient id="SVGID_17_" gradientUnits="userSpaceOnUse" x1="599.7532" y1="-115.1834" x2="599.7532" y2="-63.0451" gradientTransform="matrix(-1 0 0 -1 1089.8633 302.5551)">
			<stop  offset="2.700000e-07" style="stop-color:#FFFFFF"/>
			<stop  offset="1" style="stop-color:#B5D5EA"/>
		</linearGradient>
		<polygon class="st21" points="481.35,361.04 498.87,363.67 498.87,448.19 481.35,447.79 		"/>
		
			<linearGradient id="SVGID_18_" gradientUnits="userSpaceOnUse" x1="545.1896" y1="-101.3152" x2="576.8956" y2="-56.5344" gradientTransform="matrix(-1 0 0 -1 1089.8633 302.5551)">
			<stop  offset="2.700000e-07" style="stop-color:#FFFFFF"/>
			<stop  offset="1" style="stop-color:#B5D5EA"/>
		</linearGradient>
		<polygon class="st22" points="551.33,304.26 498.87,363.67 498.87,448.19 551.33,391 		"/>
		
			<linearGradient id="SVGID_19_" gradientUnits="userSpaceOnUse" x1="847.3924" y1="-74.0504" x2="875.8471" y2="79.6049" gradientTransform="matrix(-1 0 0 -1 1089.8633 302.5551)">
			<stop  offset="2.700000e-07" style="stop-color:#FFFFFF"/>
			<stop  offset="1" style="stop-color:#B5D5EA"/>
		</linearGradient>
		<polygon class="st23" points="294.49,211 174.02,255.63 174.02,453.48 294.49,412.93 		"/>
	</g>
	
		<linearGradient id="SVGID_20_" gradientUnits="userSpaceOnUse" x1="377.697" y1="-119.4172" x2="369.0011" y2="-75.5895" gradientTransform="matrix(1 0 0 -1 -20.1378 302.5551)">
		<stop  offset="2.700000e-07" style="stop-color:#FFFFFF"/>
		<stop  offset="1" style="stop-color:#EF4036"/>
	</linearGradient>
	<path class="st24" d="M386.58,342.55c0,0,2.38,42.59-17.38,82.21c-19.77,39.62-54.87,20.94-54.73,4.44
		c0.14-16.49,7.74-100.52,7.74-100.52L386.58,342.55z"/>
	<g>
		
			<linearGradient id="SVGID_21_" gradientUnits="userSpaceOnUse" x1="555.0229" y1="7.4071" x2="779.4897" y2="34.2797" gradientTransform="matrix(-1 0 0 -1 1089.8633 302.5551)">
			<stop  offset="2.700000e-07" style="stop-color:#FFFFFF"/>
			<stop  offset="1" style="stop-color:#B5D5EA"/>
		</linearGradient>
		<polygon class="st25" points="594.5,263.76 285.07,186.47 136.26,236.81 508.16,370.73 		"/>
		
			<linearGradient id="SVGID_22_" gradientUnits="userSpaceOnUse" x1="269.6646" y1="12.8361" x2="438.0319" y2="-38.4061" gradientTransform="matrix(1 0 0 -1 -20.1378 302.5551)">
			<stop  offset="2.700000e-07" style="stop-color:#FFFFFF"/>
			<stop  offset="1" style="stop-color:#B5D5EA"/>
		</linearGradient>
		<polygon class="st26" points="508.16,386.87 136.23,246.73 136.26,236.81 508.16,370.73 		"/>
		
			<linearGradient id="SVGID_23_" gradientUnits="userSpaceOnUse" x1="638.3884" y1="-27.2151" x2="737.1597" y2="5.606" gradientTransform="matrix(1 0 0 -1 -100.4859 302.5551)">
			<stop  offset="2.700000e-07" style="stop-color:#FFFFFF"/>
			<stop  offset="1" style="stop-color:#B5D5EA"/>
		</linearGradient>
		<polygon class="st27" points="508.16,386.87 594.5,273.68 594.49,263.75 508.16,370.73 		"/>
	</g>
	
		<linearGradient id="SVGID_24_" gradientUnits="userSpaceOnUse" x1="434.0267" y1="-20.6122" x2="443.7686" y2="11.397" gradientTransform="matrix(1 0 0 -1 -20.1378 302.5551)">
		<stop  offset="2.700000e-07" style="stop-color:#FFFFFF"/>
		<stop  offset="1" style="stop-color:#B5D5EA"/>
	</linearGradient>
	<polygon class="st28" points="534.43,274.69 477.49,345.51 318.33,289.56 384.89,237.48 	"/>
	
		<linearGradient id="SVGID_25_" gradientUnits="userSpaceOnUse" x1="288.0732" y1="25.1303" x2="297.1261" y2="54.8759" gradientTransform="matrix(1 0 0 -1 -20.1378 302.5551)">
		<stop  offset="2.700000e-07" style="stop-color:#FFFFFF"/>
		<stop  offset="1" style="stop-color:#B5D5EA"/>
	</linearGradient>
	<polygon class="st29" points="380.42,232.53 304.32,291.28 178.73,245.83 259.91,203.73 	"/>
	<g>
		<polygon class="st30" points="350.42,235.02 286.27,219.16 270.62,228.34 337.66,248.48 		"/>
		<polygon class="st31" points="337.7,251.14 270.65,230.38 270.62,228.34 337.66,248.48 		"/>
		<polygon class="st32" points="350.42,235.02 337.66,248.48 337.7,251.14 350.46,237.26 		"/>
		<g>
			<path class="st32" d="M295.84,198.5l39.56,7.04c0.63,0.12,1.04,0.65,1.02,1.32l-1.39,28.96l-4.7,5.19l-35.47-41.51
				C294.87,198.9,295.36,198.41,295.84,198.5z"/>
		</g>
		<g>
			<path class="st31" d="M291.54,197.32l39.31,6.98c0.62,0.11,1.04,0.65,1.01,1.32L330.33,241l-40.41-11.74l0.65-30.95
				C290.58,197.72,291.06,197.23,291.54,197.32z"/>
		</g>
		<g>
			
				<linearGradient id="SVGID_26_" gradientUnits="userSpaceOnUse" x1="319.9973" y1="73.4865" x2="321.9028" y2="80.7419" gradientTransform="matrix(1 0 -0.0175 -1 -11.243 302.5551)">
				<stop  offset="2.700000e-07" style="stop-color:#FFFFFF"/>
				<stop  offset="1" style="stop-color:#46495F"/>
			</linearGradient>
			<path class="st33" d="M291.54,197.32l39.31,6.98c0.62,0.11,1.04,0.65,1.01,1.32l-1.46,29.71l-40.41-11.74l0.58-25.28
				C290.58,197.72,291.06,197.23,291.54,197.32z"/>
		</g>
		<g>
			<path class="st31" d="M384.5,131.79c-0.55,23.18-2.19,92.82-2.4,97.53c-0.25,5.62-5.8,5.86-5.8,5.86l3.06-111.23
				C383.71,124.35,384.6,127.47,384.5,131.79z"/>
		</g>
		<g>
			<path class="st30" d="M263.35,112.69l115.25,11.16c1.93,0.19,3.24,1.72,3.19,3.71l-2.86,106.54l-119-30.38l0.77-88.02
				C260.69,114.04,262,112.56,263.35,112.69z"/>
		</g>
		<g>
			<path class="st32" d="M265.33,117.73l108.86,11.46c1.8,0.19,3.03,1.64,2.98,3.52l-2.63,100.28l-112.51-28.72l0.76-83.69
				C262.8,119,264.05,117.6,265.33,117.73z"/>
		</g>
		<g>
			<path class="st32" d="M319.25,179.33c-12.06-11.67-13.97-29.15-28.34-37.96c-10.98-6.72-19.79,6.09-30.46,0.29l0.22-25.96
				c0.01-1.66,1.32-3.16,2.67-3.03l115.25,11.16c1.93,0.19,3.24,1.72,3.19,3.71l-1.17,43.51
				C380.35,171.28,355.07,213.97,319.25,179.33z"/>
		</g>
		<g>
			<path class="st31" d="M378.01,237.66c-0.23,0.81-1.08,1.29-1.89,1.06l-116.25-30.57c-0.28-0.07-0.44-0.41-0.37-0.75l0.42-3.68
				l119.1,30.4L378.01,237.66z"/>
		</g>
		<g>
			<g>
				<polygon class="st31" points="266.83,124.95 372.33,137.33 372.38,135.26 266.88,123.59 				"/>
			</g>
			<g>
				<polygon class="st31" points="266.75,127.28 271.39,127.87 271.44,126.49 266.8,125.92 				"/>
			</g>
			<g>
				<polygon class="st31" points="326.86,135.04 372.25,140.89 372.29,138.82 326.91,133.27 				"/>
			</g>
			<g>
				<polygon class="st31" points="280.14,129.01 318.28,133.93 318.33,132.22 280.19,127.56 				"/>
			</g>
			<g>
				<polygon class="st31" points="347.24,140.95 372.16,144.46 372.21,142.38 347.29,139.05 				"/>
			</g>
			<g>
				<polygon class="st31" points="266.67,129.61 289.05,132.76 289.1,131.25 266.71,128.25 				"/>
			</g>
			<g>
				<polygon class="st31" points="297.27,133.92 333.34,139 333.39,137.19 297.33,132.35 				"/>
			</g>
			<g>
				<polygon class="st31" points="266.23,136.52 371.86,154.31 371.91,152.23 266.29,134.69 				"/>
			</g>
			<g>
				<polygon class="st31" points="266.13,139.68 272.31,140.74 272.37,138.9 266.19,137.84 				"/>
			</g>
			<g>
				<polygon class="st31" points="333.92,151.36 371.79,157.88 371.84,155.8 333.97,149.36 				"/>
			</g>
			<g>
				<polygon class="st31" points="283.49,142.67 325.66,149.93 325.72,147.95 283.55,140.79 				"/>
			</g>
			<g>
				<polygon class="st31" points="352.04,158 371.71,161.46 371.76,159.38 352.08,155.95 				"/>
			</g>
			<g>
				<polygon class="st31" points="266.02,142.83 294.23,147.8 294.29,145.9 266.08,141 				"/>
			</g>
			<g>
				<polygon class="st31" points="303.63,149.46 339.9,155.86 339.95,153.85 303.69,147.53 				"/>
			</g>
			<g>
				<polygon class="st31" points="265.88,146.61 371.63,165.73 371.66,163.64 265.95,144.77 				"/>
			</g>
			<g>
				<polygon class="st31" points="265.78,149.78 271.97,150.92 272.03,149.06 265.85,147.93 				"/>
			</g>
			<g>
				<polygon class="st31" points="333.64,162.31 371.55,169.31 371.59,167.23 333.69,160.31 				"/>
			</g>
			<g>
				<polygon class="st31" points="283.15,152.99 325.37,160.79 325.43,158.8 283.21,151.1 				"/>
			</g>
			<g>
				<polygon class="st31" points="351.77,169.18 371.48,172.9 371.51,170.81 351.82,167.14 				"/>
			</g>
			<g>
				<polygon class="st31" points="265.67,152.95 293.9,158.28 293.96,156.36 265.73,151.1 				"/>
			</g>
			<g>
				<polygon class="st31" points="303.31,160.04 339.62,166.89 339.67,164.88 303.37,158.11 				"/>
			</g>
			<g>
				<polygon class="st31" points="265.56,156.48 371.38,176.9 371.43,174.81 265.61,154.63 				"/>
			</g>
			<g>
				<polygon class="st31" points="265.44,159.64 271.63,160.87 271.7,159 265.51,157.8 				"/>
			</g>
			<g>
				<polygon class="st31" points="333.36,173.02 371.31,180.49 371.36,178.39 333.41,171.02 				"/>
			</g>
			<g>
				<polygon class="st31" points="282.83,163.07 325.09,171.39 325.14,169.4 282.89,161.18 				"/>
			</g>
			<g>
				<polygon class="st31" points="351.51,180.12 371.23,184.09 371.28,181.99 351.56,178.08 				"/>
			</g>
			<g>
				<polygon class="st31" points="265.33,162.82 293.59,168.49 293.65,166.58 265.39,160.98 				"/>
			</g>
			<g>
				<polygon class="st31" points="303.01,170.39 339.35,177.68 339.4,175.66 303.07,168.45 				"/>
			</g>
			<g>
				<polygon class="st31" points="265.23,166 271.42,167.27 271.48,165.41 265.29,164.14 				"/>
			</g>
			<g>
				<polygon class="st31" points="333.18,179.91 371.16,187.69 371.21,185.59 333.24,177.9 				"/>
			</g>
			<g>
				<polygon class="st31" points="282.62,169.56 324.9,178.22 324.95,176.23 282.68,167.66 				"/>
			</g>
			<g>
				<polygon class="st31" points="351.35,187.17 371.08,191.29 371.12,189.2 351.39,185.12 				"/>
			</g>
			<g>
				<polygon class="st31" points="265.11,169.18 293.39,175.07 293.45,173.16 265.18,167.32 				"/>
			</g>
			<g>
				<polygon class="st31" points="302.81,177.05 339.18,184.64 339.22,182.6 302.87,175.11 				"/>
			</g>
			<g>
				<polygon class="st31" points="264.99,172.72 371,195.31 371.04,193.2 265.07,170.87 				"/>
			</g>
			<g>
				<polygon class="st31" points="264.89,175.9 271.09,177.25 271.16,175.38 264.95,174.05 				"/>
			</g>
			<g>
				<polygon class="st31" points="332.9,190.67 370.91,198.91 370.96,196.81 332.96,188.65 				"/>
			</g>
			<g>
				<polygon class="st31" points="282.3,179.68 324.61,188.87 324.67,186.87 282.35,177.79 				"/>
			</g>
			<g>
				<polygon class="st31" points="351.09,198.16 370.84,202.52 370.89,200.42 351.14,196.1 				"/>
			</g>
			<g>
				<polygon class="st31" points="264.77,179.1 293.07,185.35 293.13,183.42 264.84,177.24 				"/>
			</g>
			<g>
				<polygon class="st31" points="302.51,187.43 338.9,195.47 338.95,193.44 302.57,185.49 				"/>
			</g>
			<g>
				<polygon class="st31" points="264.64,182.91 370.75,206.85 370.8,204.73 264.71,181.05 				"/>
			</g>
			<g>
				<polygon class="st31" points="264.54,186.1 270.75,187.52 270.8,185.64 264.6,184.24 				"/>
			</g>
			<g>
				<polygon class="st31" points="332.62,201.73 370.67,210.46 370.72,208.35 332.67,199.7 				"/>
			</g>
			<g>
				<polygon class="st31" points="281.97,190.1 324.32,199.82 324.38,197.82 282.03,188.19 				"/>
			</g>
			<g>
				<polygon class="st31" points="350.82,209.46 370.6,214.08 370.65,211.98 350.87,207.41 				"/>
			</g>
			<g>
				<polygon class="st31" points="264.43,189.29 292.75,195.9 292.8,193.98 264.49,187.43 				"/>
			</g>
			<g>
				<polygon class="st31" points="302.19,198.11 338.62,206.61 338.67,204.58 302.25,196.16 				"/>
			</g>
			<g>
				<polygon class="st31" points="264.31,192.85 370.5,218.12 370.55,216.01 264.38,190.98 				"/>
			</g>
			<g>
				<polygon class="st31" points="264.2,196.06 270.41,197.55 270.48,195.67 264.26,194.19 				"/>
			</g>
			<g>
				<polygon class="st31" points="332.34,212.54 370.43,221.75 370.48,219.63 332.39,210.51 				"/>
			</g>
			<g>
				<polygon class="st31" points="281.64,200.27 324.04,210.53 324.09,208.52 281.7,198.36 				"/>
			</g>
			<g>
				<polygon class="st31" points="350.55,220.51 370.35,225.39 370.4,223.27 350.61,218.44 				"/>
			</g>
			<g>
				<polygon class="st31" points="264.09,199.26 292.43,206.23 292.49,204.29 264.15,197.39 				"/>
			</g>
			<g>
				<polygon class="st31" points="301.89,208.55 338.35,217.51 338.39,215.47 301.95,206.59 				"/>
			</g>
		</g>
	</g>
	<g>
		<polygon class="st30" points="496.34,277.98 417.39,258.37 397.87,269.72 480.32,294.62 		"/>
		<polygon class="st31" points="480.32,297.9 397.87,272.25 397.87,269.72 480.32,294.62 		"/>
		<polygon class="st32" points="496.34,277.98 480.32,294.62 480.32,297.9 496.34,280.75 		"/>
		<g>
			<path class="st32" d="M429.63,232.84l48.73,8.69c0.77,0.14,1.27,0.81,1.23,1.64l-2.28,35.77l-5.9,6.42l-43.01-51.29
				C428.43,233.35,429.03,232.74,429.63,232.84z"/>
		</g>
		<g>
			<path class="st31" d="M424.35,231.38l48.44,8.62c0.77,0.14,1.27,0.81,1.23,1.62l-2.6,43.73l-49.7-14.51l1.41-38.25
				C423.14,231.89,423.75,231.28,424.35,231.38z"/>
		</g>
		<g>
			
				<linearGradient id="SVGID_27_" gradientUnits="userSpaceOnUse" x1="463.5336" y1="31.933" x2="465.8871" y2="40.8944" gradientTransform="matrix(1 0 0 -1 -20.1378 302.5551)">
				<stop  offset="2.700000e-07" style="stop-color:#FFFFFF"/>
				<stop  offset="1" style="stop-color:#46495F"/>
			</linearGradient>
			<path class="st34" d="M424.35,231.38l48.44,8.62c0.77,0.14,1.27,0.81,1.23,1.62l-2.38,36.73l-49.7-14.51l1.22-31.25
				C423.14,231.89,423.75,231.28,424.35,231.38z"/>
		</g>
		<g>
			<path class="st31" d="M540.48,150.42c-1.13,28.64-4.52,114.7-4.87,120.51c-0.41,6.94-7.27,7.24-7.27,7.24l5.97-137.45
				C539.66,141.23,540.69,145.09,540.48,150.42z"/>
		</g>
		<g>
			<path class="st30" d="M391.15,126.82l142.18,13.81c2.37,0.23,3.97,2.12,3.87,4.58l-5.63,131.65l-146.44-37.55l2.68-108.76
				C387.85,128.49,389.5,126.66,391.15,126.82z"/>
		</g>
		<g>
			<path class="st32" d="M393.51,133.05l134.29,14.16c2.22,0.23,3.72,2.02,3.61,4.34l-5.23,123.92l-138.46-35.49l2.57-103.41
				C390.35,134.62,391.93,132.89,393.51,133.05z"/>
		</g>
		<g>
			<path class="st32" d="M458.92,209.16c-14.68-14.41-16.68-36.02-34.26-46.9c-13.42-8.3-24.57,7.53-37.64,0.36l0.78-32.09
				c0.05-2.06,1.7-3.89,3.35-3.74l142.18,13.81c2.37,0.23,3.97,2.12,3.87,4.58l-2.3,53.76C534.58,199.2,502.51,251.97,458.92,209.16
				z"/>
		</g>
		<g>
			<path class="st31" d="M530.39,281.24c-0.3,0.99-1.36,1.59-2.36,1.32l-143.06-37.78c-0.35-0.09-0.55-0.5-0.44-0.92l0.6-4.55
				l146.59,37.57L530.39,281.24z"/>
		</g>
		<g>
			<g>
				<polygon class="st31" points="395.22,141.97 525.34,157.27 525.44,154.71 395.31,140.29 				"/>
			</g>
			<g>
				<polygon class="st31" points="395.08,144.85 400.79,145.58 400.89,143.87 395.16,143.17 				"/>
			</g>
			<g>
				<polygon class="st31" points="469.2,154.43 525.17,161.68 525.26,159.11 469.29,152.26 				"/>
			</g>
			<g>
				<polygon class="st31" points="411.59,146.98 458.62,153.06 458.71,150.96 411.68,145.2 				"/>
			</g>
			<g>
				<polygon class="st31" points="494.27,161.75 524.99,166.08 525.1,163.51 494.37,159.39 				"/>
			</g>
			<g>
				<polygon class="st31" points="394.94,147.73 422.52,151.62 422.62,149.75 395.02,146.05 				"/>
			</g>
			<g>
				<polygon class="st31" points="432.67,153.05 477.14,159.33 477.23,157.08 432.75,151.11 				"/>
			</g>
			<g>
				<polygon class="st31" points="394.26,156.27 524.43,178.24 524.53,175.68 394.37,154 				"/>
			</g>
			<g>
				<polygon class="st31" points="394.06,160.17 401.68,161.49 401.8,159.2 394.18,157.89 				"/>
			</g>
			<g>
				<polygon class="st31" points="477.6,174.61 524.27,182.66 524.36,180.09 477.71,172.14 				"/>
			</g>
			<g>
				<polygon class="st31" points="415.45,163.86 467.43,172.84 467.54,170.4 415.57,161.54 				"/>
			</g>
			<g>
				<polygon class="st31" points="499.86,182.8 524.11,187.08 524.2,184.51 499.95,180.28 				"/>
			</g>
			<g>
				<polygon class="st31" points="393.87,164.07 428.63,170.21 428.74,167.86 393.98,161.79 				"/>
			</g>
			<g>
				<polygon class="st31" points="440.21,172.26 484.9,180.16 485,177.67 440.33,169.88 				"/>
			</g>
			<g>
				<polygon class="st31" points="393.64,168.74 523.91,192.36 524,189.79 393.74,166.46 				"/>
			</g>
			<g>
				<polygon class="st31" points="393.44,172.65 401.06,174.06 401.18,171.77 393.56,170.37 				"/>
			</g>
			<g>
				<polygon class="st31" points="477.04,188.14 523.74,196.79 523.84,194.21 477.15,185.66 				"/>
			</g>
			<g>
				<polygon class="st31" points="414.84,176.62 466.85,186.25 466.96,183.81 414.95,174.29 				"/>
			</g>
			<g>
				<polygon class="st31" points="499.31,196.63 523.58,201.22 523.67,198.64 499.41,194.1 				"/>
			</g>
			<g>
				<polygon class="st31" points="393.24,176.56 428.03,183.14 428.13,180.78 393.36,174.28 				"/>
			</g>
			<g>
				<polygon class="st31" points="447.32,184.37 439.73,182.95 439.63,185.34 447.32,186.8 				"/>
				<polygon class="st31" points="450.12,184.89 450.12,187.32 458.68,188.95 458.68,186.49 				"/>
				<polygon class="st31" points="461.81,187.08 461.81,189.53 484.34,193.8 484.44,191.31 				"/>
			</g>
			<g>
				<polygon class="st31" points="393.02,180.92 523.39,206.16 523.5,203.57 393.14,178.64 				"/>
			</g>
			<g>
				<polygon class="st31" points="392.83,184.85 400.45,186.35 400.57,184.05 392.94,182.56 				"/>
			</g>
			<g>
				<polygon class="st31" points="476.49,201.36 523.23,210.6 523.32,208.02 476.59,198.89 				"/>
			</g>
			<g>
				<polygon class="st31" points="414.25,189.08 466.3,199.35 466.41,196.9 414.35,186.74 				"/>
			</g>
			<g>
				<polygon class="st31" points="498.77,210.15 523.07,215.04 523.16,212.46 498.88,207.62 				"/>
			</g>
			<g>
				<polygon class="st31" points="392.63,188.76 427.43,195.78 427.55,193.42 392.75,186.48 				"/>
			</g>
			<g>
				<polygon class="st31" points="452.69,198.42 439.15,195.72 439.04,198.11 452.69,200.87 				"/>
				<polygon class="st31" points="465.21,200.92 465.21,203.39 483.8,207.14 483.89,204.64 				"/>
			</g>
			<g>
				<polygon class="st31" points="392.43,192.69 400.07,194.26 400.18,191.95 392.55,190.41 				"/>
			</g>
			<g>
				<polygon class="st31" points="476.13,209.89 522.9,219.49 523,216.9 476.24,207.41 				"/>
			</g>
			<g>
				<polygon class="st31" points="413.86,197.1 465.94,207.79 466.04,205.33 413.97,194.76 				"/>
			</g>
			<g>
				<polygon class="st31" points="498.44,218.85 522.74,223.95 522.83,221.35 498.53,216.31 				"/>
			</g>
			<g>
				<polygon class="st31" points="392.24,196.62 427.06,203.91 427.16,201.54 392.35,194.33 				"/>
			</g>
			<g>
				<polygon class="st31" points="438.67,206.34 483.44,215.72 483.54,213.22 438.77,203.95 				"/>
			</g>
			<g>
				<polygon class="st31" points="392.01,201 522.55,228.9 522.64,226.31 392.13,198.71 				"/>
			</g>
			<g>
				<polygon class="st31" points="391.83,204.93 399.46,206.6 399.58,204.29 391.93,202.64 				"/>
			</g>
			<g>
				<polygon class="st31" points="475.58,223.18 522.39,233.36 522.48,230.76 475.68,220.69 				"/>
			</g>
			<g>
				<polygon class="st31" points="413.25,209.61 465.38,220.94 465.47,218.49 413.37,207.26 				"/>
			</g>
			<g>
				<polygon class="st31" points="497.9,232.43 522.22,237.82 522.32,235.23 497.99,229.89 				"/>
			</g>
			<g>
				<polygon class="st31" points="391.63,208.87 426.46,216.6 426.58,214.22 391.74,206.58 				"/>
			</g>
			<g>
				<polygon class="st31" points="465.21,222.7 465.21,225.19 482.89,229.1 482.99,226.6 				"/>
				<polygon class="st31" points="452.69,219.95 438.19,216.77 438.08,219.18 452.69,222.42 				"/>
			</g>
			<g>
				<polygon class="st31" points="391.39,213.58 522.02,243.17 522.12,240.56 391.5,211.29 				"/>
			</g>
			<g>
				<polygon class="st31" points="391.2,217.53 398.83,219.28 398.95,216.97 391.3,215.23 				"/>
			</g>
			<g>
				<polygon class="st31" points="475.01,236.84 521.86,247.63 521.95,245.02 475.11,234.34 				"/>
			</g>
			<g>
				<polygon class="st31" points="412.65,222.46 464.79,234.48 464.9,232.01 412.75,220.11 				"/>
			</g>
			<g>
				<polygon class="st31" points="497.35,246.4 521.69,252.11 521.79,249.5 497.44,243.86 				"/>
			</g>
			<g>
				<polygon class="st31" points="391,221.47 425.85,229.65 425.97,227.27 391.11,219.17 				"/>
			</g>
			<g>
				<polygon class="st31" points="437.49,232.38 482.33,242.89 482.43,240.37 437.59,229.96 				"/>
			</g>
			<g>
				<polygon class="st31" points="390.77,225.88 521.51,257.1 521.6,254.48 390.89,223.57 				"/>
			</g>
			<g>
				<polygon class="st31" points="390.58,229.83 398.22,231.69 398.34,229.36 390.69,227.53 				"/>
			</g>
			<g>
				<polygon class="st31" points="474.45,250.19 521.34,261.58 521.44,258.97 474.55,247.69 				"/>
			</g>
			<g>
				<polygon class="st31" points="412.04,235.04 464.23,247.71 464.34,245.23 412.15,232.68 				"/>
			</g>
			<g>
				<polygon class="st31" points="496.8,260.06 521.17,266.07 521.26,263.46 496.9,257.5 				"/>
			</g>
			<g>
				<polygon class="st31" points="390.38,233.79 425.26,242.39 425.38,240.01 390.49,231.48 				"/>
			</g>
			<g>
				<polygon class="st31" points="436.89,245.27 481.78,256.34 481.88,253.83 437.01,242.85 				"/>
			</g>
		</g>
	</g>
	<g>
		<path class="st35" d="M347.29,277.59c0,0-0.89-3.44-1.23-6.67c-0.34-3.25,0.49-10.24,0.16-14.94c-0.33-4.71,2.63-6.03-0.76-9.11
			c-3.39-3.07-3.23,1.32-5.14,1.71c0,0-0.4,1.38,0.42,2.47c0,0-1.06-1.77-3.12-5.13c-2.06-3.37-5.08-0.84-5.08-0.84
			s-2.71-2.71-4.94-0.68c-2.24,2.02-2.12-4.73-5.41-4.78c-3.3-0.05-2.68,2.91-7.56,3.58c-4.89,0.67-3.48,23.71,7.34,30.54
			C332.78,280.54,347.29,277.59,347.29,277.59z"/>
		<g>
			<g>
				<g>
					
						<linearGradient id="SVGID_28_" gradientUnits="userSpaceOnUse" x1="740.5627" y1="-91.2887" x2="938.2148" y2="-91.2887" gradientTransform="matrix(-1 0 0 -1 1089.8633 302.5551)">
						<stop  offset="2.700000e-07" style="stop-color:#FFFFFF"/>
						<stop  offset="1" style="stop-color:#B5D5EA"/>
					</linearGradient>
					<path class="st36" d="M157.08,374.43l93.46-22.99c0.88-0.44,1.74-0.47,2.49-0.07l92.37,30.81c3.78,2.07,7.89,16.9-3.81,21.51
						l-97.18,32.51c-0.88,0.47-1.74,0.53-2.49,0.15l-85.61-41.43C148.61,391.47,151.58,376.03,157.08,374.43z"/>
				</g>
			</g>
			<g>
				<g>
					
						<linearGradient id="SVGID_29_" gradientUnits="userSpaceOnUse" x1="839.6218" y1="-117.8331" x2="839.6218" y2="-78.3531" gradientTransform="matrix(-1 0 0 -1 1089.8633 302.5551)">
						<stop  offset="2.700000e-07" style="stop-color:#FFFFFF"/>
						<stop  offset="1" style="stop-color:#B5D5EA"/>
					</linearGradient>
					<path class="st37" d="M159.68,373.31l91.04-32.92c0.88-0.44,1.74-0.47,2.49-0.06l90.93,40.76c3.78,2.07,5.24,12.29-2.33,15.52
						l-97.23,32.18c-0.88,0.47-1.74,0.51-2.49,0.14l-85.99-41.98C151.73,384.8,151.97,375.33,159.68,373.31z"/>
				</g>
			</g>
		</g>
		<path class="st14" d="M173.9,314.2c6.67-15.85,9.06-41.07,9.06-41.07l67.51,28.32c0.4,0.29,136.11,29.28,136.11,41.09
			c0,27.72-84.99,64.4-154.5,64.4c-7.79,0-38.79-0.61-57.98-21.39C155.49,365.43,167.22,330.05,173.9,314.2z"/>
		
			<linearGradient id="SVGID_30_" gradientUnits="userSpaceOnUse" x1="802.2854" y1="-83.0261" x2="826.8633" y2="-20.4222" gradientTransform="matrix(-1 0 0 -1 1089.8633 302.5551)">
			<stop  offset="1.545059e-07" style="stop-color:#EF4036"/>
			<stop  offset="1" style="stop-color:#D93B36"/>
		</linearGradient>
		<path class="st38" d="M173.9,314.2c6.67-15.85,9.06-41.07,9.06-41.07l67.51,28.32c0.4,0.29,136.11,29.28,136.11,41.09
			c0,7.94-6.98,16.61-18.56,24.95c-10.59-9.16-90-32.84-86.98-16.42c4.59,25.03-32.38,46.44-9.56,52.4
			c-13.24,2.21-26.58,3.47-39.41,3.47c-7.79,0-38.79-0.61-57.98-21.39C155.49,365.43,167.22,330.05,173.9,314.2z"/>
		<g>
			<path class="st35" d="M277.32,104.15c0,0,4.16,9.35-4.02,15.87c0,0,3.1,12.88,1.65,21.18c-1.45,8.31-5.4,10.28-5.62,14.64
				c-0.22,4.37,1.89,15.35-13.64,31.74c0,0-7.17-0.29-11.67-1.77c-4.5-1.48,0.7,21.59,0.7,21.59l-34.86-20.82
				c0,0,7.28-16.27,10.31-28.38c3.66-14.65-6.76-35.21,8.15-49.48C243.22,94.45,263.42,111.54,277.32,104.15z"/>
			
				<linearGradient id="SVGID_31_" gradientUnits="userSpaceOnUse" x1="262.7904" y1="132.7756" x2="244.1756" y2="122.4975" gradientTransform="matrix(1 0 0 -1 -20.1378 302.5551)">
				<stop  offset="3.782731e-07" style="stop-color:#F17E59"/>
				<stop  offset="1" style="stop-color:#BA654B"/>
			</linearGradient>
			<path class="st39" d="M220.14,158.21c0.53-2.03,0.74-4.21,0.82-6.43c0.57,0,1.15,0.23,1.72,0.7c7.06,6.24,18.66,9.05,18.86,19.79
				c0.08,2.6-5.37,20.34-4.49,30.58l-27.19-16.27C209.84,186.58,217.14,170.3,220.14,158.21z"/>
			<path class="st35" d="M223.03,115.74c-5.65,11.22-1.68,24.68-2.07,36.04c-0.09-0.02-0.15-0.01-0.25-0.02
				C220.79,140.3,217.21,126.92,223.03,115.74z"/>
			<path d="M277.32,104.15c0,0,4.08,9.2-3.85,15.72c-3.51-0.96-3.39,7.94-3.58,12.24c-0.29,6.6-5.13,9.71-6.71,18.61
				c-0.14,0.78-1.12,0.81-1.3,0.04c-1.47-6.57-4.52-7.22-10.79-0.55c-3.11,3.31-5.42,6.99-8.31,10.42c-5.74,6.77-23.08,2-23.67,2.02
				c0.39-1.31,0.75-2.77,1.06-4.44c2.84-14.87-6.76-35.21,8.15-49.48C243.22,94.45,263.42,111.54,277.32,104.15z"/>
			<g>
				
					<linearGradient id="SVGID_32_" gradientUnits="userSpaceOnUse" x1="567.8162" y1="-140.9219" x2="567.8162" y2="-128.5065" gradientTransform="matrix(0.8052 0.593 0.593 -0.8052 -124.4261 -290.083)">
					<stop  offset="3.782731e-07" style="stop-color:#F17E59"/>
					<stop  offset="1" style="stop-color:#BA654B"/>
				</linearGradient>
				<path class="st40" d="M259.38,144.9c0.47,0.81,0.26,1.87-0.47,2.4c-0.11,0.08-3.58,2.84-5.35,12.08
					c-0.18,0.89-0.94,1.48-1.74,1.37c-0.05-0.01-0.09-0.01-0.14-0.02c-0.85-0.2-1.4-1.12-1.23-2.07c2.1-10.93,6.55-14.16,6.73-14.28
					C257.92,143.85,258.92,144.1,259.38,144.9z"/>
			</g>
		</g>
		<path class="st41" d="M278.38,288.39c-7.36,14.54,1.41,34.57-4.75,64.87c0,0-74.61-4.29-95.99-31.4c0,0-1.24-56.07-1.24-73.95
			c0-19.09-3.3-74.63,45.27-63.05C262.26,194.51,301.75,242.22,278.38,288.39z"/>
		
			<linearGradient id="SVGID_33_" gradientUnits="userSpaceOnUse" x1="278.6714" y1="107.1175" x2="247.8409" y2="24.7421" gradientTransform="matrix(1 0 0 -1 -20.1378 302.5551)">
			<stop  offset="2.700000e-07" style="stop-color:#FFFFFF"/>
			<stop  offset="1" style="stop-color:#B5D5EA"/>
		</linearGradient>
		<path class="st42" d="M284.15,271.88c-2.69-1.23-5.28-2.71-7.76-4.35c-7.97-5.25-14.97-12.53-21.94-19.23
			c-7-6.73-14.58-12.96-20.37-21.03c-5.34-7.43-9.62-15.72-15.15-22.98c-4.45-5.84-5.26-14.07-1.52-20.29
			c-44.1-7.36-41.01,45.41-41.01,63.93c0,17.86,1.24,73.95,1.24,73.95c21.38,27.11,95.99,31.4,95.99,31.4
			c6.16-30.29-2.62-50.31,4.75-64.87C281.16,282.89,283.06,277.36,284.15,271.88z"/>
		
			<linearGradient id="SVGID_34_" gradientUnits="userSpaceOnUse" x1="850.3738" y1="174.3213" x2="879.6218" y2="79.4142" gradientTransform="matrix(-1 0 0 -1 1089.8633 302.5551)">
			<stop  offset="0" style="stop-color:#FFFFFF"/>
			<stop  offset="1" style="stop-color:#000000"/>
		</linearGradient>
		<path class="st43" d="M205.1,238.85c0,0.63,0,1.29,0.01,1.94c0-0.83,0.06-1.65,0.14-2.44C205.24,238.35,205.2,238.53,205.1,238.85
			z"/>
		<path class="st41" d="M255.44,202.43c9.55-0.5,26.24,10.92,33.44,19.69c7.2,8.76,12.39,8.55,14.94,15.82s10.52,9.88,11.09,12.79
			c0.57,2.92,9.85,0.76,13.49,12.46c0,0,8.12-2.23,12.75,4.34c4.64,6.57,9.84,0.9,10.66,19.88c0.62,14.26-7.69,19.5-15.79,19.92
			s-22.81-1.92-28.72-8.03c-9.9-10.24-54.86-25.53-62.82-50.9C236.54,223.02,234.52,203.51,255.44,202.43z"/>
		<path class="st44" d="M351.84,287.39c-0.42-9.77-2.01-13.01-4.08-14.74c-0.62,5.34-3.1,10.23-8.18,13.4
			c-7.08,4.42-15.4,2.4-22.5-0.83c-1.31-0.6-2.6-1.26-3.89-1.91c-1.08-0.54-1.89-0.95-2.51-1.26c-0.2-0.09-0.69-0.33-1.68-0.82
			c-5.39-2.63-10.58-5.72-15.98-8.32c-10.33-4.99-20.73-8.9-30.25-15.82c-8.46-6.15-15.64-13.44-21.92-21.92
			c0.96,4.16,2.21,8.59,3.66,13.23c7.96,25.37,52.92,40.66,62.82,50.9c5.91,6.11,20.62,8.45,28.72,8.03
			C344.14,306.89,352.46,301.65,351.84,287.39z"/>
		<g>
			<path class="st4" d="M154.34,269.07l102.49,38.54c3.47,1.31,5.8,4.89,5.8,8.92v61.53c0,6.59-5.99,11.15-11.6,8.83l-102.49-42.42
				c-3.34-1.38-5.55-4.9-5.55-8.83v-57.65C143,271.52,148.78,266.98,154.34,269.07z"/>
			
				<linearGradient id="SVGID_35_" gradientUnits="userSpaceOnUse" x1="899.1677" y1="-62.0357" x2="881.2402" y2="8.4798" gradientTransform="matrix(-1 0 0 -1 1089.8633 302.5551)">
				<stop  offset="2.700000e-07" style="stop-color:#FFFFFF"/>
				<stop  offset="1" style="stop-color:#B5D5EA"/>
			</linearGradient>
			<path class="st45" d="M153.69,272.58l97.54,36.67c3.3,1.24,5.52,4.65,5.52,8.5v58.55c0,6.27-5.69,10.6-11.03,8.4l-97.54-40.36
				c-3.18-1.32-5.28-4.66-5.28-8.4v-54.86C142.89,274.91,148.39,270.59,153.69,272.58z"/>
			<path class="st41" d="M254.01,378.52v-58.55c0-3.83-2.22-7.25-5.52-8.49l-97.54-36.68c-2.09-0.78-4.21-0.57-6.02,0.34
				c2.08-2.58,5.46-3.79,8.76-2.55l97.54,36.67c3.3,1.24,5.52,4.65,5.52,8.49v58.55c0,3.73-2.02,6.77-4.78,8.16
				C253.22,382.9,254.01,380.85,254.01,378.52z"/>
			
				<linearGradient id="SVGID_36_" gradientUnits="userSpaceOnUse" x1="896.7632" y1="-103.1805" x2="896.7632" y2="-22.423" gradientTransform="matrix(-1 0 0 -1 1089.8633 302.5551)">
				<stop  offset="2.700000e-07" style="stop-color:#FFFFFF"/>
				<stop  offset="1" style="stop-color:#697182"/>
			</linearGradient>
			<path class="st46" d="M194.9,318.14L194.9,318.14c2.9,0.71,4.91,3.03,4.91,5.66v123.22c0,3.34-3.18,6.01-6.99,5.87l0,0
				c-3.59-0.13-6.43-2.72-6.43-5.87V323.81C186.39,319.92,190.63,317.1,194.9,318.14z"/>
			
				<linearGradient id="SVGID_37_" gradientUnits="userSpaceOnUse" x1="898.1332" y1="-106.0204" x2="898.1332" y2="-25.2632" gradientTransform="matrix(-1 0 0 -1 1089.8633 302.5551)">
				<stop  offset="2.700000e-07" style="stop-color:#FFFFFF"/>
				<stop  offset="1" style="stop-color:#C4C8CD"/>
			</linearGradient>
			<path class="st47" d="M193.17,320.98L193.17,320.98c2.3,0.71,3.9,3.03,3.9,5.66v123.22c0,3.34-2.52,6.01-5.56,5.87l0,0
				c-2.86-0.13-5.12-2.72-5.12-5.87V326.64C186.39,322.76,189.77,319.94,193.17,320.98z"/>
		</g>
	</g>
	<g>
		<path class="st14" d="M507.1,309.26h-31.2l4.52,30.87l0,0c0.16,3.48,5.12,6.23,11.07,6.23s10.91-2.75,11.07-6.22L507.1,309.26z"/>
		
			<linearGradient id="SVGID_38_" gradientUnits="userSpaceOnUse" x1="521.2776" y1="-30.8249" x2="502.9826" y2="-30.8249" gradientTransform="matrix(1 0 0 -1 -20.1378 302.5551)">
			<stop  offset="1.545059e-07" style="stop-color:#EF4036"/>
			<stop  offset="1" style="stop-color:#D93B36"/>
		</linearGradient>
		<path class="st48" d="M495.57,330.98c-4.44,3.09-10.02,6.41-15.35,7.77l0.2,1.37l0,0c0.16,3.48,5.12,6.23,11.07,6.23
			s10.91-2.75,11.07-6.22l2.89-19.72C502.59,324.97,499.16,328.49,495.57,330.98z"/>
		<g>
			<path class="st15" d="M491.49,304.77c8.85,0,15.83,2,15.61,4.41c-0.22,2.34-7.2,4.18-15.61,4.18c-8.39,0-15.37-1.85-15.61-4.18
				C475.66,306.77,482.64,304.77,491.49,304.77z"/>
		</g>
		<g>
			<path class="st31" d="M491.49,305.59c8.24,0,14.76,1.62,14.58,3.59c-0.19,1.91-6.71,3.43-14.58,3.43s-14.39-1.51-14.58-3.43
				C476.73,307.21,483.26,305.59,491.49,305.59z"/>
		</g>
	</g>
</g>
</svg>
